<?xml version="1.0" standalone="no"?>
<!DOCTYPE svg PUBLIC "-//W3C//DTD SVG 20010904//EN"
 "http://www.w3.org/TR/2001/REC-SVG-20010904/DTD/svg10.dtd">
<svg version="1.0" xmlns="http://www.w3.org/2000/svg"
 width="1000.000000pt" height="1000.000000pt" viewBox="0 0 1000.000000 1000.000000"
 preserveAspectRatio="xMidYMid meet">
<metadata>
Created by potrace 1.14, written by Peter Selinger 2001-2017
</metadata>
<g transform="translate(0.000000,1000.000000) scale(0.100000,-0.100000)"
fill="#000000" stroke="none">
<path d="M4879 9446 c-87 -33 -157 -96 -201 -179 -20 -36 -23 -57 -23 -152 0
-101 2 -115 29 -168 19 -38 49 -76 87 -109 l59 -51 0 -133 c0 -74 -4 -134 -9
-134 -13 0 -60 39 -71 60 -5 10 -26 79 -45 153 -46 179 -68 235 -119 304 -77
105 -148 150 -294 184 -75 19 -106 21 -232 16 -80 -4 -165 -11 -190 -17 -185
-44 -399 -140 -780 -350 -481 -265 -783 -398 -1143 -500 -152 -43 -157 -46
-157 -64 0 -25 59 -66 226 -155 171 -91 172 -92 178 -131 l6 -39 215 -111
c170 -88 215 -115 215 -131 0 -12 10 -23 28 -29 15 -6 36 -15 47 -20 31 -14
91 -40 294 -126 105 -45 115 -52 123 -81 7 -27 15 -34 51 -43 124 -33 177 -53
170 -63 -4 -7 -29 -38 -55 -70 -61 -74 -124 -197 -150 -296 -15 -57 -20 -111
-21 -216 -2 -161 12 -223 70 -318 31 -51 35 -65 30 -105 -4 -34 -12 -53 -32
-69 -24 -21 -36 -23 -143 -23 -136 0 -180 -10 -226 -51 -41 -35 -110 -149
-125 -204 -25 -93 -2 -230 63 -371 20 -42 36 -81 36 -87 0 -5 -33 -69 -74
-141 -127 -227 -172 -327 -201 -448 -13 -57 -12 -62 31 -241 24 -100 48 -191
53 -203 5 -12 90 -69 204 -137 107 -64 197 -123 201 -132 18 -48 2 -74 -87
-139 -21 -16 -47 -42 -57 -58 -17 -28 -17 -34 -3 -91 65 -270 80 -413 88 -817
6 -312 15 -509 26 -537 13 -36 49 -52 134 -60 l80 -8 6 -45 c8 -54 19 -134 64
-480 54 -414 105 -918 105 -1035 l0 -60 -81 -65 c-89 -71 -134 -122 -150 -170
-10 -27 -8 -36 14 -69 16 -23 44 -47 72 -61 47 -23 47 -23 254 -10 170 11 241
11 384 1 168 -12 274 -9 325 10 25 10 52 64 52 105 0 43 -34 86 -124 157 -47
37 -94 83 -106 103 -21 32 -21 41 -12 107 5 40 24 171 41 292 17 121 61 431
97 690 40 288 72 479 81 493 25 41 53 46 163 32 55 -7 100 -16 100 -21 0 -5
18 -134 39 -287 22 -152 49 -360 60 -462 12 -102 30 -248 41 -325 10 -77 24
-212 30 -300 6 -88 14 -180 17 -204 5 -43 4 -44 -57 -102 -35 -33 -69 -59 -76
-59 -6 0 -15 -7 -18 -16 -3 -8 -10 -13 -15 -10 -21 13 -46 -36 -46 -90 0 -47
4 -58 31 -85 l31 -31 394 -7 c321 -6 401 -5 433 6 31 10 57 11 115 3 179 -23
484 -32 901 -25 475 7 490 10 490 68 0 52 -44 110 -145 191 -52 42 -101 87
-109 99 -13 19 -10 79 24 492 22 259 53 648 70 865 l31 395 69 120 c37 66 133
233 213 371 86 150 147 267 150 290 21 122 -4 256 -87 480 -31 84 -61 176 -67
205 l-11 54 172 405 c95 223 178 422 185 442 13 34 11 58 -15 225 -173 1119
-162 1065 -235 1151 -77 89 -194 146 -449 218 -87 25 -174 51 -192 59 l-34 14
0 83 -1 83 -34 -110 c-18 -60 -38 -137 -44 -170 -6 -33 -20 -85 -31 -115 -35
-93 -87 -306 -130 -525 -53 -265 -98 -452 -118 -487 -14 -23 -52 -40 -52 -23
0 3 -25 141 -55 308 -30 166 -63 363 -75 437 -30 201 -48 282 -85 381 -39 106
-84 165 -160 211 -30 18 -55 36 -55 39 0 4 45 21 100 38 l100 32 37 -19 c50
-25 155 -59 221 -72 81 -15 181 3 278 50 133 64 254 213 294 360 7 25 15 82
18 128 l7 84 110 34 c107 34 135 51 135 83 0 11 67 44 212 106 242 102 271
119 278 159 4 25 26 39 215 135 115 58 212 113 216 121 4 8 10 26 13 40 5 20
44 47 193 135 181 106 223 135 223 154 0 11 -35 25 -135 52 -191 51 -516 164
-655 226 -91 41 -406 198 -500 248 -370 201 -584 295 -772 341 -97 24 -133 27
-258 27 -155 0 -205 -8 -315 -51 -53 -20 -87 -43 -138 -91 -82 -78 -126 -161
-162 -311 -14 -58 -33 -131 -42 -163 -17 -60 -51 -107 -78 -107 -13 0 -15 19
-15 130 0 112 2 132 18 144 9 8 31 26 48 40 101 83 144 266 93 401 -26 69
-103 151 -174 185 -62 29 -199 38 -256 16z m238 -64 c51 -27 105 -81 129 -130
10 -20 20 -67 22 -103 10 -155 -110 -286 -265 -292 -84 -3 -146 18 -203 70
-66 59 -94 120 -94 203 0 110 52 194 154 250 51 29 61 31 135 27 57 -2 92 -10
122 -25z m965 -232 c89 -21 378 -120 378 -129 0 -3 -23 -30 -50 -58 l-50 -53
-129 0 c-121 0 -133 2 -205 31 -43 17 -79 29 -81 27 -2 -2 -11 -48 -20 -103
-9 -55 -19 -102 -24 -105 -104 -70 -116 -75 -182 -78 l-67 -4 -104 -97 c-230
-212 -228 -211 -292 -211 l-57 0 3 -32 c3 -29 7 -33 37 -36 26 -3 49 -18 93
-59 48 -47 58 -62 58 -90 l0 -33 -67 0 c-67 0 -68 0 -115 47 l-48 47 0 97 0
96 185 169 185 168 0 141 0 141 33 30 c126 119 290 148 519 94z m-1808 -14
c36 -13 90 -42 120 -65 62 -48 66 -63 66 -236 l0 -103 180 -162 180 -162 0
-103 0 -102 -50 -47 c-45 -42 -54 -46 -99 -46 -66 0 -81 7 -81 39 0 37 113
148 155 153 26 3 30 8 33 36 l3 32 -61 0 -61 0 -167 150 -167 150 -60 0 c-54
0 -67 4 -125 43 l-65 42 -14 98 c-9 64 -18 97 -27 97 -6 0 -42 -13 -79 -30
-63 -28 -74 -30 -199 -30 l-132 0 -49 50 c-29 30 -45 53 -40 58 14 12 174 76
265 106 187 62 361 73 474 32z m2292 -145 c5 -4 168 -89 362 -187 193 -98 352
-181 352 -184 0 -3 -12 -11 -27 -17 -16 -6 -70 -27 -120 -48 l-93 -37 -312
157 c-172 87 -321 163 -331 170 -17 12 -16 15 16 39 19 14 37 26 40 26 7 0 90
-39 362 -169 93 -45 170 -79 172 -77 3 2 -6 10 -19 16 -65 34 -448 261 -448
266 0 10 24 54 30 54 3 0 10 -4 16 -9z m-3096 -71 c0 -6 4 -4 -249 -159 -111
-68 -200 -125 -198 -127 2 -2 113 53 247 121 135 68 250 124 255 124 6 0 25
-12 43 -27 l33 -27 -203 -109 c-112 -60 -255 -138 -319 -173 -64 -35 -120 -63
-125 -63 -11 0 -244 91 -244 95 0 2 39 25 88 51 48 26 139 75 202 109 63 35
169 91 235 126 66 35 138 73 160 86 l40 23 17 -23 c10 -12 18 -24 18 -27z
m2722 -161 c95 -56 187 -110 203 -119 17 -9 66 -38 110 -65 188 -111 177 -98
-60 71 -263 188 -259 184 -200 184 23 0 72 -19 142 -56 175 -92 517 -276 525
-283 8 -7 -272 -122 -301 -123 -11 -1 -566 373 -618 416 -6 5 11 76 18 76 4 0
85 -46 181 -101z m-2214 16 c-3 -16 -586 -435 -604 -435 -18 0 -287 99 -297
109 -5 5 19 24 60 47 37 21 165 92 283 159 267 151 246 141 304 149 l49 6 -19
-21 c-10 -11 -102 -82 -204 -156 -197 -145 -236 -176 -185 -149 17 9 158 94
315 189 l285 174 8 -30 c4 -16 7 -35 5 -42z m1096 -22 c3 -21 6 -421 6 -888
l0 -851 -32 -12 c-25 -9 -46 -8 -88 1 l-55 12 -3 882 c-2 833 -1 882 15 886
10 3 48 5 84 6 l66 1 7 -37z m1102 -208 l204 -150 -6 -40 c-11 -78 -7 -75 -96
-75 -91 0 -64 -17 -258 160 -52 48 -114 104 -137 124 -24 21 -43 42 -43 46 0
11 113 91 123 87 5 -1 100 -70 213 -152z m-2095 98 c32 -21 58 -41 59 -45 0
-3 -80 -81 -177 -172 l-178 -165 -82 -1 -82 0 -11 57 c-10 46 -10 57 1 64 8 4
100 73 204 153 105 80 194 145 199 145 5 1 36 -16 67 -36z m1808 -194 l181
-152 0 -59 0 -58 -90 0 -91 0 -170 152 -170 152 68 63 c37 34 73 60 80 58 6
-2 93 -72 192 -156z m-1525 91 c36 -30 65 -58 65 -61 1 -4 -75 -77 -169 -163
l-170 -156 -85 0 -85 0 0 63 0 63 183 156 c100 87 185 156 189 155 4 -1 36
-27 72 -57z m3036 24 c149 -52 542 -188 578 -200 84 -27 85 -26 -76 -107 -82
-41 -159 -78 -170 -81 -12 -4 -55 8 -113 33 -52 21 -203 86 -337 142 l-242
103 76 28 77 29 201 -66 c111 -37 208 -69 216 -72 8 -3 20 -7 25 -9 6 -1 49
-16 98 -33 48 -16 85 -26 82 -20 -4 5 -11 9 -16 9 -11 0 -46 15 -205 91 -58
27 -106 49 -108 49 -2 0 -48 21 -102 46 l-99 47 30 13 c38 16 32 17 85 -2z
m-4727 -46 c20 -15 16 -18 -287 -162 -109 -52 -201 -97 -204 -101 -3 -3 19 4
49 14 58 21 227 82 432 154 l127 46 63 -20 c34 -11 69 -22 77 -25 20 -7 12
-12 -342 -170 -214 -96 -306 -133 -321 -128 -26 8 -319 156 -315 159 2 1 48
18 103 38 55 20 150 54 210 77 61 23 135 50 165 62 30 11 82 30 115 43 70 26
105 30 128 13z m4510 -183 c111 -46 280 -118 376 -159 l174 -74 -161 -81 c-89
-45 -166 -81 -172 -81 -5 0 -115 55 -242 123 -128 67 -286 149 -350 182 -65
33 -118 62 -118 65 0 3 30 17 66 32 l65 26 67 -30 c37 -17 94 -43 127 -58 33
-15 85 -39 115 -53 30 -14 120 -55 200 -91 80 -37 138 -61 130 -53 -8 8 -127
78 -265 155 -307 174 -284 159 -265 172 27 18 49 11 253 -75z m-1592 -22 c81
-79 89 -90 89 -125 l0 -38 -89 0 -89 0 -53 63 c-29 34 -59 69 -67 78 -12 15
-6 22 45 62 32 26 62 46 67 47 5 0 49 -39 97 -87z m-2513 62 c3 -3 3 -7 1 -9
-5 -4 -221 -132 -414 -246 -155 -90 -150 -96 13 -15 59 29 194 94 301 144
l194 92 63 -28 c35 -15 60 -30 56 -34 -7 -7 -577 -321 -648 -357 l-41 -21
-163 80 c-90 44 -161 81 -159 83 4 4 118 55 469 210 107 47 209 93 225 101 27
13 90 14 103 0z m1473 -31 c67 -52 69 -37 -21 -147 l-55 -67 -85 2 -85 3 -3
41 c-3 40 -1 43 89 128 51 47 95 86 97 86 2 0 30 -21 63 -46z m2108 -96 c95
-54 175 -98 176 -98 2 0 43 -23 92 -51 48 -28 122 -70 163 -92 41 -22 115 -64
164 -93 l90 -53 -55 -24 c-168 -75 -307 -137 -330 -145 -24 -10 -47 6 -310
210 -156 120 -310 240 -343 266 l-59 47 89 5 89 5 3 30 c1 17 5 49 8 73 5 40
6 41 27 30 12 -6 100 -55 196 -110z m-3104 9 l7 -56 86 -3 86 -3 -338 -269
-338 -269 -146 63 c-81 35 -171 74 -201 87 l-55 23 55 34 c84 51 450 268 487
289 18 9 95 55 170 100 75 45 144 85 152 88 19 8 26 -10 35 -84z m2963 -353
c103 -80 215 -167 248 -192 59 -45 62 -49 69 -101 4 -29 3 -57 -2 -61 -8 -8
-201 -60 -221 -60 -6 0 -15 14 -21 30 -45 130 -229 296 -372 336 -53 15 -67
26 -161 123 l-103 106 90 5 90 5 3 53 3 52 95 -75 c52 -42 178 -141 282 -221z
m-2576 176 l91 0 -74 -77 c-483 -504 -523 -544 -544 -539 -11 2 -73 16 -137
31 l-118 27 0 59 0 58 223 179 c122 98 276 222 342 275 l120 95 3 -54 3 -54
91 0z m2085 -196 c-3 -3 -30 -12 -60 -20 -31 -8 -88 -28 -128 -44 l-73 -29
-33 39 c-18 21 -72 85 -120 142 l-87 103 102 3 102 3 0 57 0 57 152 -153 c83
-84 149 -155 145 -158z m-1759 195 c9 -1 54 0 100 1 45 1 82 -2 82 -6 0 -4
-17 -28 -37 -53 -61 -76 -267 -325 -280 -339 -7 -7 -49 -58 -94 -112 -45 -55
-88 -100 -96 -100 -8 0 -39 7 -69 16 -38 11 -86 14 -168 12 -100 -3 -113 -1
-103 12 7 8 154 163 327 344 l315 329 3 -51 c2 -41 7 -52 20 -53z m450 -8 c-1
-5 -46 -81 -98 -170 l-95 -161 -119 0 c-93 0 -116 3 -109 13 6 6 65 80 132
162 l122 150 62 6 c103 9 109 9 105 0z m685 0 c39 -8 293 -312 272 -324 -8 -4
-60 -6 -117 -5 l-102 3 -97 162 c-61 101 -93 164 -86 167 17 6 96 5 130 -3z
m-605 -243 l3 -88 -91 0 c-49 0 -90 3 -90 7 0 7 36 71 77 136 22 34 28 38 61
35 l37 -3 3 -87z m511 10 c28 -44 48 -85 45 -90 -3 -4 -43 -8 -90 -8 l-84 0 0
90 0 90 39 0 c39 0 41 -2 90 -82z m873 -104 c33 -8 72 -22 87 -31 76 -47 104
-70 140 -117 95 -123 116 -286 54 -419 -42 -89 -121 -168 -210 -210 -64 -30
-74 -32 -184 -32 -113 0 -116 1 -191 38 -210 103 -292 342 -191 556 82 172
299 266 495 215z m-542 -59 c5 -3 -9 -31 -30 -61 -21 -31 -49 -85 -62 -121
l-23 -65 -67 6 c-95 9 -210 55 -288 115 l-25 20 25 26 c35 37 126 77 195 86
64 8 259 4 275 -6z m-985 -6 c76 -14 147 -50 165 -84 13 -25 13 -28 -10 -46
-42 -33 -137 -78 -197 -94 -91 -24 -202 -20 -289 11 l-75 25 -20 -23 c-28 -32
-55 -87 -64 -127 l-7 -33 -28 34 c-16 19 -54 52 -84 73 -31 21 -56 41 -56 45
0 11 73 76 123 109 150 101 361 144 542 110z m-185 -597 c87 -27 207 -57 575
-141 245 -56 451 -138 564 -223 l55 -42 -32 -13 c-17 -7 -79 -24 -138 -38
l-107 -26 -55 26 c-121 58 -268 97 -612 165 -135 27 -283 62 -329 78 l-84 28
-17 85 c-10 46 -25 108 -34 138 -9 30 -16 56 -16 58 0 2 30 -12 68 -31 37 -18
110 -47 162 -64z m-592 4 c69 -35 133 -100 168 -168 36 -70 45 -199 19 -277
-70 -211 -321 -320 -520 -226 -213 102 -282 373 -142 557 44 57 94 95 163 124
52 22 71 24 159 21 86 -3 108 -7 153 -31z m1803 -142 c30 -31 30 -33 11 -43
-11 -6 -59 -22 -107 -36 l-87 -25 -92 37 c-89 35 -273 92 -305 94 -9 0 55 16
142 35 86 19 199 48 250 63 l92 29 32 -61 c18 -34 47 -75 64 -93z m-1309 -122
l56 -18 -59 -36 -59 -37 0 54 c0 30 1 55 3 55 1 0 27 -8 59 -18z m312 -77 c92
-19 170 -35 174 -35 4 0 -38 -16 -93 -34 -192 -65 -265 -129 -265 -230 0 -68
51 -146 129 -196 l48 -32 -47 -49 c-25 -27 -59 -72 -75 -101 -15 -29 -29 -55
-31 -57 -2 -2 -26 14 -54 35 -112 85 -219 254 -228 357 -3 38 2 65 17 100 12
27 24 67 28 90 5 31 17 52 51 85 42 40 142 100 169 102 6 0 86 -16 177 -35z
m351 -81 c22 -4 43 -12 47 -18 4 -5 4 -49 1 -95 -6 -80 -9 -89 -45 -134 -50
-64 -49 -84 2 -104 26 -11 40 -22 38 -31 -2 -9 -7 -15 -13 -14 -5 1 -42 7 -81
13 l-71 12 -7 135 c-10 227 -10 229 22 241 15 5 36 8 47 6 11 -2 38 -7 60 -11z
m-786 -432 c26 -50 63 -95 144 -176 l108 -108 -12 -52 c-7 -28 -22 -67 -35
-86 -37 -56 -57 -153 -51 -240 5 -65 13 -90 61 -185 58 -116 80 -194 74 -260
l-3 -40 -96 -3 -95 -3 -17 54 c-17 55 -46 90 -84 101 -26 8 -21 23 -73 -214
-37 -166 -41 -198 -40 -311 1 -154 -9 -223 -66 -454 -66 -268 -71 -235 78
-595 69 -168 132 -323 139 -345 19 -53 19 -341 0 -498 -13 -113 -14 -117 -39
-124 -39 -9 -815 -9 -984 1 -82 4 -154 13 -162 20 -23 17 -44 241 -52 556 l-7
275 27 14 c47 26 58 56 67 184 8 137 13 146 97 177 31 12 76 36 101 54 26 18
107 62 182 98 75 37 155 83 177 103 51 45 82 108 82 164 0 37 -8 52 -66 124
-37 45 -117 159 -179 252 l-113 170 -7 150 c-11 247 -39 348 -129 458 -26 31
-42 57 -37 57 19 0 91 72 116 114 13 23 36 85 51 139 31 113 31 113 135 71 58
-24 73 -26 179 -22 135 4 190 24 249 87 l36 40 145 -48 c154 -51 196 -69 247
-107 17 -13 34 -24 36 -24 3 0 12 18 21 41 16 39 16 42 -6 80 -27 48 -85 79
-208 109 -46 12 -97 29 -111 37 l-27 16 33 50 c18 27 42 76 52 108 10 32 20
59 23 59 3 0 20 -30 39 -68z m-371 -66 c-6 -136 -40 -179 -156 -192 -54 -7
-145 23 -190 61 -25 22 -27 29 -30 122 l-4 98 192 1 192 1 -4 -91z m1477 -107
c34 -64 43 -99 28 -99 -18 1 -31 18 -56 73 -15 32 -40 78 -56 102 -19 29 -25
45 -18 48 17 7 61 -47 102 -124z m-2210 102 c98 -44 155 -131 155 -235 -1
-149 -109 -256 -261 -256 -119 0 -213 68 -246 179 -18 65 -13 133 16 189 25
48 99 115 143 129 54 18 148 15 193 -6z m1882 -256 c60 -18 133 -79 170 -142
40 -69 45 -181 11 -254 -51 -109 -137 -169 -254 -177 -133 -8 -231 48 -285
162 -74 157 -5 335 157 401 68 28 129 31 201 10z m413 -145 c12 -85 8 -202
-11 -350 -8 -64 -14 -79 -40 -103 -17 -16 -33 -27 -35 -25 -2 3 8 49 22 104
24 93 25 110 22 297 -4 188 -3 197 13 180 12 -12 22 -48 29 -103z m1033 -423
c79 -36 158 -113 193 -190 26 -54 29 -73 29 -157 0 -78 -4 -104 -23 -144 -93
-203 -327 -291 -525 -199 -83 39 -141 97 -180 181 -29 60 -32 77 -32 158 0 84
2 95 38 166 52 106 142 180 254 208 68 17 182 6 246 -23z m-1636 -88 c87 -21
184 -22 241 -4 19 6 22 4 22 -21 1 -42 32 -104 73 -143 20 -19 34 -38 31 -43
-11 -17 -82 -47 -174 -73 -106 -31 -99 -32 -278 37 l-104 40 27 28 c30 31 55
105 55 162 0 21 4 38 9 38 5 0 49 -9 98 -21z m543 -60 c-19 -76 -19 -76 -42
-40 l-22 34 35 28 c18 15 35 26 37 24 2 -2 -2 -23 -8 -46z m-646 -374 c134
-41 258 -75 277 -75 19 0 72 16 119 36 190 80 236 96 285 101 100 10 138 -31
178 -192 53 -210 73 -466 46 -585 -14 -64 -40 -130 -49 -125 -4 3 -11 26 -15
52 -8 58 -57 211 -90 287 -27 60 -63 91 -94 81 -38 -12 -81 -195 -96 -407 -5
-68 -1 -108 23 -223 l28 -140 -301 2 c-165 2 -332 3 -371 3 -39 0 -83 4 -98
10 l-27 10 20 39 c75 147 79 309 14 615 -16 74 -19 79 -51 93 -29 12 -37 12
-48 1 -7 -7 -45 -96 -85 -197 l-71 -183 20 -72 c30 -104 45 -200 40 -264 -4
-58 -33 -133 -54 -139 -6 -2 -26 17 -43 43 -69 105 -98 238 -86 404 10 143 10
140 38 270 30 136 61 290 77 379 6 36 23 88 37 115 27 55 99 136 121 136 7 0
122 -34 256 -75z m-1734 -205 c23 -23 28 -88 8 -108 -19 -19 -70 -14 -95 10
-28 26 -29 43 -3 86 23 38 59 43 90 12z m3348 -116 l142 7 0 -26 c0 -14 -7
-39 -14 -54 -15 -28 -171 -181 -185 -181 -16 0 -142 140 -156 174 -15 36 -20
78 -9 88 3 3 22 1 42 -4 23 -7 91 -8 180 -4z m-2938 -79 c42 -22 60 -53 60
-105 0 -104 -135 -163 -212 -93 -26 23 -48 66 -48 93 0 83 121 146 200 105z
m3375 -19 c61 -26 84 -109 44 -160 -25 -32 -62 -52 -111 -61 -34 -6 -40 -4
-82 39 -39 39 -46 51 -46 85 0 46 16 66 75 92 49 22 75 23 120 5z m-782 -106
c36 0 46 -7 130 -97 100 -104 166 -153 208 -153 37 0 74 32 95 84 l18 44 59
-54 c81 -75 128 -98 203 -98 44 -1 75 6 112 23 34 16 56 21 62 15 5 -5 18 -41
29 -79 10 -39 40 -129 65 -201 54 -153 67 -254 43 -342 -15 -55 -224 -412
-241 -412 -20 0 5 167 45 305 25 87 39 153 36 175 -8 68 -68 266 -102 336 -42
85 -61 104 -97 97 l-28 -5 0 -157 c0 -86 -3 -233 -7 -328 l-6 -171 -156 -8
c-159 -7 -364 5 -448 27 -38 10 -41 14 -48 54 -3 24 1 128 10 232 23 261 12
373 -39 373 -49 0 -64 -27 -122 -220 -78 -259 -78 -270 -15 -457 29 -85 51
-169 51 -192 l0 -41 -25 16 c-37 24 -146 193 -206 319 l-53 110 28 140 c40
197 77 339 130 495 57 168 73 183 181 174 28 -2 67 -4 88 -4z m625 -1265 c2
-2 -6 -99 -17 -216 -27 -292 -45 -552 -86 -1249 -19 -327 -37 -625 -40 -662
l-6 -66 102 -83 c93 -75 100 -83 84 -96 -15 -10 -90 -12 -394 -7 -207 4 -377
8 -378 8 -1 1 45 40 102 87 101 81 104 85 105 125 0 43 -40 642 -65 974 -31
398 -46 672 -52 933 l-6 269 324 -7 c178 -4 325 -9 327 -10z m-1648 -480 c74
-3 166 -8 203 -12 63 -6 68 -8 63 -27 -17 -72 -60 -395 -86 -656 -18 -168 -43
-368 -56 -445 -16 -90 -29 -214 -36 -347 l-11 -208 37 -42 c20 -24 52 -62 72
-85 l37 -43 -265 0 c-146 0 -267 2 -270 5 -2 3 14 24 36 48 23 23 47 60 55 82
19 57 25 258 12 368 -69 567 -161 1340 -161 1356 0 20 4 21 118 16 64 -3 178
-7 252 -10z m-997 -2 c61 -5 67 -8 67 -28 0 -13 -32 -243 -70 -511 -97 -675
-140 -998 -140 -1061 0 -30 6 -66 14 -81 16 -30 68 -81 136 -133 l44 -34 -49
-8 c-28 -4 -149 -3 -270 3 -121 6 -260 12 -308 13 l-88 2 61 44 c68 50 140
133 140 162 0 11 -6 63 -14 117 -8 53 -22 167 -31 252 -8 85 -20 180 -25 210
-17 99 -102 764 -126 992 l-7 57 34 4 c57 7 560 7 632 0z"/>
</g>
</svg>
