<?xml version="1.0" standalone="no"?>
<!DOCTYPE svg PUBLIC "-//W3C//DTD SVG 20010904//EN"
 "http://www.w3.org/TR/2001/REC-SVG-20010904/DTD/svg10.dtd">
<svg version="1.0" xmlns="http://www.w3.org/2000/svg"
 width="308.000000pt" height="308.000000pt" viewBox="0 0 308.000000 308.000000"
 preserveAspectRatio="xMidYMid meet">
<metadata>
Created by potrace 1.11, written by Peter Selinger 2001-2013
</metadata>
<g transform="translate(0.000000,308.000000) scale(0.100000,-0.100000)"
fill="#000000" stroke="none">
<path d="M1490 2902 c-64 -31 -77 -122 -25 -174 18 -18 24 -35 23 -61 -1 -36
-11 -47 -23 -27 -3 5 -13 35 -20 65 -8 31 -22 66 -31 79 -22 35 -81 59 -144
61 -94 3 -117 -6 -448 -181 -24 -13 -91 -40 -150 -60 -59 -21 -111 -41 -116
-45 -4 -4 16 -21 45 -37 30 -17 65 -42 79 -55 14 -14 45 -35 70 -47 25 -12 52
-28 60 -35 8 -7 44 -25 80 -40 36 -15 68 -33 73 -40 4 -8 21 -16 37 -20 27 -6
43 -25 22 -25 -5 0 -19 -18 -31 -41 -33 -58 -40 -156 -15 -210 23 -53 12 -74
-43 -75 -59 -1 -72 -9 -92 -55 -20 -44 -19 -71 4 -130 13 -35 13 -39 -20 -100
-46 -85 -59 -132 -46 -172 5 -18 12 -44 15 -59 4 -19 22 -35 60 -57 79 -45 86
-57 51 -85 l-28 -22 12 -65 c7 -35 15 -134 18 -219 3 -85 10 -161 15 -167 6
-7 21 -13 34 -13 13 0 24 -3 25 -7 0 -5 2 -17 4 -28 8 -49 25 -184 30 -230 2
-27 7 -73 11 -101 15 -122 13 -133 -22 -161 -41 -32 -49 -51 -29 -73 14 -15
36 -18 161 -17 112 0 149 3 160 14 18 18 5 44 -37 75 -30 22 -31 25 -25 83 3
33 7 74 10 90 12 79 46 326 46 334 0 14 35 23 63 16 20 -5 25 -14 31 -53 3
-26 8 -63 11 -82 10 -68 25 -206 31 -275 3 -38 7 -75 9 -82 2 -7 -12 -26 -32
-42 -29 -24 -34 -34 -29 -55 l6 -26 183 -1 c100 0 255 -1 345 -2 222 -3 234 3
158 76 l-44 42 8 85 c8 83 16 177 26 310 9 123 15 143 80 255 74 130 77 150
38 268 l-26 78 57 134 c54 127 57 138 50 192 -3 32 -8 65 -10 73 -2 8 -6 33
-9 55 -29 206 -37 230 -88 260 -17 10 -62 27 -102 39 -53 17 -71 27 -70 39 3
29 -14 9 -21 -26 -4 -17 -15 -61 -26 -97 -10 -36 -21 -78 -24 -95 -14 -85 -39
-185 -46 -185 -5 0 -11 10 -14 23 -5 23 -30 165 -40 227 -12 75 -28 114 -56
142 -16 16 -29 31 -29 33 0 10 60 14 84 6 44 -17 74 -20 110 -10 76 21 120 82
125 175 1 7 13 15 29 19 15 3 36 14 47 24 11 10 45 28 75 40 30 12 62 31 71
41 8 10 40 30 69 45 30 15 66 39 81 54 14 15 47 38 73 51 25 14 46 28 46 31 0
3 -48 21 -107 41 -108 36 -159 58 -350 156 -57 29 -124 59 -150 67 -68 21
-159 19 -210 -5 -45 -20 -67 -55 -95 -149 -17 -59 -37 -66 -33 -11 2 29 11 49
29 65 39 36 37 106 -3 146 -16 16 -35 29 -43 30 -7 0 -20 2 -29 4 -9 1 -31 -4
-49 -13z m113 -33 c27 -33 23 -93 -9 -118 -59 -46 -144 -10 -144 61 1 56 43
92 100 84 19 -3 43 -15 53 -27z m-255 -70 c18 -11 22 -23 22 -61 0 -45 3 -49
59 -99 43 -38 59 -58 59 -78 0 -33 -25 -61 -55 -61 -31 0 -29 13 7 43 35 30
37 37 12 37 -9 0 -40 20 -69 45 -28 25 -60 45 -70 45 -33 0 -63 29 -63 60 0
28 -2 29 -26 20 -39 -15 -110 -12 -124 5 -15 18 -17 17 41 39 96 35 156 37
207 5z m557 12 c17 -5 44 -14 60 -21 l30 -12 -22 -18 c-22 -18 -75 -20 -121
-6 -17 6 -21 1 -27 -23 -8 -35 -25 -51 -59 -55 -14 -1 -48 -24 -76 -49 -28
-26 -60 -47 -71 -47 -28 0 -23 -13 11 -33 35 -21 40 -47 9 -47 -29 0 -49 24
-49 59 0 24 13 43 60 88 55 54 59 61 54 93 -5 27 -1 39 14 53 39 35 109 42
187 18z m233 -101 l111 -55 -41 -15 -41 -15 -96 48 c-53 27 -97 53 -99 58 -7
17 29 9 88 -21 75 -38 78 -32 5 10 -30 17 -55 36 -55 42 0 12 -3 14 128 -52z
m-1074 42 c2 -4 -22 -23 -55 -42 -32 -18 -57 -35 -55 -37 1 -2 30 11 64 28 36
19 68 29 77 25 13 -5 3 -14 -41 -38 -115 -61 -148 -76 -158 -72 -75 26 -76 21
10 66 44 23 93 49 109 59 34 20 42 22 49 11z m918 -99 c63 -39 56 -26 -12 22
-35 25 -58 45 -51 45 7 0 58 -23 113 -52 l100 -52 -38 -17 c-54 -24 -66 -23
-108 10 -20 16 -59 44 -86 61 -28 18 -50 39 -50 46 0 15 29 1 132 -63z m-757
58 c3 -6 -3 -15 -14 -20 -11 -6 -25 -17 -33 -24 -7 -7 -42 -32 -76 -56 l-64
-43 -44 17 c-24 9 -44 18 -44 20 0 3 26 18 148 87 61 34 68 18 9 -23 -31 -22
-57 -43 -57 -45 0 -2 35 18 78 45 83 54 88 56 97 42z m336 -11 c0 -3 1 -125 2
-272 2 -230 0 -267 -13 -271 -39 -10 -40 -5 -40 279 l0 274 25 -2 c14 -1 25
-5 26 -8z m362 -82 c45 -36 50 -68 10 -68 -20 0 -44 15 -81 52 -50 48 -53 53
-36 65 20 14 33 8 107 -49z m-663 42 c12 -8 7 -17 -30 -56 -48 -49 -81 -67
-105 -58 -27 11 -16 30 43 77 61 49 68 52 92 37z m51 -99 c-30 -27 -62 -47
-70 -46 -9 2 -21 4 -28 4 -28 2 2 43 76 104 l34 28 21 -21 21 -21 -54 -48z
m502 43 c64 -51 76 -84 30 -84 -19 0 -45 15 -81 47 -50 44 -51 47 -35 64 10
10 20 18 23 18 3 1 31 -20 63 -45z m586 -7 l83 -30 -48 -23 c-27 -12 -54 -23
-60 -23 -6 -1 -46 14 -90 33 -43 18 -88 37 -99 41 -19 7 -18 8 6 17 20 7 44 3
100 -16 40 -14 75 -23 76 -22 2 2 -24 15 -57 30 -110 50 -56 46 89 -7z m-1579
24 c0 -4 -29 -21 -65 -36 -36 -16 -63 -30 -61 -32 2 -2 39 10 84 26 70 26 123
31 122 12 -1 -3 -44 -25 -97 -48 l-96 -42 -49 21 c-26 11 -48 24 -48 29 0 4
15 12 33 18 17 5 61 21 97 35 74 28 80 29 80 17z m71 -78 c-34 -19 -61 -36
-61 -39 0 -3 3 -3 8 -1 90 51 172 74 172 48 0 -3 -33 -23 -72 -44 -40 -20 -86
-46 -102 -56 -29 -20 -29 -20 -79 5 -27 14 -47 27 -45 30 13 13 224 101 231
97 5 -3 -18 -21 -52 -40z m837 14 c12 -11 22 -26 22 -34 0 -21 -53 -16 -73 7
-20 24 -21 32 -5 48 12 12 22 9 56 -21z m542 -14 l111 -47 -50 -25 -51 -25
-111 56 c-99 50 -109 58 -90 67 16 9 32 6 82 -19 78 -37 89 -32 17 9 -78 45
-35 38 92 -16z m-862 25 c8 -8 6 -18 -9 -39 -15 -22 -25 -27 -46 -23 -37 7
-37 7 -8 43 29 33 44 38 63 19z m775 -100 l78 -42 -53 -28 c-29 -15 -58 -27
-64 -28 -10 0 -168 115 -202 147 -11 11 -9 13 12 13 21 0 26 5 26 26 l0 25 63
-36 c34 -19 97 -54 140 -77z m-1087 78 c5 -20 11 -23 32 -20 24 4 25 3 12 -9
-13 -12 -153 -124 -187 -149 -7 -6 -28 -2 -55 10 -24 10 -52 22 -62 26 -16 5
7 23 110 86 71 43 132 79 136 79 4 1 10 -10 14 -23z m245 -56 l30 0 -45 -57
c-25 -32 -60 -74 -78 -94 -32 -35 -35 -36 -85 -30 l-52 6 97 102 c59 62 98 96
100 87 2 -8 16 -14 33 -14z m473 -14 l43 -44 -41 -16 -41 -16 -32 37 c-18 21
-32 41 -33 46 0 4 14 7 31 7 24 0 30 4 25 15 -9 24 1 18 48 -29z m136 5 c19
-14 46 -36 60 -49 14 -12 40 -33 57 -45 55 -37 54 -62 -2 -72 -26 -5 -33 0
-58 35 -15 22 -44 48 -65 57 -37 17 -102 70 -102 84 0 4 11 6 25 3 18 -3 25 0
25 11 0 18 6 15 60 -24z m-760 20 c0 -5 11 -11 24 -13 23 -3 17 -11 -65 -96
l-89 -93 -42 8 c-27 5 -44 15 -46 25 -2 10 33 45 95 97 92 76 123 94 123 72z
m257 -25 c-3 -8 -17 -32 -30 -54 -20 -31 -31 -39 -56 -39 -37 0 -38 6 -10 38
12 13 27 33 35 44 16 24 69 33 61 11z m260 -34 c40 -50 41 -54 5 -58 -17 -2
-31 8 -52 38 -35 48 -37 63 -11 65 12 1 34 -16 58 -45z m-229 -29 c-2 -23 -8
-28 -30 -28 -24 -1 -25 1 -16 20 22 42 51 47 46 8z m156 5 c11 -16 12 -24 5
-29 -23 -14 -43 -2 -44 24 -2 33 18 35 39 5z m292 -44 c68 -32 93 -117 54
-181 -50 -83 -170 -83 -220 0 -67 109 50 236 166 181z m-456 -27 l23 -16 -34
-21 c-28 -18 -44 -20 -96 -16 -55 5 -63 3 -75 -16 l-15 -22 -21 20 c-21 20
-21 21 -4 37 55 50 173 68 222 34z m260 13 c0 -26 -32 -70 -50 -70 -28 0 -91
32 -87 44 9 27 137 51 137 26z m-275 -201 c149 -35 198 -51 243 -76 23 -13 42
-26 42 -28 0 -2 -16 -9 -36 -14 -30 -8 -50 -6 -108 13 -39 13 -93 27 -121 31
-27 5 -52 9 -55 10 -3 1 -22 5 -42 9 -45 10 -54 20 -63 68 l-7 38 28 -15 c16
-8 70 -24 119 -36z m-256 16 c16 -8 36 -31 46 -52 16 -33 16 -41 4 -77 -27
-76 -107 -106 -170 -63 -122 82 -10 260 120 192z m531 -9 c0 -7 7 -20 16 -27
14 -12 13 -14 -16 -24 -26 -9 -44 -7 -94 10 l-63 20 61 16 c79 21 96 22 96 5z
m-380 -74 c0 -13 -12 -22 -22 -16 -10 6 -1 24 13 24 5 0 9 -4 9 -8z m109 -40
c-76 -31 -94 -81 -44 -120 l22 -18 -22 -32 -23 -33 -29 25 c-68 57 -73 134
-12 187 28 24 32 25 86 15 l57 -10 -35 -14z m106 -35 c-3 -16 -10 -37 -15 -47
-6 -11 -5 -21 2 -28 9 -9 9 -12 1 -12 -34 0 -43 13 -43 64 0 61 2 65 35 58 22
-4 24 -8 20 -35z m-207 -160 c22 -21 28 -34 24 -50 -6 -21 -6 -21 -12 3 -4 19
-17 28 -50 39 -25 8 -47 15 -48 17 -2 1 2 18 9 38 l13 35 17 -27 c9 -15 30
-40 47 -55z m-166 60 c9 -14 -1 -60 -15 -69 -38 -25 -97 1 -97 42 0 30 0 30
90 36 8 1 18 -4 22 -9z m-202 -36 c52 -41 14 -143 -52 -136 -12 1 -29 3 -36 4
-20 2 -50 59 -44 87 6 31 47 64 81 64 14 0 37 -9 51 -19z m665 -31 c9 -32 2
-25 -20 20 -13 27 -14 32 -2 20 8 -8 18 -26 22 -40z m-367 -29 c70 -26 83 -37
73 -64 -10 -28 -4 -76 14 -104 8 -12 16 -37 17 -55 3 -29 0 -33 -24 -36 -22
-3 -30 2 -38 22 -23 62 -45 8 -60 -149 -5 -55 -16 -123 -24 -152 l-14 -51 45
-109 c41 -100 45 -114 43 -188 -2 -107 -1 -103 -19 -107 -9 -3 -79 -4 -156 -2
-213 3 -192 -1 -199 42 -12 76 -10 206 4 232 8 14 15 40 15 58 1 18 4 34 6 35
2 2 38 21 79 41 41 21 83 47 93 58 21 25 22 61 1 79 -32 27 -94 133 -95 163
-1 65 -7 97 -26 133 l-19 38 23 34 c13 19 23 42 23 52 0 16 7 17 68 12 58 -5
70 -3 92 15 14 12 25 21 25 22 0 0 24 -9 53 -19z m282 -18 c48 -28 55 -96 14
-137 -54 -53 -153 -18 -154 56 -1 80 71 122 140 81z m107 -33 c2 -11 -1 -20
-5 -20 -4 0 -9 12 -10 27 -2 30 10 24 15 -7z m-3 -77 c-3 -27 -10 -52 -16 -58
-6 -7 -7 -1 -3 15 3 14 7 40 8 57 1 18 6 33 10 33 4 0 5 -21 1 -47z m346 -70
c76 -69 43 -185 -58 -203 -68 -12 -135 43 -134 113 1 98 121 154 192 90z
m-450 -24 c0 -9 7 -22 15 -29 23 -19 19 -26 -26 -39 -31 -9 -49 -9 -77 0 -38
12 -65 29 -45 29 6 0 13 13 16 28 6 27 8 29 61 28 45 -1 56 -4 56 -17z m82
-11 c-7 -7 -12 -8 -12 -2 0 6 3 14 7 17 3 4 9 5 12 2 2 -3 -1 -11 -7 -17z
m-192 -108 c81 -25 96 -25 148 0 68 33 96 25 113 -31 15 -52 22 -136 14 -186
-7 -48 -13 -51 -20 -11 -8 45 -35 98 -49 98 -25 0 -43 -130 -28 -196 l9 -40
-116 2 c-64 1 -119 2 -123 3 -4 0 -1 16 6 34 22 57 7 197 -22 197 -26 0 -61
-105 -50 -148 11 -42 7 -107 -7 -106 -20 2 -39 60 -38 114 2 81 38 248 59 271
21 24 24 23 104 -1z m-530 -80 c0 -21 -24 -28 -35 -10 -8 14 3 30 21 30 8 0
14 -9 14 -20z m1070 -24 c0 -17 -48 -66 -65 -66 -7 0 -22 15 -34 33 l-20 32
57 6 c31 3 58 6 60 7 1 1 2 -4 2 -12z m-946 -22 c21 -8 20 -37 -2 -57 -16 -15
-20 -15 -40 -1 -45 31 -11 78 42 58z m1054 -32 c4 -23 -28 -45 -52 -36 -24 9
-31 46 -11 60 23 17 59 3 63 -24z m-209 -42 c45 -44 58 -48 76 -23 11 15 15
15 47 -5 31 -20 45 -21 86 -10 19 4 64 -127 58 -170 -3 -18 -21 -58 -40 -89
-34 -53 -36 -55 -36 -28 1 17 7 47 15 69 11 32 11 46 -1 93 -32 123 -58 124
-61 2 -1 -46 -2 -91 -2 -100 -1 -14 -13 -16 -78 -14 -139 4 -124 -9 -121 102
3 83 1 98 -13 101 -24 5 -63 -132 -49 -175 5 -18 14 -46 19 -63 15 -47 -4 -35
-44 28 -32 50 -35 62 -30 100 8 57 31 143 49 187 13 30 20 35 49 35 27 0 44
-9 76 -40z m136 -438 c-3 -48 -8 -105 -10 -127 -5 -42 -10 -121 -20 -325 -4
-69 -8 -128 -9 -132 0 -4 14 -18 32 -31 18 -14 30 -27 25 -29 -6 -4 -162 -2
-223 2 -10 0 -3 11 18 28 l33 28 -5 79 c-4 44 -9 109 -11 145 -12 161 -14 192
-20 314 -5 82 -3 131 3 135 5 3 51 5 102 3 l92 -3 -7 -87z m-822 -61 c37 -1
38 -2 32 -29 -3 -15 -7 -43 -9 -62 -4 -41 -25 -188 -30 -216 -2 -10 -7 -40
-10 -66 -3 -27 -9 -68 -12 -93 -5 -40 -3 -48 24 -75 l30 -30 -109 1 -109 0 31
26 31 27 -6 80 c-4 45 -11 106 -16 136 -5 30 -11 78 -15 105 -11 103 -16 141
-21 167 -5 23 -2 27 23 30 15 2 51 2 78 1 28 -1 67 -2 88 -2z m350 -2 c47 -2
57 -5 53 -18 -9 -33 -19 -113 -31 -234 -3 -32 -10 -81 -15 -109 -17 -90 -13
-159 12 -185 l21 -23 -31 -1 c-41 -1 -96 -1 -122 0 -20 1 -20 1 1 22 20 20 21
29 16 123 -4 55 -8 112 -11 126 -2 14 -7 52 -11 85 -7 64 -10 90 -20 171 l-6
50 43 -2 c24 -2 69 -4 101 -5z"/>
<path d="M2240 2516 c0 -2 7 -7 16 -10 8 -3 12 -2 9 4 -6 10 -25 14 -25 6z"/>
</g>
</svg>
