<?xml version="1.0" standalone="no"?>
<!DOCTYPE svg PUBLIC "-//W3C//DTD SVG 20010904//EN"
 "http://www.w3.org/TR/2001/REC-SVG-20010904/DTD/svg10.dtd">
<svg version="1.0" xmlns="http://www.w3.org/2000/svg"
 width="2316.000000pt" height="3120.000000pt" viewBox="0 0 2316.000000 3120.000000"
 preserveAspectRatio="xMidYMid meet">

<g transform="translate(0.000000,3120.000000) scale(0.100000,-0.100000)"
fill="#000000" stroke="none">
<path d="M11467 31134 c-3 -3 -31 -5 -64 -5 -32 0 -101 -9 -153 -20 -52 -11
-100 -21 -106 -22 -7 -2 -18 -8 -25 -14 -12 -9 -67 -26 -92 -27 -4 -1 -11 -6
-15 -12 -4 -6 -19 -14 -33 -17 -14 -4 -42 -18 -63 -32 -20 -14 -40 -25 -45
-25 -4 0 -16 -8 -27 -18 -10 -10 -39 -30 -64 -44 -69 -41 -207 -188 -298 -316
-44 -63 -129 -241 -137 -287 -1 -11 -11 -51 -21 -90 -36 -134 -18 -565 25
-619 8 -10 24 -88 21 -101 0 -3 7 -13 15 -22 10 -10 14 -25 11 -39 -7 -28 3
-61 14 -44 5 8 10 2 14 -15 4 -15 14 -34 22 -42 8 -8 12 -19 9 -24 -4 -5 -1
-9 6 -9 6 0 9 -8 6 -20 -3 -13 -1 -18 6 -13 7 4 8 0 4 -11 -5 -13 -3 -17 6
-13 17 6 59 -54 61 -88 1 -22 5 -25 25 -20 19 5 22 3 17 -11 -4 -10 0 -22 11
-29 10 -8 18 -18 18 -23 0 -11 64 -72 76 -72 4 0 12 -6 16 -13 14 -22 61 -47
77 -41 9 3 16 1 16 -5 0 -6 -5 -11 -11 -11 -8 0 -8 -5 1 -15 7 -8 20 -14 29
-13 9 2 15 -3 13 -9 -1 -7 4 -13 12 -13 7 0 19 -7 26 -15 7 -8 16 -13 20 -10
5 3 18 -8 29 -24 20 -28 21 -41 22 -486 0 -284 -3 -461 -9 -467 -16 -16 -88 1
-136 34 -61 40 -133 129 -151 188 -3 8 -16 43 -25 65 -23 58 -71 212 -68 222
3 13 -14 87 -22 98 -5 6 -16 51 -26 100 -9 50 -21 95 -26 102 -5 7 -7 16 -4
22 3 5 1 22 -5 38 -6 15 -12 43 -15 62 -2 19 -8 39 -13 45 -4 6 -16 45 -26 86
-24 102 -80 274 -110 336 -14 28 -25 55 -25 59 0 15 -104 215 -112 215 -4 0
-8 5 -8 11 0 12 -110 172 -122 177 -4 2 -8 8 -8 13 0 5 -44 53 -98 107 -106
105 -139 135 -170 151 -11 6 -27 17 -34 23 -36 34 -280 166 -323 175 -6 1 -46
15 -90 31 -81 29 -211 62 -320 83 -33 6 -78 15 -100 20 -76 17 -281 31 -455
32 -347 1 -721 -42 -995 -115 -22 -5 -49 -12 -59 -14 -11 -2 -22 -7 -25 -11
-3 -5 -10 -8 -16 -8 -30 -1 -96 -18 -101 -26 -3 -5 -14 -9 -25 -9 -25 0 -307
-94 -374 -125 -16 -7 -42 -17 -57 -20 -16 -4 -28 -11 -28 -16 0 -5 -9 -9 -20
-9 -19 0 -42 -9 -145 -55 -27 -13 -72 -33 -100 -44 -100 -43 -607 -291 -615
-300 -3 -3 -45 -27 -95 -52 -116 -59 -269 -140 -320 -169 -105 -60 -234 -130
-240 -130 -3 0 -15 -9 -27 -20 -12 -11 -30 -20 -39 -20 -10 0 -24 -6 -31 -12
-7 -7 -26 -20 -43 -28 -16 -8 -47 -25 -69 -38 -21 -13 -70 -40 -108 -60 -85
-45 -166 -88 -193 -105 -34 -20 -170 -95 -252 -138 -43 -23 -82 -45 -88 -49
-5 -5 -41 -25 -80 -45 -94 -49 -342 -179 -435 -226 -41 -22 -79 -42 -85 -47
-5 -4 -30 -16 -55 -27 -25 -10 -57 -27 -72 -37 -14 -10 -29 -18 -34 -18 -4 0
-61 -27 -128 -59 -269 -131 -434 -209 -533 -252 -18 -8 -33 -17 -33 -21 0 -5
-9 -8 -21 -8 -11 0 -57 -18 -102 -39 -81 -39 -170 -77 -257 -109 -25 -9 -48
-20 -51 -25 -3 -4 -15 -9 -26 -11 -12 -3 -35 -12 -52 -20 -16 -9 -35 -16 -40
-16 -6 0 -34 -11 -63 -24 -29 -14 -67 -28 -83 -32 -17 -4 -35 -11 -41 -15 -6
-5 -40 -20 -75 -33 -138 -51 -184 -69 -189 -75 -3 -3 -14 -7 -25 -7 -21 -2
-70 -18 -120 -39 -24 -11 -93 -35 -115 -40 -41 -11 -67 -19 -75 -25 -5 -5 -37
-16 -70 -25 -33 -10 -67 -21 -75 -26 -42 -21 -751 -228 -958 -280 -40 -9 -79
-22 -85 -27 -12 -10 -18 -12 -37 -12 -17 0 -11 -63 9 -95 10 -16 29 -40 42
-52 92 -87 146 -126 229 -170 52 -28 122 -65 155 -83 33 -18 94 -51 135 -73
41 -22 131 -70 200 -107 197 -107 258 -139 365 -196 55 -29 141 -75 190 -101
l90 -48 -3 -60 c-4 -97 7 -164 31 -186 12 -11 29 -26 37 -33 8 -8 49 -32 90
-53 98 -52 1033 -527 1216 -618 l141 -70 2 -60 c1 -55 4 -63 36 -93 19 -18 35
-38 35 -45 1 -7 6 -4 14 6 11 14 15 15 19 5 4 -10 8 -10 16 2 9 13 11 12 12
-5 1 -11 1 -23 0 -27 0 -4 12 -5 28 -2 29 6 91 -14 91 -28 0 -5 6 -8 14 -8 8
0 16 -5 18 -10 2 -6 13 -12 26 -13 12 0 22 -5 22 -10 0 -5 6 -7 13 -4 6 2 20
-2 29 -11 21 -18 68 -24 84 -11 8 7 11 5 10 -7 -1 -17 11 -27 54 -44 14 -5 33
-16 43 -22 14 -11 19 -10 27 2 8 13 10 12 10 -2 0 -10 7 -18 15 -18 7 0 19 -8
24 -17 10 -17 10 -16 11 2 1 11 4 14 7 8 2 -7 11 -13 19 -13 9 0 13 -4 10 -9
-3 -4 14 -14 37 -20 60 -18 128 -52 121 -62 -3 -5 2 -6 10 -3 9 3 13 11 10 18
-3 6 1 3 9 -6 8 -10 17 -15 20 -11 4 3 7 1 7 -6 0 -8 7 -11 15 -7 9 3 24 -2
35 -12 11 -9 26 -17 33 -18 6 0 20 -2 30 -2 9 -1 17 -9 17 -18 0 -8 4 -12 10
-9 5 3 19 -1 31 -9 12 -8 28 -12 37 -9 12 5 14 1 10 -15 -5 -18 -3 -20 17 -12
17 7 25 5 29 -6 3 -8 11 -12 17 -9 5 4 18 0 27 -8 9 -8 34 -18 55 -22 21 -4
37 -13 37 -21 0 -8 6 -11 15 -8 8 4 21 1 28 -5 8 -6 30 -13 50 -15 21 -3 52
-17 71 -31 18 -14 40 -25 49 -25 10 0 17 -4 17 -10 0 -5 9 -10 20 -10 11 0 20
-4 20 -9 0 -5 11 -8 25 -5 14 2 25 0 25 -6 0 -5 10 -10 22 -10 12 0 18 -3 14
-7 -3 -4 8 -12 26 -17 32 -11 33 -12 36 -76 3 -92 11 -130 27 -137 8 -3 13 -9
10 -13 -5 -9 79 -26 102 -22 6 2 14 -2 18 -8 3 -5 17 -10 30 -10 13 0 27 -5
30 -10 4 -6 10 -8 14 -5 5 2 23 0 42 -6 19 -6 43 -12 54 -14 30 -5 89 -29 96
-39 4 -4 10 -3 13 3 4 6 13 11 19 11 7 0 6 -4 -3 -10 -11 -7 -4 -11 28 -16 23
-4 45 -10 47 -14 3 -5 14 -6 25 -3 12 3 20 0 20 -6 0 -7 6 -11 13 -9 21 4 90
-13 111 -27 13 -10 25 -11 36 -5 14 7 19 5 23 -11 3 -11 9 -19 14 -18 4 1 16
1 26 0 21 -1 23 -21 2 -21 -9 0 -19 -10 -24 -22 -5 -13 -19 -32 -32 -43 -71
-61 -224 -247 -303 -366 -20 -30 -42 -63 -49 -74 -164 -247 -338 -672 -372
-911 -4 -27 -10 -58 -12 -69 -21 -93 -44 -426 -44 -645 0 -310 31 -515 112
-740 13 -36 29 -68 34 -72 6 -4 7 -8 3 -8 -9 0 49 -117 62 -125 5 -3 10 -15
10 -26 0 -10 5 -19 10 -19 6 0 10 -6 10 -13 0 -8 9 -22 20 -32 11 -10 20 -22
20 -27 0 -4 20 -35 45 -69 l45 -61 0 -87 c0 -219 -55 -338 -184 -397 -85 -39
-171 -45 -510 -38 -299 7 -315 6 -419 -16 -59 -12 -110 -27 -113 -31 -3 -5
-13 -9 -21 -9 -22 0 -139 -72 -184 -113 -33 -30 -77 -84 -106 -132 -33 -53
-67 -121 -64 -130 1 -5 -1 -7 -4 -3 -11 11 -88 -90 -79 -103 4 -7 3 -9 -3 -6
-10 6 -79 -106 -109 -178 -83 -199 -103 -518 -49 -775 60 -285 135 -495 292
-820 61 -127 72 -158 64 -175 -6 -11 -25 -45 -42 -75 -55 -95 -76 -133 -108
-195 -18 -33 -47 -87 -66 -120 -19 -33 -47 -82 -61 -110 -15 -27 -42 -74 -60
-103 -19 -29 -34 -58 -34 -64 0 -6 -6 -19 -14 -27 -7 -9 -25 -37 -40 -63 -14
-27 -38 -69 -53 -95 -181 -320 -331 -649 -418 -917 -31 -97 -70 -251 -91 -369
l-18 -98 34 -137 c19 -75 35 -141 36 -147 1 -5 27 -113 58 -240 31 -126 66
-268 77 -315 11 -47 26 -108 34 -136 8 -28 19 -71 24 -95 5 -24 17 -73 26
-109 9 -36 18 -72 20 -80 10 -48 37 -130 43 -130 4 0 18 -10 32 -23 14 -12 36
-28 50 -35 14 -7 43 -23 65 -37 22 -13 56 -32 75 -43 19 -10 145 -85 279 -166
135 -82 252 -151 260 -154 9 -3 39 -21 68 -39 29 -18 55 -33 58 -33 4 0 21
-11 39 -25 18 -14 37 -25 41 -25 5 0 38 -22 74 -48 36 -26 107 -70 156 -96
178 -97 202 -125 215 -255 13 -130 -27 -184 -235 -316 -113 -72 -249 -191
-238 -208 2 -4 -1 -6 -9 -5 -7 2 -12 -3 -11 -9 2 -7 -1 -12 -6 -10 -5 1 -8 -1
-8 -5 1 -3 -8 -17 -19 -30 -57 -62 -64 -116 -29 -228 9 -30 34 -127 56 -215
22 -88 45 -173 51 -188 10 -27 13 -43 16 -111 2 -28 3 -29 16 -11 12 17 14 12
11 -50 -1 -39 4 -92 12 -120 12 -47 20 -92 57 -355 48 -337 74 -666 91 -1125
3 -110 9 -204 13 -209 3 -5 4 -83 3 -172 -2 -110 1 -170 9 -184 8 -15 8 -20 1
-16 -6 4 -11 0 -11 -9 0 -9 3 -14 7 -12 12 8 10 -297 -2 -305 -6 -5 -5 -8 4
-8 11 0 11 -3 1 -15 -10 -12 -10 -18 0 -30 9 -10 9 -15 1 -15 -17 0 -15 -207
2 -224 8 -8 12 -34 11 -62 -5 -166 -4 -303 2 -484 4 -113 7 -224 6 -247 -1
-24 1 -43 5 -43 8 0 14 -86 19 -275 4 -161 15 -285 25 -279 5 3 6 -1 3 -9 -8
-22 11 -59 62 -115 54 -61 75 -72 159 -83 33 -4 87 -12 121 -18 33 -6 130 -15
215 -20 186 -11 209 -18 210 -63 2 -45 7 -86 15 -128 4 -19 6 -41 5 -48 -1 -6
2 -12 6 -12 4 0 8 -48 9 -108 0 -68 8 -148 23 -222 12 -63 22 -128 21 -144 0
-15 4 -33 9 -40 5 -6 9 -22 9 -36 0 -59 26 -269 44 -350 5 -25 9 -63 9 -85 -1
-30 1 -36 9 -25 7 10 8 -3 4 -44 -4 -35 -3 -57 2 -54 5 4 9 -6 10 -20 1 -31
12 -133 18 -177 3 -16 10 -70 16 -120 6 -49 17 -139 26 -200 8 -60 21 -166 30
-235 8 -69 20 -156 25 -195 5 -38 11 -88 14 -110 2 -22 16 -125 30 -230 14
-104 39 -327 55 -495 17 -168 43 -420 60 -560 62 -544 160 -1695 160 -1892 l0
-58 -122 -97 c-122 -97 -290 -234 -338 -276 -14 -12 -58 -49 -98 -82 -82 -67
-211 -241 -245 -330 -10 -27 -23 -55 -27 -60 -5 -6 -9 -22 -9 -35 -1 -14 -1
-35 -1 -48 -1 -47 61 -146 139 -222 42 -41 90 -82 106 -90 17 -8 44 -24 60
-35 17 -12 55 -30 85 -41 86 -30 402 -26 855 10 391 32 420 34 635 36 147 1
501 -19 795 -44 88 -8 169 -15 180 -15 299 -12 372 -11 520 4 88 9 165 21 171
26 6 5 13 7 16 4 2 -3 20 0 39 6 19 5 45 12 59 14 51 7 81 26 103 62 12 21 23
41 23 46 1 4 3 9 4 12 1 3 3 8 5 13 1 4 5 15 10 26 4 10 8 31 9 47 1 16 4 29
9 29 4 0 7 7 7 15 0 8 6 15 13 15 9 0 9 2 -1 9 -15 9 -15 20 -2 36 10 13 9
145 -1 145 -5 0 -9 11 -9 24 0 14 -7 31 -15 39 -8 8 -11 17 -8 21 3 3 -2 8
-11 12 -9 3 -16 15 -16 26 0 13 -5 18 -13 15 -10 -4 -13 2 -9 19 3 17 0 24
-11 24 -9 0 -19 9 -22 20 -4 11 -11 18 -16 15 -5 -4 -9 0 -9 8 0 8 -14 20 -32
26 -17 6 -29 14 -25 17 8 8 -27 41 -52 49 -12 3 -21 13 -21 21 0 8 -4 13 -9
10 -5 -3 -19 7 -32 24 -13 16 -36 32 -51 35 -17 4 -25 11 -22 20 4 8 -6 16
-28 21 -18 4 -36 7 -40 6 -7 -2 -12 21 -9 40 0 5 -5 8 -12 8 -14 0 -50 25 -75
53 -9 9 -24 17 -34 17 -21 0 -24 16 -5 23 7 3 4 6 -6 6 -20 1 -87 51 -87 65 0
5 -15 23 -32 40 -18 17 -32 35 -30 40 2 5 -4 6 -12 3 -9 -4 -15 -3 -15 1 4 24
-4 41 -20 47 -12 4 -18 12 -14 21 3 7 0 14 -7 14 -6 0 -9 4 -6 9 3 5 -1 12
-10 15 -9 3 -14 12 -11 20 3 7 1 18 -5 24 -6 6 -11 48 -11 94 1 122 45 478 63
503 17 24 55 289 44 306 -3 5 0 9 6 9 6 0 9 3 6 8 -4 7 21 206 44 352 6 36 12
88 15 115 2 28 7 66 11 85 3 19 8 62 9 95 2 33 8 73 14 88 6 16 11 48 11 71 0
24 4 56 9 72 5 16 12 59 15 95 2 37 12 110 21 164 9 54 15 115 13 135 -2 21 0
36 4 34 5 -3 8 1 8 8 0 7 7 60 15 118 38 270 47 330 54 395 5 39 16 115 26
169 9 55 14 110 10 123 -3 13 -2 23 3 23 5 0 9 6 10 13 1 6 7 44 12 82 6 39
13 86 15 105 2 19 8 67 14 107 6 40 8 79 5 88 -4 8 -1 22 5 29 7 8 14 32 16
53 2 21 9 61 15 88 6 28 9 64 5 82 -3 18 -1 34 5 38 6 4 8 15 5 25 -3 10 -1
22 6 25 8 6 7 10 -2 16 -9 5 -9 9 -3 9 7 0 12 17 12 39 0 22 5 48 10 58 5 10
8 41 6 68 -1 28 4 62 12 78 11 21 12 27 2 27 -9 0 -10 3 -2 8 12 7 26 111 28
199 1 28 4 49 9 46 6 -4 12 38 8 61 -1 5 4 13 11 17 9 6 9 9 1 9 -8 0 -7 16 4
57 8 31 13 67 10 80 -2 13 -1 23 3 23 3 0 7 15 8 33 3 52 9 112 12 117 3 5 9
52 11 80 0 8 5 40 11 70 6 30 12 76 13 102 2 25 7 68 13 95 6 26 18 93 27 148
20 127 17 115 45 171 14 27 40 62 58 78 103 91 213 102 503 52 79 -14 193 -28
252 -32 119 -8 127 -12 127 -77 0 -18 7 -78 15 -133 32 -207 76 -512 85 -579
5 -38 16 -117 24 -175 8 -58 17 -121 20 -140 2 -19 14 -100 25 -180 40 -270
80 -566 95 -691 8 -68 26 -214 40 -324 14 -110 32 -267 41 -350 8 -82 20 -184
25 -225 6 -41 12 -100 15 -130 3 -30 8 -73 10 -95 2 -22 9 -98 15 -170 12
-144 24 -235 40 -310 36 -167 59 -299 71 -415 6 -58 12 -114 14 -125 3 -24 12
-177 20 -325 34 -689 45 -808 95 -1030 37 -159 37 -165 -1 -214 -19 -24 -41
-54 -49 -66 -27 -41 -69 -80 -85 -80 -9 0 -13 -4 -10 -10 6 -11 -98 -120 -133
-139 -35 -18 -38 -12 -5 12 29 21 90 87 80 87 -3 0 -20 -14 -38 -31 -19 -18
-50 -43 -69 -58 -43 -32 -72 -63 -65 -69 3 -3 14 4 25 16 12 12 26 22 32 22 6
0 1 -11 -12 -26 -18 -18 -31 -23 -47 -19 -13 3 -23 1 -23 -5 0 -6 -4 -9 -9 -5
-5 3 -16 -1 -24 -9 -8 -8 -18 -12 -22 -8 -5 4 -5 1 -1 -6 5 -8 13 -9 26 -2 31
17 35 11 10 -15 -27 -28 -40 -32 -40 -10 0 8 -4 15 -8 15 -15 0 -102 -61 -102
-72 0 -5 7 -2 16 6 14 15 28 20 47 17 4 0 7 3 7 9 0 5 4 10 10 10 5 0 7 -7 4
-15 -4 -8 -12 -15 -19 -15 -6 0 -24 -11 -39 -25 -22 -20 -28 -22 -32 -10 -8
19 -16 19 -40 -3 -10 -9 -31 -23 -45 -30 -37 -19 -75 -110 -90 -210 -15 -109
-4 -178 45 -281 27 -58 117 -148 169 -171 44 -18 46 -18 1067 -35 118 -2 368
-7 555 -11 187 -4 456 -8 597 -8 142 -1 258 -3 258 -6 0 -3 19 -4 42 -2 24 2
54 2 68 0 14 -1 66 -2 115 -2 82 0 99 3 190 41 151 62 226 74 259 40 10 -9 29
-17 44 -18 15 0 38 -2 52 -4 14 -1 59 -6 100 -9 41 -4 82 -9 90 -11 8 -3 107
-12 220 -20 884 -67 1253 -71 3810 -40 l425 6 95 46 c52 26 97 50 100 54 3 3
16 12 29 19 22 11 23 16 18 79 -6 72 -54 208 -93 266 -13 20 -24 39 -24 43 0
4 -16 24 -35 45 -19 21 -35 40 -35 42 0 14 -35 42 -46 38 -8 -3 -14 2 -14 11
0 9 -4 16 -10 16 -5 0 -10 7 -10 15 0 8 -9 19 -21 25 -11 7 -29 20 -40 31 -10
10 -23 19 -28 19 -9 0 -34 21 -97 80 -12 11 -26 20 -33 20 -17 0 -71 58 -71
75 0 9 -10 15 -26 15 -28 0 -85 46 -78 64 2 6 -8 12 -22 13 -16 0 -41 16 -64
41 -21 22 -41 37 -44 34 -3 -3 -6 -1 -6 5 0 5 -25 36 -55 68 -30 31 -55 63
-55 71 0 8 -4 14 -8 14 -4 0 -13 15 -20 33 -9 26 -10 57 -2 128 6 52 15 155
20 229 5 74 14 178 19 230 5 52 13 138 16 190 4 52 8 115 11 140 2 25 8 99 14
165 5 66 14 170 20 230 23 269 31 368 40 485 5 69 18 238 30 375 11 138 27
333 35 435 8 102 18 214 20 250 3 36 10 110 15 165 5 55 11 141 15 190 7 119
12 185 30 405 8 102 20 246 25 320 6 74 15 185 20 245 5 61 17 202 25 315 8
113 20 255 25 315 5 61 14 175 20 255 5 80 12 172 15 205 3 33 12 148 20 255
8 107 20 256 26 330 12 161 27 217 74 290 19 30 35 58 35 62 0 4 31 59 69 122
38 62 80 134 94 157 13 24 48 87 77 139 29 52 68 118 85 145 17 28 35 57 39
65 4 8 12 24 19 35 13 22 72 124 97 167 8 14 28 49 43 77 15 29 43 75 61 104
18 29 52 88 75 132 23 44 56 100 72 125 16 25 32 52 36 60 3 8 17 32 31 53 13
22 61 105 106 185 112 200 125 222 148 259 11 18 17 37 13 43 -3 5 0 10 7 10
7 0 20 15 27 32 8 18 22 44 31 58 21 30 128 209 152 251 9 17 23 38 31 47 9 9
19 31 23 47 4 17 15 43 25 59 10 16 23 61 29 100 6 39 16 86 22 105 6 21 10
142 10 307 0 240 -2 277 -16 299 -10 16 -17 47 -18 78 -1 56 -49 289 -72 347
-7 19 -21 61 -31 92 -10 32 -21 55 -26 53 -4 -3 -5 3 -3 12 4 16 -70 235 -131
388 -42 105 -133 349 -145 390 -6 22 -16 49 -21 60 -29 63 -129 429 -129 473
0 16 10 48 21 73 22 44 108 250 188 449 24 58 47 112 52 120 5 8 12 22 15 30
7 18 17 43 19 50 7 19 23 56 56 128 22 45 39 87 39 92 0 6 5 19 10 30 6 11 15
29 20 40 6 11 24 55 41 98 16 42 40 100 53 127 13 28 29 68 36 90 7 22 16 42
20 45 4 3 17 31 29 64 12 32 31 78 42 102 22 50 42 97 43 104 1 3 9 21 18 40
9 19 35 80 57 135 40 95 63 151 109 256 12 25 50 119 87 209 37 90 75 182 85
204 10 23 31 70 45 106 15 36 35 83 45 105 10 22 33 76 50 120 17 44 42 102
55 130 51 110 63 143 59 166 -2 13 -13 87 -24 164 -11 77 -29 194 -40 260 -11
66 -33 212 -50 325 -17 113 -35 228 -40 255 -21 116 -31 179 -36 223 -3 26
-18 135 -35 242 -16 107 -39 256 -50 330 -11 74 -31 203 -44 285 -13 83 -40
256 -60 385 -19 129 -43 280 -52 335 -8 55 -17 107 -18 115 0 8 -4 35 -8 60
-4 25 -9 59 -12 75 -2 17 -11 71 -19 120 -9 50 -18 108 -21 130 -3 22 -10 66
-16 98 -5 32 -19 118 -30 190 -11 73 -25 159 -30 192 -5 33 -16 98 -23 145
-43 275 -102 436 -225 610 -72 103 -102 135 -227 250 -64 59 -74 67 -174 133
-109 72 -322 187 -346 187 -7 0 -14 3 -16 8 -4 9 -138 62 -158 62 -8 0 -28 7
-45 16 -30 15 -224 81 -365 124 -41 12 -86 27 -100 32 -14 6 -35 12 -47 13
-12 2 -55 12 -95 24 -125 35 -380 103 -443 118 -33 8 -64 18 -70 22 -5 5 -35
14 -65 22 -57 13 -200 72 -260 106 l-35 20 3 169 c1 93 4 221 7 284 4 105 3
112 -10 83 -8 -17 -16 -42 -19 -55 -3 -12 -16 -61 -30 -108 -34 -119 -45 -154
-68 -240 -26 -96 -58 -192 -68 -205 -4 -5 -10 -21 -13 -35 -3 -14 -11 -43 -17
-65 -11 -39 -14 -56 -44 -267 -16 -110 -43 -211 -77 -286 -10 -23 -19 -48 -19
-54 0 -9 -31 -100 -70 -203 -9 -23 -39 -126 -51 -170 -4 -16 -16 -61 -27 -100
-12 -38 -37 -133 -57 -210 -20 -77 -40 -153 -45 -170 -5 -16 -22 -84 -36 -150
-14 -66 -35 -158 -45 -205 -56 -249 -90 -415 -109 -530 -4 -30 -18 -98 -30
-150 -11 -52 -27 -131 -36 -175 -8 -44 -19 -96 -24 -116 -6 -20 -10 -47 -10
-59 0 -13 -4 -37 -10 -54 -5 -17 -23 -105 -40 -196 -17 -91 -42 -208 -55 -260
-13 -52 -34 -140 -46 -195 -11 -55 -25 -108 -30 -117 -5 -10 -9 -30 -9 -44 0
-15 -11 -61 -24 -103 -13 -42 -29 -96 -35 -121 -39 -150 -48 -180 -71 -213
-14 -20 -29 -37 -33 -37 -5 0 -6 -4 -3 -9 9 -14 -42 -62 -75 -71 -26 -8 -79 1
-79 13 0 2 -16 91 -35 198 -118 643 -138 752 -150 829 -8 47 -21 119 -29 160
-8 41 -25 140 -40 220 -14 80 -27 152 -30 160 -3 8 -12 58 -20 110 -16 102
-23 144 -56 315 -21 113 -51 306 -120 780 -22 148 -44 290 -49 315 -5 25 -19
99 -31 165 -12 66 -33 163 -47 215 -13 52 -31 122 -39 155 -13 51 -52 156 -85
230 -5 11 -18 56 -29 100 -21 79 -29 99 -89 225 -43 91 -65 125 -126 200 -93
113 -232 236 -330 290 -22 12 -42 25 -45 29 -3 4 -23 15 -45 25 -96 43 -125
60 -125 72 0 8 -6 11 -15 8 -9 -4 -15 0 -15 9 0 10 7 15 20 12 11 -2 22 0 25
4 2 5 22 12 42 15 49 9 168 43 213 61 19 7 69 24 110 36 41 12 89 27 105 34
17 8 58 23 93 36 34 12 62 26 62 31 0 5 4 7 9 4 4 -3 16 1 27 8 17 13 43 7 64
-14 10 -10 132 -70 142 -70 6 0 19 -6 27 -13 26 -23 244 -100 274 -98 17 1 26
-3 22 -8 -3 -6 7 -13 22 -17 15 -3 66 -18 113 -32 47 -14 88 -25 91 -24 4 0
51 -11 105 -27 92 -26 142 -32 269 -34 92 -1 259 13 320 27 121 28 211 54 255
75 25 11 51 21 59 21 8 0 22 6 30 14 9 7 41 21 71 31 30 10 67 26 82 36 14 11
29 19 33 19 4 0 48 25 98 56 51 32 101 62 112 68 38 21 85 69 85 88 0 10 5 18
11 18 5 0 7 5 3 11 -5 8 1 10 19 6 22 -6 24 -4 20 13 -4 16 0 20 21 20 15 0
25 4 22 9 -5 8 20 36 33 36 3 0 6 7 6 15 0 8 8 14 18 14 9 -1 17 3 17 10 1 16
32 51 53 59 9 3 20 15 24 24 3 10 28 43 55 74 26 31 48 62 48 69 0 7 11 21 25
32 14 11 25 25 25 32 0 7 9 23 20 36 11 13 20 31 20 41 0 10 6 22 13 26 15 10
107 194 107 215 0 9 4 19 9 22 10 6 57 137 78 216 53 204 71 356 68 575 l-2
171 96 29 c53 16 116 34 141 41 25 8 78 25 119 39 41 13 77 23 79 20 3 -2 14
2 26 10 11 8 35 15 53 15 18 0 33 4 33 8 0 10 65 31 111 37 17 2 37 9 45 16
11 9 14 8 14 -2 0 -12 2 -12 9 0 5 8 21 15 36 17 28 3 55 20 55 35 0 5 9 18
20 29 15 15 20 33 20 78 0 60 19 102 45 102 8 0 72 25 142 56 70 31 180 79
243 106 63 28 129 56 145 64 101 44 318 139 425 184 157 66 314 134 503 218
125 55 152 71 173 101 13 20 24 41 24 47 0 6 7 17 15 24 11 9 15 30 14 77 -1
35 0 65 2 67 2 2 108 55 234 119 127 64 457 232 735 374 l505 258 29 60 c24
49 30 73 30 131 1 40 4 70 9 67 4 -2 7 0 7 5 0 5 12 15 28 22 15 8 92 53 172
100 80 48 213 126 295 175 83 48 162 96 177 106 15 11 31 19 36 19 5 0 28 14
50 30 23 16 46 30 50 30 5 0 28 14 50 30 23 17 44 30 47 30 6 0 357 208 432
256 36 23 55 43 59 61 4 16 12 33 19 38 16 13 22 55 12 73 -5 6 -19 12 -32 12
-13 0 -26 -6 -29 -12 -3 -7 -4 -4 -3 7 1 15 -4 20 -20 19 -13 0 -23 3 -23 8 0
4 -9 8 -20 8 -11 0 -20 4 -20 9 0 14 -38 20 -45 7 -3 -8 -7 -8 -11 2 -3 6 -19
12 -34 12 -16 0 -32 5 -35 10 -3 6 -11 10 -16 10 -6 0 -7 -4 -4 -10 3 -5 2
-10 -4 -10 -5 0 -11 7 -13 16 -2 11 -15 18 -35 19 -18 2 -30 -1 -27 -6 3 -5 0
-9 -5 -9 -6 0 -11 6 -11 14 0 10 -11 14 -35 13 -19 0 -42 6 -52 15 -10 8 -40
19 -68 22 -27 4 -75 15 -105 25 -30 10 -82 27 -115 36 -33 10 -67 20 -75 23
-8 3 -19 6 -25 8 -5 1 -23 8 -40 14 -16 7 -37 14 -45 15 -49 9 -200 56 -466
146 -34 11 -68 21 -75 23 -8 1 -23 7 -34 12 -21 11 -67 24 -150 44 -27 6 -51
15 -53 21 -2 5 -13 9 -25 9 -12 0 -33 9 -47 20 -14 11 -35 20 -47 20 -13 0
-23 5 -23 11 0 7 -12 10 -28 7 -16 -2 -34 2 -40 9 -7 7 -19 10 -27 7 -8 -4
-15 -2 -15 3 0 5 -16 17 -35 26 -25 12 -35 13 -35 4 0 -8 -3 -8 -9 2 -5 8 -14
10 -21 6 -8 -5 -11 -4 -7 2 6 9 -5 18 -33 28 -3 1 -22 9 -42 18 -21 10 -47 17
-58 17 -12 0 -31 9 -43 21 -12 11 -30 18 -39 15 -10 -2 -18 0 -18 6 0 5 -4 7
-9 3 -11 -6 -61 14 -61 25 0 4 -18 10 -40 13 -21 3 -52 14 -68 26 -16 11 -32
17 -36 13 -4 -4 -12 1 -17 11 -6 9 -18 17 -28 17 -9 0 -26 6 -36 14 -11 8 -26
11 -33 8 -8 -3 -19 2 -24 11 -5 10 -14 17 -19 17 -6 0 -7 -6 -3 -12 4 -7 -1
-6 -12 3 -26 22 -166 86 -205 94 -10 2 -25 11 -35 19 -11 9 -23 17 -29 17 -5
1 -22 10 -37 20 -14 11 -40 21 -56 23 -16 2 -44 13 -61 25 -17 12 -31 19 -31
16 0 -3 -13 3 -29 14 -15 11 -31 18 -35 14 -3 -3 -6 -2 -6 4 0 11 -50 36 -58
29 -7 -7 -82 33 -82 44 0 5 -18 14 -41 20 -22 6 -54 20 -71 30 -18 10 -35 17
-40 14 -4 -3 -8 0 -8 5 0 6 -9 11 -21 11 -11 0 -18 4 -15 9 4 5 -8 13 -26 16
-35 8 -59 20 -97 48 -13 9 -34 17 -47 17 -13 0 -24 4 -24 10 0 5 -11 12 -25
16 -14 3 -23 10 -20 14 3 4 -2 11 -11 14 -8 3 -12 2 -9 -4 13 -21 -15 -9 -43
19 -33 33 -101 66 -145 70 -5 1 -5 6 -1 12 4 7 1 10 -7 7 -7 -2 -25 6 -39 19
-14 13 -33 24 -42 24 -30 2 -32 3 -63 25 -27 19 -62 35 -75 35 -3 0 -14 8 -25
18 -21 19 -55 35 -67 33 -5 -1 -8 3 -8 10 0 6 -3 9 -6 5 -3 -3 -22 4 -42 15
-62 35 -145 81 -181 100 -19 10 -37 21 -40 26 -11 14 -62 32 -73 26 -6 -4 -8
-2 -5 3 4 6 -17 20 -51 34 -31 12 -59 26 -62 30 -3 3 -24 15 -48 26 -23 11
-39 23 -35 28 5 4 0 5 -9 2 -10 -4 -18 -2 -18 3 0 4 -13 11 -30 15 -16 4 -30
10 -30 14 0 4 -16 13 -35 21 -19 8 -35 17 -35 22 0 4 -3 8 -7 7 -16 -2 -53 14
-53 22 0 5 -9 9 -20 9 -11 0 -23 7 -26 15 -3 8 -21 17 -40 21 -19 3 -34 10
-34 14 0 4 -12 13 -27 19 -16 6 -41 20 -58 30 -16 11 -36 20 -43 20 -7 1 -18
6 -25 11 -21 17 -128 70 -143 70 -8 0 -14 4 -14 8 0 9 -65 43 -88 48 -8 1 -22
10 -31 18 -10 9 -21 16 -25 16 -4 0 -35 13 -69 29 -34 16 -73 32 -87 36 -14 4
-30 12 -37 17 -22 17 -87 48 -103 48 -12 0 -12 2 -2 9 9 6 3 10 -20 14 -43 7
-140 51 -132 60 4 4 -7 7 -24 7 -36 0 -104 29 -96 42 3 4 -1 9 -8 9 -35 4 -57
9 -103 26 -27 10 -52 21 -55 25 -3 3 -14 8 -25 10 -11 1 -25 8 -32 14 -7 7
-45 21 -85 33 -40 12 -82 26 -93 31 -11 5 -31 12 -45 15 -14 4 -38 13 -55 20
-16 8 -56 19 -88 25 -31 6 -55 15 -53 19 3 4 -7 7 -22 7 -37 1 -84 14 -102 29
-8 7 -35 15 -60 18 -25 4 -67 11 -95 17 -27 6 -66 13 -85 16 -19 3 -40 10 -45
14 -6 5 -37 11 -70 15 -33 3 -72 11 -86 16 -14 6 -30 9 -35 8 -5 -2 -22 0 -39
4 -16 3 -66 9 -110 12 -44 3 -123 10 -175 15 -52 5 -194 7 -315 4 -121 -2
-253 -5 -292 -5 -40 -1 -73 -4 -73 -8 0 -3 -12 -7 -27 -7 -16 -1 -59 -7 -98
-13 -38 -6 -83 -13 -100 -15 -38 -6 -204 -46 -230 -57 -11 -4 -38 -13 -60 -20
-22 -6 -45 -15 -50 -20 -6 -4 -30 -11 -53 -15 -25 -4 -39 -11 -35 -17 3 -5 1
-7 -5 -3 -12 7 -62 -13 -62 -26 0 -4 -5 -8 -12 -8 -15 0 -156 -67 -174 -83
-32 -29 -44 -37 -44 -32 0 3 -6 1 -12 -4 -88 -71 -127 -99 -132 -94 -3 4 -6
-1 -6 -10 0 -10 -3 -17 -8 -17 -11 0 -93 -77 -119 -112 -13 -18 -23 -29 -23
-25 0 18 -135 -158 -160 -208 -8 -16 -27 -46 -42 -66 -15 -20 -28 -42 -28 -48
0 -6 -4 -19 -9 -29 -22 -40 -83 -167 -82 -170 1 -1 -6 -18 -14 -38 -8 -20 -15
-40 -15 -45 0 -5 -4 -17 -10 -27 -5 -9 -26 -73 -45 -142 -20 -69 -38 -132 -40
-140 -12 -40 -47 -188 -50 -210 -2 -14 -4 -25 -5 -25 -2 0 -24 -99 -53 -235
-16 -75 -53 -207 -67 -245 -4 -11 -16 -42 -26 -70 -9 -27 -20 -52 -23 -55 -3
-3 -14 -21 -25 -41 -36 -73 -154 -159 -216 -159 l-29 0 -3 181 c-2 100 0 183
5 186 4 2 4 9 1 15 -11 18 -6 510 6 522 5 5 10 16 10 23 0 22 62 83 84 83 17
0 18 2 6 10 -12 8 -11 10 6 10 11 0 29 9 39 20 10 11 21 20 25 20 4 0 33 24
63 54 31 29 63 56 71 59 9 4 16 12 16 20 0 7 13 24 30 37 16 14 29 31 30 38 0
6 4 12 9 12 5 0 17 17 26 38 10 20 26 43 36 49 19 14 104 182 95 190 -3 3 0
15 6 27 6 11 11 38 9 58 -2 27 3 42 18 54 11 10 18 21 15 25 -2 4 1 29 6 56
35 152 34 520 -1 585 -6 11 -13 32 -15 46 -6 32 -65 175 -75 182 -4 3 -10 17
-14 32 -4 15 -13 32 -21 39 -8 6 -14 16 -14 21 0 10 -48 75 -107 147 -86 103
-219 213 -323 266 -19 10 -37 21 -40 24 -3 4 -41 21 -85 38 -44 16 -89 34
-100 38 -11 4 -24 10 -30 12 -37 13 -219 41 -272 42 -36 0 -68 3 -72 6 -5 2
-11 2 -14 -1z m-62 -144 c-3 -5 -10 -10 -16 -10 -5 0 -9 5 -9 10 0 6 7 10 16
10 8 0 12 -4 9 -10z m145 6 c0 -11 -19 -15 -25 -6 -3 5 1 10 9 10 9 0 16 -2
16 -4z m-550 -26 c0 -5 -5 -10 -11 -10 -5 0 -7 5 -4 10 3 6 8 10 11 10 2 0 4
-4 4 -10z m650 -21 c30 -2 61 -7 68 -12 7 -6 30 -10 52 -10 22 0 40 -4 40 -9
0 -6 11 -7 26 -4 20 5 25 4 21 -7 -3 -8 12 -21 45 -36 27 -12 52 -20 55 -18 2
3 18 -9 34 -25 16 -17 29 -25 29 -18 0 7 11 1 25 -14 13 -14 29 -26 35 -26 18
0 141 -117 185 -175 16 -22 36 -47 45 -56 8 -9 25 -34 37 -55 14 -27 27 -38
40 -36 13 2 15 1 5 -6 -11 -7 -10 -17 6 -53 21 -46 49 -128 58 -170 20 -98 24
-134 24 -228 0 -201 -51 -360 -175 -545 -55 -81 -164 -197 -220 -232 -16 -10
-39 -27 -50 -37 -31 -26 -152 -87 -174 -87 -11 0 -21 -4 -23 -10 -1 -5 -12
-11 -23 -13 -11 -2 -33 -9 -49 -16 -39 -16 -69 -20 -215 -30 -68 -5 -149 -5
-180 -1 -99 15 -215 40 -246 55 -16 8 -58 26 -92 42 -35 15 -63 31 -63 35 0 5
-5 8 -10 8 -31 0 -203 152 -268 236 -39 51 -93 138 -98 162 -4 12 -11 22 -17
22 -6 0 -8 3 -4 6 3 3 -3 21 -13 40 -51 91 -80 319 -60 474 15 119 72 298 99
315 5 3 12 19 16 35 4 17 10 30 14 30 4 0 14 15 23 33 9 17 55 74 104 126 49
52 88 97 87 101 -1 5 10 11 25 15 14 3 56 25 92 49 85 54 165 93 218 106 23 6
40 15 37 20 -3 5 7 9 22 8 34 -2 56 4 65 17 5 6 8 5 8 -3 0 -9 7 -11 22 -6 31
9 252 20 258 12 3 -4 30 -8 60 -9z m-3 15 c-3 -3 -12 -4 -19 -1 -8 3 -5 6 6 6
11 1 17 -2 13 -5z m104 -11 c13 -16 12 -17 -3 -4 -17 13 -22 21 -14 21 2 0 10
-8 17 -17z m449 -223 c0 -5 -2 -10 -4 -10 -3 0 -8 5 -11 10 -3 6 -1 10 4 10 6
0 11 -4 11 -10z m305 -360 c3 -5 1 -10 -4 -10 -6 0 -11 5 -11 10 0 6 2 10 4
10 3 0 8 -4 11 -10z m2242 -221 c23 0 44 -2 47 -7 2 -4 39 -7 80 -7 42 0 76
-3 76 -7 0 -4 7 -5 15 -2 8 4 15 1 15 -5 0 -7 21 -11 54 -11 29 0 69 -7 88
-14 19 -8 44 -13 55 -10 12 3 24 1 27 -5 4 -6 22 -11 41 -11 19 0 37 -4 40
-10 3 -5 22 -10 41 -10 19 0 34 -4 34 -9 0 -8 56 -21 119 -27 19 -2 37 -8 41
-14 4 -6 27 -12 52 -13 25 -1 44 -5 41 -9 -2 -5 -1 -8 4 -9 36 -3 171 -48 196
-65 10 -6 27 -9 39 -6 11 3 24 -1 28 -9 5 -7 19 -14 32 -14 13 -1 33 -7 46
-14 12 -6 22 -8 22 -4 0 4 5 0 11 -9 5 -10 21 -18 34 -18 14 0 25 -5 25 -11 0
-6 9 -9 20 -6 10 3 24 -1 31 -9 6 -8 20 -14 30 -14 17 0 36 -6 104 -36 64 -27
91 -36 125 -40 19 -3 37 -9 38 -14 2 -6 8 -10 13 -10 6 0 7 6 4 13 -3 6 2 2
11 -10 9 -13 25 -23 35 -23 10 0 20 -4 23 -8 3 -4 28 -14 55 -22 28 -7 51 -17
51 -22 0 -4 6 -8 13 -8 7 0 18 -9 24 -19 10 -17 10 -21 -5 -25 -9 -3 -37 -26
-61 -51 -24 -25 -47 -45 -52 -45 -5 0 -9 -4 -9 -10 0 -5 -16 -24 -36 -42 -63
-58 -104 -99 -104 -103 0 -5 -44 -48 -82 -80 -21 -17 -42 -19 -258 -23 -605
-9 -653 -8 -692 11 -65 29 -128 56 -153 63 -5 1 -35 12 -65 24 -30 12 -70 27
-87 33 -18 6 -33 13 -33 17 0 4 -26 15 -57 25 -32 9 -72 24 -90 32 -32 16 -58
10 -50 -11 4 -10 -10 -123 -27 -226 -2 -14 -11 -72 -20 -130 -9 -58 -20 -130
-26 -161 -5 -30 -10 -69 -10 -86 0 -37 -19 -93 -31 -93 -5 0 -9 -7 -9 -15 0
-8 -4 -16 -10 -16 -5 -1 -13 -2 -17 -3 -17 -4 -58 -30 -113 -72 -32 -24 -61
-44 -65 -44 -4 0 -21 -11 -37 -25 -17 -14 -49 -35 -71 -46 -22 -12 -49 -29
-60 -40 -13 -12 -36 -19 -61 -20 -262 -4 -420 -12 -433 -22 -9 -7 -49 -43 -90
-82 -42 -38 -86 -80 -100 -92 -13 -13 -25 -23 -27 -23 -2 0 -35 -30 -74 -67
-155 -148 -298 -283 -322 -303 -14 -12 -47 -40 -74 -63 -86 -73 -268 -238
-411 -371 l-59 -56 -71 -1 c-38 0 -131 -1 -205 -3 l-135 -2 -3 -117 -3 -117
110 2 c101 1 111 0 139 -23 17 -13 31 -29 31 -35 1 -7 11 -19 24 -27 12 -8 65
-56 117 -106 52 -50 95 -91 96 -91 1 0 33 -31 71 -69 l68 -68 -1 -99 c-1 -55
-2 -108 -3 -119 -1 -19 -8 -20 -227 -20 l-226 0 -86 81 c-48 44 -118 109 -157
144 -38 36 -77 73 -85 85 -12 17 -15 76 -16 360 l-1 340 30 27 c16 16 31 28
33 28 3 0 22 17 42 38 21 20 82 78 137 127 54 50 111 102 126 118 15 15 29 27
32 27 3 0 23 17 44 38 133 127 305 286 336 310 20 15 36 33 37 41 0 8 2 12 5
9 6 -6 67 47 159 136 34 32 84 77 111 99 28 23 73 64 102 91 29 26 61 55 73
63 21 15 21 20 20 406 -1 216 -1 435 -1 488 l1 96 48 50 c26 28 61 66 78 84
17 19 41 41 53 49 13 8 33 24 45 35 78 68 99 85 119 91 12 4 38 19 57 34 41
32 181 96 225 103 39 7 66 18 61 26 -2 3 17 7 42 9 25 1 49 7 53 13 4 7 20 13
35 16 97 15 196 23 324 29 80 3 147 8 149 10 3 2 14 1 25 -2 12 -4 40 -6 63
-5z m-6150 -57 c7 2 119 -9 183 -17 44 -6 274 -76 289 -88 8 -7 15 -10 15 -8
2 7 95 -37 125 -58 15 -11 39 -23 54 -26 15 -4 27 -11 27 -15 0 -5 8 -11 18
-14 10 -4 28 -15 40 -26 11 -11 26 -21 33 -22 13 -3 40 -28 147 -130 33 -32
66 -58 73 -58 7 0 9 -3 6 -7 -4 -3 1 -15 10 -26 17 -18 18 -58 21 -503 l3
-485 46 -42 c25 -23 64 -60 87 -82 23 -22 73 -67 111 -99 67 -56 183 -160 264
-236 20 -19 70 -64 111 -100 41 -36 93 -83 116 -105 41 -38 104 -95 224 -201
30 -27 78 -71 107 -99 28 -27 70 -66 93 -85 22 -19 59 -52 80 -72 l40 -36 0
-351 c0 -193 -4 -351 -8 -351 -4 0 -37 -28 -74 -62 -114 -109 -229 -213 -239
-216 -5 -2 -9 -10 -9 -17 0 -20 -475 -22 -482 -3 -3 7 -4 64 -2 126 l3 113 48
42 c45 40 140 129 241 225 24 23 47 42 51 42 4 0 14 11 21 25 7 14 18 25 23
25 5 0 20 11 33 25 13 14 33 25 46 26 13 0 59 1 103 2 l80 2 1 113 2 112 -32
1 c-17 0 -109 0 -204 -1 l-173 -1 -57 48 c-31 26 -82 73 -113 103 -31 30 -104
95 -160 145 -57 49 -129 113 -159 141 -30 29 -71 65 -90 80 -19 16 -51 45 -71
64 -19 19 -53 50 -75 69 -84 72 -192 169 -264 236 -42 39 -102 94 -135 122
l-60 52 -210 0 -210 -1 -45 26 c-25 15 -70 45 -100 67 -30 21 -70 46 -87 55
-18 9 -33 20 -33 25 0 5 -6 9 -14 9 -8 0 -27 10 -43 23 -15 12 -39 28 -53 35
-54 28 -57 34 -74 152 -9 63 -23 156 -31 205 -7 50 -18 126 -25 170 -32 234
-30 229 -87 201 -15 -8 -55 -24 -88 -37 -33 -12 -87 -35 -120 -50 -33 -15
-107 -47 -165 -72 l-105 -46 -325 -6 c-179 -4 -383 -7 -455 -7 l-130 1 -160
155 c-88 86 -161 156 -162 156 -6 0 -53 52 -53 59 0 5 44 28 98 51 53 23 115
51 138 61 22 10 45 19 51 19 7 0 40 13 75 29 35 15 87 37 116 47 28 10 52 22
52 26 0 5 6 8 13 7 20 -4 67 13 62 21 -3 5 3 6 13 3 11 -2 26 3 35 11 8 9 22
16 30 16 9 0 66 18 129 41 371 133 612 193 983 244 17 3 97 7 180 10 82 3 151
7 153 9 2 2 18 0 37 -5 18 -5 37 -9 42 -7z m-2180 -274 c-3 -8 -6 -5 -6 6 -1
11 2 17 5 13 3 -3 4 -12 1 -19z m10521 -300 c7 -7 12 -8 12 -3 0 5 7 -1 16
-13 10 -14 197 -113 487 -259 260 -129 474 -239 475 -244 2 -5 10 -9 19 -9 8
0 121 -55 251 -121 130 -67 449 -228 707 -357 259 -129 473 -240 477 -246 4
-6 8 -7 8 -2 0 4 15 -3 34 -17 18 -15 36 -23 39 -20 4 3 18 -2 33 -12 26 -17
26 -17 6 -31 -11 -8 -33 -16 -49 -17 -15 -2 -35 -6 -43 -9 -8 -4 -40 -14 -70
-24 -30 -10 -63 -25 -74 -34 -10 -8 -21 -14 -25 -13 -15 6 -71 -19 -64 -30 4
-7 0 -8 -11 -4 -18 7 -71 -13 -118 -45 -14 -10 -38 -19 -52 -20 -14 -1 -26 -5
-26 -8 0 -3 -10 -6 -22 -7 -11 -1 -24 -6 -27 -11 -3 -5 -37 -19 -75 -31 -38
-12 -87 -30 -110 -41 -76 -34 -113 -42 -136 -30 -12 6 -24 9 -27 6 -3 -2 -12
1 -19 7 -31 25 -40 32 -62 45 -12 6 -30 12 -41 12 -10 0 -24 7 -31 15 -7 8
-18 15 -25 15 -8 0 -15 3 -17 8 -5 11 -194 102 -212 102 -8 0 -19 7 -24 16 -5
9 -22 18 -38 20 -15 1 -34 10 -40 19 -7 9 -16 16 -21 16 -4 0 -44 20 -88 44
-90 48 -189 95 -203 95 -5 0 -15 7 -22 14 -6 8 -28 20 -48 27 -20 7 -39 15
-42 18 -3 4 -48 28 -100 54 -52 26 -120 61 -150 77 -30 17 -63 30 -73 30 -10
0 -20 7 -23 15 -4 8 -15 15 -25 15 -10 0 -19 5 -19 10 0 6 -9 10 -19 10 -11 0
-26 7 -35 15 -8 8 -18 15 -22 15 -4 0 -15 6 -23 14 -9 8 -25 16 -36 18 -11 1
-29 11 -40 21 -10 9 -36 23 -57 29 -21 6 -38 14 -38 18 0 7 -28 18 -41 16 -4
-1 -15 6 -25 14 -11 9 -30 21 -44 27 -51 22 -75 33 -90 41 -44 25 -82 45 -150
78 -80 38 -94 45 -145 74 -18 10 -36 16 -39 13 -3 -4 -6 -2 -6 3 0 9 -20 19
-107 54 -30 12 -29 38 0 49 13 5 29 16 36 25 7 9 18 16 24 16 11 0 27 13 80
66 18 17 42 35 55 38 12 4 22 14 22 22 0 9 8 12 23 10 12 -3 25 -5 29 -5 4 -1
13 -8 22 -16 8 -8 26 -16 40 -17 14 -1 23 -4 21 -6 -4 -5 67 -41 123 -62 17
-7 32 -17 32 -23 0 -6 3 -8 6 -4 4 3 21 -1 38 -10 17 -9 39 -17 48 -18 10 -1
27 -10 37 -20 11 -9 27 -15 36 -12 9 4 15 1 15 -8 0 -8 8 -16 18 -17 9 0 23
-2 30 -2 8 -1 18 -9 23 -19 6 -9 14 -15 19 -12 4 3 10 -2 14 -10 3 -9 18 -15
35 -15 16 0 31 -6 35 -15 3 -8 12 -15 21 -15 8 0 15 -5 15 -11 0 -5 5 -7 10
-4 6 4 22 -1 35 -9 14 -9 25 -13 25 -9 0 4 6 -1 13 -11 7 -9 17 -17 22 -16 17
3 55 -12 55 -21 0 -5 7 -9 15 -9 8 0 15 -5 15 -11 0 -5 5 -7 10 -4 6 4 17 1
25 -5 8 -7 22 -10 30 -6 9 3 13 2 10 -4 -3 -6 0 -10 8 -10 7 0 22 -8 33 -18
20 -19 48 -33 78 -39 10 -2 30 -11 45 -21 35 -25 67 -38 97 -41 8 0 12 -5 9
-11 -3 -5 0 -10 7 -10 7 -1 31 -9 53 -20 22 -11 46 -19 53 -20 7 0 31 -13 54
-30 22 -16 46 -30 52 -30 6 0 28 -9 49 -20 20 -11 44 -20 52 -20 8 0 15 -3 15
-8 0 -8 81 -47 93 -44 4 1 6 -3 5 -10 -2 -7 2 -12 9 -13 6 0 15 -3 19 -7 4 -5
13 -8 21 -8 19 0 93 -33 93 -42 0 -5 9 -8 20 -8 11 0 20 -4 20 -10 0 -5 8 -10
19 -10 10 0 24 -7 31 -15 18 -21 40 -19 40 5 0 13 -9 22 -25 26 -14 3 -25 10
-25 14 0 4 -20 16 -45 27 -25 10 -45 21 -45 25 0 4 -6 5 -14 2 -8 -3 -23 4
-33 16 -10 12 -27 26 -38 31 -11 5 -37 19 -57 32 -21 12 -61 35 -89 50 -29 16
-59 35 -67 43 -7 8 -18 12 -23 9 -5 -4 -9 -1 -9 6 0 7 -3 9 -6 6 -4 -4 -15 3
-25 14 -9 11 -21 20 -26 20 -4 0 -37 19 -72 42 -35 23 -67 41 -71 40 -5 -1
-14 4 -20 12 -7 8 -21 15 -31 15 -11 0 -19 5 -19 10 0 6 -7 10 -15 10 -8 0
-15 5 -15 10 0 6 -7 10 -15 10 -8 0 -15 5 -15 10 0 6 -6 10 -14 10 -12 0 -103
54 -131 78 -16 13 -77 42 -90 42 -7 0 -20 9 -30 20 -10 11 -26 20 -36 20 -10
0 -20 4 -24 9 -3 5 -31 22 -63 38 -31 15 -66 36 -77 46 -11 10 -38 28 -60 39
-22 11 -43 25 -46 30 -3 5 -9 10 -12 9 -17 -1 -66 26 -60 33 4 4 -3 9 -15 13
-12 3 -22 9 -22 13 0 5 -13 11 -30 15 -16 3 -41 16 -56 28 -15 12 -46 31 -68
42 -45 22 -49 41 -15 83 10 14 19 31 19 39 0 8 9 26 20 40 11 14 20 32 20 39
0 11 10 16 41 23 3 0 10 -4 17 -11z m-10797 -145 c18 -38 41 -80 51 -95 10
-14 18 -31 18 -38 0 -12 -24 -40 -35 -40 -4 0 -25 -13 -48 -28 -23 -16 -62
-40 -87 -53 -25 -13 -47 -26 -50 -29 -3 -3 -27 -19 -54 -35 -27 -17 -60 -38
-75 -47 -14 -10 -46 -29 -71 -43 -25 -14 -94 -57 -155 -96 -60 -38 -121 -75
-135 -82 -14 -6 -27 -14 -30 -17 -7 -8 -130 -80 -136 -80 -7 0 -68 -43 -75
-53 -3 -5 -10 -9 -15 -9 -10 0 -53 -26 -161 -96 -37 -24 -85 -53 -106 -65 -45
-25 -64 -37 -124 -75 -23 -15 -100 -63 -172 -106 -72 -44 -131 -83 -131 -88 0
-15 30 -8 68 15 20 12 100 54 177 92 77 38 142 73 143 77 2 4 8 8 13 8 9 0
137 61 169 80 8 5 42 22 75 37 33 15 62 30 65 33 3 3 21 12 40 21 78 36 90 43
90 51 0 4 9 8 20 8 22 0 27 15 8 24 -7 3 -3 3 10 0 12 -3 34 1 50 9 15 7 74
37 132 66 58 28 112 56 120 61 8 5 75 38 148 75 73 36 130 70 127 75 -3 5 1 7
9 4 15 -6 148 61 154 77 2 5 7 7 12 4 9 -5 91 33 150 70 69 44 70 43 194 -49
63 -47 119 -86 124 -86 10 0 22 -23 22 -40 0 -5 -13 -11 -30 -15 -16 -4 -32
-10 -35 -15 -3 -5 -67 -40 -143 -78 -76 -39 -163 -84 -193 -101 -29 -18 -95
-52 -146 -77 -51 -26 -98 -52 -104 -60 -6 -8 -20 -14 -30 -14 -10 0 -20 -4
-24 -9 -3 -5 -40 -27 -83 -47 -42 -21 -84 -44 -92 -50 -8 -7 -80 -46 -160 -87
-80 -42 -174 -92 -210 -111 -36 -20 -94 -50 -130 -68 -36 -18 -67 -35 -70 -38
-3 -3 -32 -19 -65 -36 -144 -74 -281 -147 -290 -154 -5 -5 -41 -25 -80 -45
-38 -21 -101 -54 -140 -75 -242 -132 -223 -124 -269 -109 -22 8 -44 13 -48 11
-5 -1 -8 2 -8 8 0 5 -6 10 -13 10 -7 0 -60 18 -118 41 -57 23 -138 54 -179 70
-41 15 -118 44 -170 64 -52 20 -115 43 -140 51 -25 9 -63 24 -86 35 -22 10
-48 19 -57 19 -9 0 -21 10 -28 21 -7 13 -7 19 -1 15 12 -7 132 52 132 66 0 4
8 8 18 8 10 0 23 5 30 12 7 7 12 9 12 4 0 -4 13 2 29 13 16 12 34 21 40 21 6
0 11 5 11 10 0 6 3 9 8 8 11 -3 82 35 82 44 0 4 9 8 20 8 11 0 20 5 20 10 0 6
8 10 19 10 20 0 45 23 35 33 -3 3 3 3 14 0 11 -3 37 6 61 21 22 14 44 26 48
26 3 0 14 6 22 14 9 8 23 16 31 18 8 2 17 6 20 9 3 3 25 15 50 27 106 53 274
143 288 154 8 7 21 13 30 14 8 2 18 6 21 11 3 4 44 28 91 52 47 23 103 53 125
66 94 53 174 96 225 121 30 14 62 32 70 39 8 7 26 16 40 20 28 8 61 34 56 44
-2 3 9 6 25 7 16 1 47 13 69 28 22 14 47 26 55 26 9 0 13 5 10 10 -3 6 0 10 7
10 19 0 122 53 131 67 4 7 16 13 25 13 9 0 42 14 72 30 30 17 91 49 135 71 44
22 87 46 95 52 19 15 53 34 115 65 28 14 57 31 65 38 8 7 17 12 20 12 10 -2
89 42 95 52 3 5 7 10 9 10 2 0 18 -30 37 -67z m-706 -53 c3 -6 -1 -7 -9 -4
-18 7 -21 14 -7 14 6 0 13 -4 16 -10z m1150 -180 c3 -5 1 -10 -4 -10 -6 0 -11
5 -11 10 0 6 2 10 4 10 3 0 8 -4 11 -10z m8507 -110 c35 -22 69 -40 76 -40 6
0 12 -4 12 -10 0 -5 9 -10 19 -10 10 0 22 -7 25 -16 4 -9 13 -14 22 -10 8 3
13 2 10 -3 -3 -5 6 -14 22 -20 15 -6 41 -19 57 -28 17 -10 55 -33 86 -51 31
-18 62 -39 69 -46 6 -8 17 -13 24 -10 6 2 29 -11 50 -31 35 -32 48 -39 67 -37
4 1 15 -8 24 -18 10 -11 28 -20 39 -20 12 0 34 -14 50 -31 16 -16 41 -33 57
-36 16 -3 34 -12 40 -19 6 -8 18 -14 25 -14 8 0 14 -4 14 -9 0 -5 30 -24 68
-43 37 -20 84 -47 105 -61 21 -14 47 -29 58 -32 10 -4 19 -11 19 -16 0 -5 9
-9 20 -9 11 0 20 -3 20 -7 0 -5 23 -19 52 -33 28 -14 56 -33 62 -42 6 -10 16
-18 23 -18 7 0 29 -11 49 -25 20 -14 40 -22 45 -19 8 5 18 -1 54 -33 7 -7 17
-13 21 -13 10 0 83 -50 106 -72 10 -10 24 -15 31 -12 7 2 22 -4 32 -16 10 -11
24 -20 30 -20 7 0 24 -9 39 -21 14 -11 26 -17 26 -12 0 4 4 3 8 -3 10 -16 82
-60 112 -69 14 -4 34 -15 45 -25 11 -9 35 -26 54 -36 19 -10 45 -29 59 -41 14
-13 31 -23 38 -23 7 0 53 -24 101 -54 58 -36 91 -51 98 -44 7 6 -3 21 -29 44
-22 19 -41 32 -44 29 -3 -2 -19 8 -37 23 -55 46 -69 57 -110 82 -22 13 -41 28
-43 32 -2 4 -10 8 -18 8 -8 0 -14 4 -14 9 0 5 -24 23 -52 40 -29 16 -68 44
-85 62 -18 17 -33 28 -33 25 0 -4 -6 -2 -12 4 -46 39 -66 54 -90 68 -16 9 -28
20 -28 24 0 4 -7 8 -15 8 -7 0 -19 8 -24 18 -6 9 -11 13 -11 9 0 -5 -22 10
-49 32 -27 23 -54 41 -60 41 -6 0 -11 3 -11 8 0 4 -16 16 -35 26 -19 11 -35
22 -35 26 0 4 -13 13 -30 20 -16 7 -30 15 -30 19 0 4 -15 15 -32 26 -18 10
-38 24 -44 29 -25 23 -55 46 -60 46 -6 0 -123 80 -142 98 -7 6 -18 12 -23 12
-5 0 -23 14 -41 30 -17 17 -34 30 -38 30 -4 0 -17 9 -30 20 -13 11 -28 20 -34
20 -6 0 -18 8 -27 18 -8 9 -26 25 -40 34 -78 57 -98 69 -131 88 -35 19 -49 39
-30 41 64 7 342 7 342 0 0 -5 12 -12 26 -15 14 -4 31 -11 37 -17 15 -12 78
-46 187 -101 47 -23 91 -48 98 -55 8 -7 39 -25 69 -39 31 -14 75 -38 98 -54
23 -16 45 -26 48 -23 4 3 9 -2 13 -11 3 -9 14 -16 24 -16 11 0 21 -4 25 -9 3
-5 18 -12 34 -16 16 -3 40 -15 53 -26 12 -11 35 -23 50 -26 16 -3 28 -9 28
-13 0 -7 121 -70 134 -70 4 0 16 -8 27 -18 10 -11 29 -23 42 -29 12 -6 42 -20
65 -32 24 -11 48 -21 53 -21 5 0 31 -16 58 -35 26 -19 56 -35 65 -35 9 0 19
-7 23 -16 3 -8 12 -13 19 -10 8 3 14 2 14 -2 0 -4 39 -28 87 -52 48 -25 95
-51 105 -59 9 -8 27 -16 40 -18 12 -2 31 -11 43 -21 11 -10 34 -24 50 -32 17
-8 41 -22 55 -31 14 -9 33 -15 43 -14 10 2 14 -1 10 -8 -4 -7 0 -8 11 -4 9 4
15 3 11 -2 -3 -5 10 -14 29 -21 19 -6 44 -20 56 -30 13 -11 28 -17 34 -13 6 3
8 3 4 -2 -9 -10 36 -39 75 -49 16 -4 38 -15 49 -26 12 -11 25 -17 30 -14 4 3
8 1 8 -5 0 -5 21 -19 48 -31 92 -43 111 -54 115 -71 3 -13 -3 -18 -27 -22 -72
-12 -117 -25 -139 -40 -13 -8 -43 -20 -65 -27 -23 -6 -42 -15 -42 -20 0 -6
-10 -10 -22 -10 -25 0 -89 -22 -166 -56 -29 -13 -58 -24 -65 -24 -7 0 -37 -11
-65 -25 -29 -14 -57 -25 -62 -25 -6 0 -30 -9 -53 -19 -83 -37 -120 -51 -138
-51 -11 0 -19 -5 -19 -11 0 -6 -6 -9 -12 -6 -7 2 -20 -2 -29 -10 -10 -8 -39
-20 -65 -27 -27 -8 -72 -23 -100 -34 -51 -21 -52 -21 -70 -1 -9 10 -25 19 -36
19 -10 0 -18 4 -18 9 0 13 -178 139 -225 160 -11 5 -29 18 -39 30 -11 11 -26
21 -34 21 -8 0 -23 11 -34 25 -11 14 -26 25 -34 25 -8 0 -14 4 -14 9 0 5 -8
12 -17 15 -10 3 -36 21 -58 40 -22 19 -43 32 -48 29 -4 -2 -17 7 -28 21 -11
14 -25 26 -31 26 -10 0 -113 74 -128 91 -3 3 -12 8 -20 12 -17 8 -35 19 -102
65 -26 17 -52 32 -58 32 -5 0 -10 4 -10 9 0 5 -22 23 -49 41 -28 17 -51 35
-53 39 -2 3 -23 19 -48 33 -25 14 -56 36 -69 47 -13 12 -29 21 -36 21 -6 0
-22 11 -35 25 -13 14 -28 25 -33 25 -5 0 -22 10 -37 23 -44 34 -79 58 -83 55
-1 -2 -18 12 -37 29 -19 18 -39 33 -44 33 -4 0 -40 23 -79 52 -39 28 -77 51
-84 51 -7 0 -10 4 -7 9 3 4 -2 8 -10 8 -8 0 -19 6 -23 13 -4 6 -28 26 -53 42
-25 17 -46 33 -48 38 -2 4 -8 7 -13 7 -6 0 -35 19 -66 43 -31 23 -71 51 -90
62 -19 12 -51 34 -71 50 -20 17 -40 29 -44 27 -5 -1 -8 3 -8 8 0 6 -6 10 -13
10 -7 0 -21 6 -29 13 -16 11 -15 21 2 127 11 63 20 130 20 148 0 17 4 32 10
32 5 0 38 -18 72 -40z m-10152 20 c-8 -5 -19 -10 -25 -10 -5 0 -3 5 5 10 8 5
20 10 25 10 6 0 3 -5 -5 -10z m3016 -67 c1 -39 11 -111 23 -158 6 -22 11 -58
11 -81 0 -32 -5 -43 -22 -52 -13 -7 -57 -36 -98 -66 -41 -30 -93 -67 -115 -82
-22 -15 -76 -54 -120 -86 -295 -216 -341 -248 -350 -248 -4 0 -22 -12 -40 -27
-17 -16 -42 -35 -55 -43 -12 -8 -50 -35 -84 -60 -33 -25 -72 -53 -86 -62 -14
-10 -74 -53 -135 -97 -60 -44 -123 -89 -140 -101 -16 -12 -71 -52 -121 -88
-50 -37 -101 -74 -114 -82 -27 -19 -150 -107 -171 -123 -8 -7 -23 -16 -31 -22
-9 -5 -36 -24 -59 -41 -24 -16 -69 -47 -99 -69 -62 -43 -128 -93 -148 -112 -7
-7 -17 -13 -22 -13 -5 0 -15 -6 -22 -13 -7 -7 -26 -20 -41 -30 -35 -23 -48
-19 -357 98 -41 16 -107 40 -375 135 -110 39 -209 75 -220 80 -11 5 -59 22
-107 38 -52 18 -84 33 -80 39 4 6 32 24 62 41 30 16 71 39 90 50 19 12 50 28
68 36 17 8 32 20 32 25 0 6 8 11 18 11 10 0 34 12 53 26 19 14 58 37 87 50 28
14 52 30 52 36 0 6 3 9 6 5 3 -3 23 4 43 16 20 13 59 34 86 47 28 13 61 32 75
41 14 9 61 35 105 59 44 23 87 48 95 55 15 12 77 47 155 89 22 11 43 26 47 31
4 6 8 6 8 2 0 -5 12 0 28 11 15 11 44 27 65 37 22 10 41 24 44 32 3 7 10 13
17 13 12 0 128 59 136 70 3 3 27 17 53 29 26 13 53 28 60 35 7 6 32 21 57 33
25 13 72 38 105 57 33 19 92 51 130 71 39 21 72 42 73 46 2 5 8 9 14 9 5 0 42
20 81 44 160 96 199 114 272 120 114 11 277 16 287 10 9 -6 -24 -44 -37 -44
-4 0 -13 -6 -20 -14 -8 -8 -44 -36 -80 -62 -36 -26 -65 -51 -65 -56 0 -4 -6
-8 -14 -8 -7 0 -20 -7 -27 -16 -7 -9 -38 -34 -69 -55 -58 -41 -256 -190 -277
-208 -7 -6 -16 -11 -20 -11 -5 0 -19 -10 -33 -23 -14 -13 -54 -43 -90 -67 -36
-24 -94 -66 -130 -92 -36 -27 -84 -63 -108 -81 -24 -18 -48 -37 -55 -42 -7 -6
-37 -28 -67 -50 -30 -22 -64 -48 -74 -57 -11 -10 -38 -30 -60 -45 -23 -15 -93
-66 -156 -113 -63 -48 -127 -94 -142 -103 -16 -10 -28 -22 -28 -27 0 -13 37
-13 45 -1 3 6 60 42 128 82 67 40 158 96 203 126 45 29 86 53 92 53 6 0 12 4
14 8 2 5 15 15 30 23 69 36 188 113 188 121 0 5 4 7 8 4 5 -3 25 6 45 19 20
14 41 25 46 25 6 0 11 5 11 10 0 6 4 10 9 10 6 0 30 14 54 30 25 17 50 30 56
30 6 0 11 4 11 8 0 8 19 19 115 72 17 8 55 32 85 51 30 19 64 40 75 47 29 17
197 120 219 135 11 6 45 27 75 46 31 19 59 38 62 43 3 6 9 9 13 9 3 -1 16 5
29 12 12 8 47 29 77 47 78 47 117 71 180 112 77 49 261 158 267 158 3 0 18 11
35 25 38 32 53 32 54 -2z m3843 -1805 c2 -887 4 -2276 5 -3087 l1 -1475 -25
-6 c-14 -4 -45 -16 -70 -27 -105 -48 -106 -48 -241 -20 -68 14 -155 31 -194
38 -38 7 -73 15 -77 19 -10 7 -15 929 -23 3785 -7 2419 -8 2367 5 2375 5 3
145 7 312 8 l303 4 4 -1614z m3114 1285 c10 -13 23 -20 29 -17 6 4 8 2 5 -3
-4 -6 9 -18 28 -27 19 -9 35 -23 35 -30 0 -8 12 -19 28 -25 49 -21 93 -47 87
-52 -3 -3 7 -12 23 -20 15 -8 41 -26 57 -41 17 -16 35 -28 42 -28 6 0 26 -15
45 -33 18 -18 52 -45 75 -61 24 -16 54 -40 68 -54 14 -14 28 -23 31 -20 3 4
18 -7 34 -22 16 -16 39 -31 51 -35 12 -4 35 -23 52 -41 16 -19 32 -32 35 -29
3 3 12 -4 19 -15 8 -11 18 -18 23 -15 5 3 20 -6 34 -20 14 -14 28 -25 31 -25
3 0 18 -11 32 -25 15 -13 40 -29 55 -36 15 -6 28 -15 28 -19 0 -5 17 -19 38
-31 20 -13 42 -28 47 -34 22 -24 85 -65 99 -65 9 0 16 -7 16 -15 0 -8 4 -15
10 -15 5 0 21 -12 35 -26 14 -14 29 -24 32 -20 3 3 14 -6 25 -19 11 -14 25
-25 33 -25 7 0 15 -3 17 -8 4 -10 84 -72 93 -72 15 0 46 -44 35 -50 -5 -3 -19
-53 -29 -111 -22 -114 -39 -202 -46 -236 -5 -22 -6 -22 -233 -23 -125 0 -236
-2 -248 -4 -52 -10 -109 14 -170 72 -33 31 -80 75 -105 96 -24 22 -74 67 -110
100 -187 173 -247 228 -281 253 -21 15 -37 33 -38 38 0 6 -12 19 -27 30 -15
11 -44 36 -64 55 -42 39 -65 59 -124 108 -22 18 -72 63 -110 100 -64 61 -108
101 -287 260 -41 36 -53 53 -45 61 6 6 17 11 24 11 7 0 13 5 13 10 0 6 11 15
25 20 14 5 28 17 31 25 4 8 11 15 18 15 6 0 27 13 46 30 19 16 40 29 47 30 6
0 13 3 15 8 2 4 26 22 54 40 46 29 67 44 111 82 7 6 14 10 15 10 10 -3 37 14
33 20 -12 19 42 -6 58 -27z m-6783 -43 c0 -6 12 -16 28 -22 15 -7 45 -27 68
-45 23 -18 46 -33 51 -33 6 0 22 -11 37 -25 14 -13 29 -24 32 -24 3 1 17 -8
30 -20 13 -12 29 -21 34 -21 6 0 10 -4 10 -10 0 -5 9 -10 21 -10 11 0 18 -4
15 -8 -2 -4 15 -18 39 -31 75 -39 86 -22 -179 -271 -103 -96 -115 -107 -231
-215 -140 -129 -156 -144 -300 -279 -71 -66 -161 -150 -200 -186 -38 -36 -101
-95 -140 -131 -38 -36 -90 -84 -115 -107 l-45 -40 -276 -2 -276 -1 -32 153
c-17 84 -37 172 -43 195 -10 39 -8 45 13 68 13 13 27 25 31 25 11 0 118 80
146 108 12 12 29 22 37 22 8 0 15 4 15 8 0 5 18 21 41 38 23 16 64 47 92 69
29 22 63 48 77 58 51 36 291 218 306 232 6 6 39 31 73 55 35 25 73 54 85 66
12 12 27 23 33 25 6 2 23 14 39 27 59 45 261 200 384 292 62 47 100 62 100 40z
m-4573 -162 c-3 -8 -6 -5 -6 6 -1 11 2 17 5 13 3 -3 4 -12 1 -19z m10456 -131
c32 -28 83 -72 113 -97 30 -25 73 -62 94 -82 22 -21 43 -38 47 -38 5 0 32 -22
60 -49 29 -26 66 -59 83 -72 18 -13 44 -36 60 -51 16 -16 36 -28 45 -28 9 0
14 -4 10 -9 -3 -5 4 -12 14 -16 11 -3 30 -18 43 -33 13 -15 43 -43 67 -62 24
-19 60 -50 79 -67 20 -18 39 -33 43 -33 4 0 27 -18 51 -40 54 -51 77 -70 82
-70 3 0 22 -17 44 -37 21 -21 58 -54 81 -73 24 -19 49 -41 56 -47 8 -7 18 -13
23 -13 5 0 18 -11 28 -25 10 -14 22 -25 26 -25 4 0 20 -13 35 -29 28 -29 32
-31 56 -31 8 0 7 -4 -3 -10 -10 -6 -11 -10 -3 -10 10 0 12 -49 10 -210 l-2
-211 -307 -2 -306 -2 -25 25 c-26 26 -93 88 -142 130 -146 125 -193 166 -215
186 -14 13 -47 45 -75 72 -27 26 -75 67 -105 92 -30 25 -64 54 -75 65 -20 20
-83 77 -185 169 -30 26 -73 65 -95 85 -22 20 -64 56 -93 80 -30 25 -70 61 -90
81 -20 20 -52 46 -69 59 -18 12 -33 28 -32 34 0 7 34 41 76 77 80 69 158 139
229 205 23 22 59 54 79 70 21 17 52 44 69 62 17 18 38 32 46 32 8 0 41 -23 73
-52z m-10503 33 c0 -5 -4 -10 -10 -10 -5 0 -10 5 -10 10 0 6 5 10 10 10 6 0
10 -4 10 -10z m5610 -61 c25 -23 81 -70 125 -106 44 -36 91 -78 104 -94 13
-16 30 -29 37 -29 8 0 14 -4 14 -10 0 -5 8 -10 17 -10 9 0 14 -3 11 -6 -3 -3
15 -24 40 -47 26 -23 53 -48 60 -54 7 -7 18 -13 23 -13 5 0 9 -7 9 -16 0 -17
-10 -27 -131 -134 -41 -36 -108 -96 -150 -135 -154 -142 -190 -175 -194 -175
-2 0 -23 -19 -47 -42 -24 -24 -95 -90 -157 -148 -63 -58 -138 -128 -167 -155
-29 -28 -72 -66 -95 -85 -23 -19 -78 -69 -123 -112 -140 -132 -89 -119 -436
-116 l-302 3 1 210 1 210 33 27 c17 16 51 45 75 65 24 21 55 48 70 61 15 12
50 42 77 66 60 53 178 153 260 221 70 59 92 77 161 136 28 24 77 67 109 94 33
28 66 57 75 65 8 8 28 25 43 36 15 12 59 50 99 85 109 97 170 150 217 189 23
19 48 40 54 47 21 21 41 14 87 -28z m-5975 11 c3 -5 1 -10 -4 -10 -6 0 -11 5
-11 10 0 6 2 10 4 10 3 0 8 -4 11 -10z m16637 -62 c37 -12 68 -26 68 -30 0 -4
8 -8 18 -8 20 0 101 -25 147 -45 17 -7 44 -17 60 -21 23 -5 375 -125 445 -151
8 -3 20 -7 25 -9 6 -1 35 -12 65 -24 30 -12 64 -23 75 -25 10 -3 69 -23 131
-45 61 -22 116 -40 123 -40 6 0 11 -4 11 -8 0 -5 6 -9 13 -9 17 0 154 -42 202
-63 50 -21 101 -39 140 -50 17 -5 57 -18 90 -30 87 -30 90 -31 93 -30 1 0 16
-7 32 -15 17 -9 30 -13 30 -10 0 4 6 3 13 -2 6 -4 18 -8 26 -10 8 -1 28 -8 45
-16 17 -9 51 -21 76 -28 25 -7 56 -19 70 -26 14 -7 34 -13 45 -13 11 0 29 -6
40 -14 21 -14 74 -31 89 -27 4 1 14 -4 22 -10 8 -6 14 -8 14 -5 0 4 7 0 16 -8
8 -9 23 -17 32 -18 53 -4 92 -19 102 -38 14 -26 13 -28 -21 -35 -39 -9 -129
-53 -129 -64 0 -12 -50 -32 -61 -25 -6 3 -18 -1 -27 -9 -22 -19 -90 -52 -124
-61 -15 -3 -32 -15 -38 -26 -6 -11 -19 -20 -28 -20 -23 0 -72 -23 -72 -33 0
-5 -4 -5 -10 -2 -5 3 -10 2 -10 -4 0 -5 -13 -12 -30 -16 -16 -4 -30 -10 -30
-15 0 -5 -15 -12 -32 -15 -18 -4 -37 -11 -43 -15 -27 -20 -165 -90 -177 -90
-8 0 -24 -9 -36 -20 -12 -12 -22 -19 -22 -16 0 10 -73 -26 -136 -65 -35 -22
-68 -38 -73 -35 -5 3 -14 -1 -21 -9 -18 -22 -42 -19 -117 15 -36 17 -70 30
-75 30 -8 0 -55 19 -123 50 -77 35 -140 60 -151 60 -8 0 -14 4 -14 9 0 5 -12
12 -27 15 -16 4 -41 13 -58 21 -16 7 -45 19 -62 25 -18 7 -33 16 -33 21 0 5
-13 9 -29 9 -16 0 -34 6 -41 14 -6 8 -17 13 -24 10 -7 -3 -19 2 -26 11 -7 8
-20 15 -29 15 -9 0 -34 9 -56 19 -78 38 -109 50 -119 44 -5 -3 -6 -1 -2 5 4 7
-4 14 -21 17 -15 4 -35 10 -43 14 -9 5 -30 12 -48 16 -18 3 -32 10 -32 15 0 5
-15 12 -32 15 -18 4 -40 13 -48 20 -8 7 -51 26 -95 43 -44 17 -102 42 -130 56
-27 14 -53 26 -57 26 -4 0 -32 11 -62 25 -30 14 -61 25 -69 25 -8 0 -35 11
-60 25 -25 14 -56 28 -69 30 -23 5 -68 25 -78 35 -3 3 -25 12 -50 20 -25 8
-47 17 -50 21 -3 4 -41 22 -85 39 -44 17 -84 35 -90 39 -5 4 -39 18 -75 30
-36 13 -90 34 -120 48 -30 14 -65 26 -78 28 -12 1 -25 5 -28 8 -15 14 29 44
80 54 11 2 24 7 30 12 6 5 35 14 64 21 28 6 52 16 52 21 0 5 14 9 31 9 20 0
28 4 23 12 -4 7 -3 8 4 4 7 -4 26 -1 44 7 55 24 154 57 172 57 10 0 15 4 12 8
-7 12 44 6 98 -13 27 -9 57 -14 67 -12 12 3 19 0 19 -9 0 -8 8 -15 18 -16 32
-2 37 -4 51 -13 10 -5 16 -4 19 3 2 7 8 12 13 12 4 0 6 -7 3 -15 -4 -10 0 -15
12 -15 11 0 42 -11 69 -25 60 -29 85 -31 85 -7 0 13 3 11 13 -7 14 -27 96 -62
130 -54 18 4 19 3 7 -6 -12 -9 -10 -11 13 -11 15 0 27 -5 27 -11 0 -7 11 -9
29 -6 19 4 33 1 40 -7 6 -8 32 -19 57 -26 39 -11 47 -11 56 1 8 11 9 11 5 -2
-7 -22 39 -42 221 -94 35 -10 65 -22 68 -27 3 -4 18 -8 35 -8 16 0 29 -5 29
-11 0 -6 7 -9 15 -5 8 3 15 1 15 -4 0 -6 7 -10 17 -10 24 0 127 -33 131 -42 2
-5 14 -8 27 -8 13 0 26 -4 30 -9 3 -5 17 -8 31 -5 31 6 52 -5 33 -17 -10 -6
-8 -9 9 -9 12 0 22 -4 22 -10 0 -5 10 -10 23 -10 16 0 18 3 8 9 -9 6 -10 11
-2 15 5 4 19 -2 30 -13 11 -11 33 -24 48 -27 16 -4 37 -13 49 -21 11 -7 24
-10 27 -6 4 3 7 1 7 -6 0 -8 7 -11 15 -7 8 3 15 1 15 -4 0 -6 8 -10 19 -10 25
0 122 -31 141 -45 8 -6 29 -12 45 -14 17 -2 35 -6 40 -10 6 -4 51 -21 100 -37
50 -16 92 -31 95 -34 3 -3 17 -6 32 -8 21 -2 26 1 22 12 -3 8 -12 12 -20 9 -8
-3 -14 -1 -14 4 0 13 -49 35 -61 27 -5 -3 -8 0 -7 8 2 7 -6 13 -17 14 -11 0
-38 9 -60 19 -22 10 -44 18 -50 16 -5 -1 -14 4 -20 11 -14 18 -51 38 -70 38
-8 0 -15 5 -15 11 0 5 -8 9 -17 8 -31 -3 -44 1 -39 10 7 11 -22 23 -36 14 -7
-3 -8 -1 -4 5 5 8 0 12 -13 12 -30 0 -51 11 -51 26 0 8 -6 11 -15 7 -9 -3 -24
2 -34 11 -20 18 -182 88 -189 82 -2 -3 -23 6 -47 19 -23 13 -46 21 -50 17 -5
-4 -5 -2 -1 5 4 8 -2 15 -18 19 -14 3 -30 12 -37 20 -6 8 -20 14 -30 14 -11 0
-19 5 -19 10 0 6 -11 10 -25 10 -26 0 -66 17 -138 58 -21 12 -45 22 -55 22
-10 0 -27 7 -39 15 -12 8 -33 16 -47 17 -13 1 -22 6 -20 10 3 4 -2 8 -10 8 -9
0 -16 4 -16 8 0 12 -99 54 -111 47 -5 -4 -9 -3 -9 2 0 4 -15 14 -32 22 -18 7
-50 22 -70 32 -21 10 -38 16 -38 12 0 -3 -8 1 -17 10 -10 8 -31 19 -48 23 -16
3 -38 13 -47 22 -10 8 -29 15 -42 15 -14 0 -23 3 -21 7 5 9 -53 32 -122 50
-61 15 -57 30 21 73 27 15 57 27 67 27 10 0 21 4 24 10 5 9 54 27 79 29 5 1
40 -9 78 -21z m-2085 -10 c-3 -8 -6 -5 -6 6 -1 11 2 17 5 13 3 -3 4 -12 1 -19z
m-14313 -154 c91 -39 99 -42 125 -49 15 -5 26 -2 32 6 4 7 11 11 14 7 13 -12
-19 -46 -59 -63 -23 -10 -86 -39 -141 -65 -55 -27 -154 -74 -220 -105 -174
-83 -297 -142 -498 -239 -98 -47 -181 -86 -184 -86 -4 0 -65 -29 -137 -64 -72
-35 -167 -80 -211 -101 -44 -20 -123 -58 -175 -83 -52 -26 -97 -47 -100 -47
-18 -2 -140 -67 -140 -75 0 -5 3 -10 7 -10 18 0 219 74 224 82 3 5 8 8 10 7 7
-5 103 24 124 37 11 7 46 20 78 30 31 10 57 21 57 25 0 5 17 11 37 15 21 4 55
15 78 25 22 9 57 21 77 24 21 4 35 11 32 16 -3 5 2 6 10 3 9 -3 16 -1 16 5 0
6 11 11 25 11 22 0 63 15 154 59 19 9 39 15 44 13 5 -1 14 1 21 6 6 5 31 14
56 21 25 7 53 17 62 22 10 5 26 9 36 9 10 0 23 5 30 12 7 7 12 8 12 3 0 -6 4
-4 9 3 4 7 19 14 32 14 13 1 29 5 34 9 6 3 69 28 140 54 72 26 144 53 160 60
17 6 48 18 70 25 34 10 115 40 190 69 31 12 82 30 180 63 50 16 92 33 95 37
11 15 79 11 131 -7 64 -24 189 -63 206 -66 7 -1 16 -5 19 -9 4 -4 16 -7 26 -7
10 0 18 -4 18 -10 0 -5 8 -10 17 -10 33 0 193 -55 193 -66 0 -7 -12 -15 -27
-19 -16 -3 -56 -20 -91 -36 -34 -16 -64 -29 -67 -29 -3 0 -38 -15 -78 -34 -40
-18 -126 -57 -192 -85 -66 -29 -142 -63 -170 -76 -78 -36 -177 -81 -215 -98
-19 -8 -84 -38 -143 -66 -60 -28 -111 -51 -113 -51 -3 0 -31 -12 -62 -26 -31
-14 -66 -29 -77 -34 -22 -9 -100 -45 -210 -95 -38 -18 -81 -36 -95 -40 -22 -7
-84 -35 -300 -137 -36 -17 -81 -36 -100 -43 -19 -7 -73 -31 -120 -53 -72 -34
-179 -81 -254 -111 -14 -5 -58 11 -155 60 -75 36 -203 99 -286 139 -82 39
-157 76 -165 80 -17 10 -92 47 -130 64 -14 6 -27 14 -30 17 -7 9 -158 79 -169
79 -5 0 -11 3 -13 8 -5 12 -195 102 -215 102 -7 0 -13 7 -13 15 0 8 1 15 3 15
1 0 32 11 70 24 37 14 67 23 67 21 0 -6 97 40 114 54 7 6 18 11 22 9 22 -6 84
14 93 30 8 14 10 14 11 2 0 -11 3 -12 8 -3 4 6 20 14 36 17 15 3 33 9 39 14 7
5 37 17 67 26 30 9 62 20 70 23 8 3 17 7 20 8 40 10 87 31 92 40 5 7 16 11 26
8 11 -2 25 2 33 10 8 7 19 12 26 10 6 -2 23 3 36 12 14 9 29 15 33 14 10 -2
59 16 86 31 10 6 25 10 33 10 10 0 13 5 9 12 -5 8 -2 9 9 5 18 -7 107 23 107
36 0 4 4 6 8 3 8 -5 58 12 137 45 17 7 38 13 48 14 9 1 43 14 76 29 32 14 73
29 90 32 17 4 31 10 31 15 0 5 9 9 20 9 11 0 20 4 20 9 0 5 15 11 32 15 41 8
88 29 88 38 0 4 6 5 14 2 8 -3 27 1 43 9 15 8 71 29 123 47 52 18 102 39 111
46 8 8 25 14 36 14 11 0 53 14 93 30 40 17 81 30 91 30 10 0 24 6 31 13 7 7
36 18 63 25 28 7 52 17 53 23 7 18 95 9 156 -17z m-459 -44 c3 -5 1 -10 -4
-10 -6 0 -11 5 -11 10 0 6 2 10 4 10 3 0 8 -4 11 -10z m-245 -96 c0 -8 -4 -12
-10 -9 -5 3 -10 10 -10 16 0 5 5 9 10 9 6 0 10 -7 10 -16z m16875 -14 c3 -5 1
-10 -4 -10 -6 0 -11 5 -11 10 0 6 2 10 4 10 3 0 8 -4 11 -10z m120 -40 c-3 -5
-12 -10 -18 -10 -7 0 -6 4 3 10 19 12 23 12 15 0z m177 -70 c12 -11 17 -20 11
-20 -5 0 -18 9 -28 20 -10 11 -15 20 -11 20 4 0 16 -9 28 -20z m-17602 -44 c0
-3 -4 -8 -10 -11 -5 -3 -10 -1 -10 4 0 6 5 11 10 11 6 0 10 -2 10 -4z m17760
-18 c0 -11 -12 -10 -30 2 -12 7 -10 9 8 7 12 0 22 -5 22 -9z m-1568 -52 c71
-31 90 -39 108 -41 28 -3 60 -17 60 -26 0 -5 7 -9 16 -9 8 0 22 -7 31 -15 8
-8 19 -13 24 -10 5 4 9 1 9 -4 0 -6 14 -11 30 -11 17 0 30 -5 30 -10 0 -10 44
-33 66 -35 6 0 22 -5 35 -11 43 -20 133 -56 169 -67 19 -6 37 -14 40 -18 3 -3
16 -10 30 -14 14 -4 32 -13 40 -20 18 -15 60 -30 78 -27 6 2 12 -1 12 -5 0 -5
9 -9 20 -10 11 -1 27 -9 36 -17 8 -9 24 -16 35 -16 10 0 19 -4 19 -10 0 -5 3
-9 8 -8 9 2 59 -17 95 -37 16 -8 38 -15 48 -15 13 0 17 -4 13 -11 -4 -7 -1
-10 7 -7 8 3 19 -2 26 -11 7 -9 13 -11 13 -5 0 6 26 -2 60 -17 33 -16 67 -29
75 -29 8 0 15 -4 15 -10 0 -5 7 -7 15 -4 9 4 15 0 15 -9 0 -17 57 -31 86 -21
15 4 16 4 5 -4 -11 -8 -8 -13 17 -26 17 -9 40 -16 51 -16 11 0 26 -6 34 -14 7
-8 33 -20 55 -27 23 -7 42 -16 42 -21 0 -5 4 -7 9 -3 6 3 25 -3 44 -14 19 -11
38 -17 41 -14 3 4 6 1 6 -6 0 -8 7 -11 15 -7 9 3 18 0 21 -8 3 -7 17 -13 32
-13 14 0 28 -6 30 -12 2 -6 10 -11 18 -11 24 0 210 -86 220 -102 3 -5 12 -7
19 -4 7 2 27 -4 44 -15 18 -11 36 -17 41 -14 5 3 15 -1 22 -9 15 -14 48 -27
59 -23 4 1 16 -6 28 -17 11 -10 33 -18 48 -18 16 0 34 -9 41 -19 7 -11 24 -19
38 -19 13 0 24 -4 24 -10 0 -5 9 -10 19 -10 11 0 22 -4 25 -9 3 -5 22 -12 41
-15 19 -4 35 -11 35 -16 0 -6 9 -10 20 -10 33 0 82 -29 78 -47 -2 -8 -21 -22
-43 -30 -45 -16 -123 -53 -143 -67 -8 -6 -36 -18 -62 -27 -27 -9 -65 -29 -84
-44 -19 -15 -40 -24 -45 -20 -6 3 -31 -8 -55 -24 -25 -17 -51 -31 -60 -31 -8
0 -27 -11 -42 -25 -14 -13 -30 -22 -35 -19 -10 6 -69 -26 -69 -38 0 -4 -5 -8
-12 -8 -9 0 -72 -27 -140 -61 -10 -5 -22 -9 -28 -9 -6 0 -20 -9 -32 -19 -11
-11 -26 -17 -33 -15 -7 3 -20 -5 -29 -18 -9 -13 -17 -21 -19 -19 -4 7 -51 -11
-67 -24 -8 -8 -27 -17 -42 -20 -16 -4 -28 -11 -28 -15 0 -9 -34 -21 -77 -26
-18 -3 -33 0 -33 6 0 5 -9 10 -20 10 -11 0 -20 5 -20 10 0 6 -5 10 -10 10 -6
0 -25 6 -43 13 -18 8 -36 14 -40 15 -5 0 -14 7 -20 15 -7 8 -28 20 -47 28 -19
7 -41 19 -48 26 -8 7 -45 27 -83 45 -38 17 -69 35 -69 39 0 4 -20 13 -45 20
-25 7 -45 16 -45 20 0 4 -12 12 -27 18 -16 6 -35 15 -43 21 -8 5 -37 19 -65
31 -27 11 -57 25 -65 30 -8 5 -31 17 -50 27 -19 9 -39 23 -43 30 -4 6 -14 12
-22 12 -7 0 -20 6 -27 13 -7 7 -29 19 -48 27 -19 7 -46 21 -60 30 -14 9 -50
27 -80 40 -30 13 -64 32 -76 42 -11 10 -25 18 -31 18 -16 0 -132 57 -183 90
-25 15 -52 29 -62 29 -9 1 -18 6 -20 12 -2 5 -10 11 -18 12 -16 3 -98 48 -142
78 -15 11 -34 19 -43 19 -8 0 -15 5 -15 10 0 6 -11 10 -24 10 -13 0 -29 7 -36
14 -6 8 -28 20 -48 27 -20 6 -41 18 -45 25 -4 8 -17 14 -27 14 -11 0 -20 4
-20 8 0 5 -16 14 -35 22 -19 8 -35 17 -35 22 0 4 -4 8 -9 8 -14 0 -132 56
-166 80 -16 11 -37 20 -46 20 -8 0 -30 11 -49 25 -19 14 -40 25 -47 25 -8 0
-23 9 -35 20 -12 11 -28 20 -35 20 -18 0 -93 38 -111 56 -7 8 -21 14 -30 14
-27 0 -62 29 -56 45 4 8 19 15 34 15 16 0 36 7 44 16 9 8 30 17 47 19 17 3 38
13 48 23 9 10 24 16 34 14 9 -2 17 1 17 7 0 6 10 11 23 11 12 0 33 7 47 15 14
8 36 19 50 25 14 6 43 20 64 31 37 19 104 24 116 8 10 -14 123 -59 133 -52 6
3 7 1 3 -5 -4 -7 -1 -12 6 -12 7 0 24 -9 38 -20 14 -11 35 -20 47 -20 12 0 25
-4 28 -10 3 -5 15 -15 27 -21 15 -8 19 -8 13 1 -4 6 11 0 34 -14 23 -15 41
-24 41 -20 0 3 7 -2 16 -11 9 -9 26 -15 38 -13 11 2 26 -2 31 -8 11 -14 148
-85 167 -88 8 -1 30 -12 49 -24 20 -12 45 -22 56 -22 12 0 26 -7 33 -15 6 -8
15 -14 18 -13 4 1 36 -12 71 -30 34 -18 70 -32 80 -32 9 0 27 -9 41 -20 14
-11 35 -20 48 -20 13 0 20 -4 17 -10 -3 -5 1 -10 10 -10 16 0 96 -37 105 -49
8 -11 64 -32 88 -34 11 0 19 -4 17 -7 -2 -4 19 -17 48 -30 29 -13 81 -36 117
-52 36 -16 74 -33 85 -38 11 -5 30 -12 43 -15 12 -4 22 -10 22 -15 0 -5 6 -7
14 -4 7 3 16 -2 20 -11 4 -10 12 -15 22 -11 8 3 13 2 10 -3 -3 -5 4 -12 17
-16 29 -9 26 -8 72 -30 22 -10 45 -19 50 -19 6 -1 12 -3 15 -6 8 -8 73 -38
113 -51 20 -7 37 -17 37 -21 0 -4 9 -8 20 -8 11 0 20 -4 20 -10 0 -5 9 -10 20
-10 11 0 20 -4 20 -10 0 -5 8 -10 18 -10 9 0 31 -9 47 -20 17 -11 40 -20 53
-20 12 0 22 -4 22 -8 0 -11 45 -32 67 -32 13 0 12 5 -7 25 -13 14 -29 25 -37
25 -7 0 -13 5 -13 10 0 6 -7 10 -15 10 -8 0 -15 4 -15 9 0 5 -11 12 -25 15
-14 4 -25 10 -25 15 0 5 -13 12 -30 16 -16 4 -33 11 -36 17 -3 5 -25 18 -48
29 -67 32 -101 52 -104 61 -2 4 -12 8 -23 8 -10 0 -19 4 -19 9 0 5 -15 16 -34
25 -18 8 -39 22 -46 31 -7 8 -22 15 -34 15 -12 0 -32 9 -44 20 -12 11 -24 20
-27 20 -3 0 -24 12 -48 27 -23 14 -48 26 -54 26 -7 0 -13 4 -13 9 0 5 -4 6
-10 3 -5 -3 -10 -1 -10 5 0 6 -4 9 -9 5 -6 -3 -14 3 -20 12 -6 10 -11 15 -11
10 0 -10 -80 31 -80 42 0 5 -8 11 -17 15 -20 6 -41 19 -90 54 -18 12 -60 35
-93 51 -33 16 -67 34 -75 41 -15 12 -58 36 -164 90 -36 18 -71 39 -79 46 -7 8
-33 23 -58 34 -24 11 -60 31 -80 45 -20 14 -45 25 -55 25 -10 0 -30 11 -44 25
-14 14 -25 22 -25 18 0 -4 -4 -3 -8 3 -4 6 -51 34 -105 63 -54 28 -105 57
-113 66 -8 8 -39 22 -69 31 -34 11 -55 24 -58 36 -3 11 0 18 9 18 8 0 14 5 14
10 0 6 9 10 21 10 11 0 27 7 35 15 9 8 25 15 37 16 37 1 71 9 81 19 14 14 19
13 78 -14z m1683 14 c3 -5 -1 -10 -9 -10 -9 0 -16 5 -16 10 0 6 4 10 9 10 6 0
13 -4 16 -10z m-18040 -20 c3 -5 1 -10 -4 -10 -6 0 -11 5 -11 10 0 6 2 10 4
10 3 0 8 -4 11 -10z m1105 -14 c0 -11 -19 -15 -25 -6 -3 5 1 10 9 10 9 0 16
-2 16 -4z m10094 -52 c3 -8 12 -14 21 -14 8 0 15 -9 15 -19 0 -11 5 -23 12
-27 7 -5 8 -3 3 7 -9 14 38 -29 221 -208 58 -57 107 -103 111 -103 6 0 26 -22
62 -69 13 -17 30 -31 38 -31 8 0 12 -4 9 -9 -3 -5 6 -12 19 -15 14 -4 23 -10
21 -15 -3 -5 10 -19 28 -32 19 -13 32 -27 30 -31 -3 -4 2 -8 10 -8 21 0 22
-292 1 -310 -8 -7 -16 -7 -19 -1 -4 5 -116 7 -288 5 -156 -3 -288 -1 -294 3
-5 4 -37 40 -69 78 -32 39 -64 75 -69 81 -6 6 -36 39 -66 74 -30 35 -71 82
-90 104 -20 23 -56 66 -80 96 -25 30 -57 68 -72 83 -16 16 -28 35 -28 42 0 7
23 29 50 49 28 20 50 41 50 47 0 5 4 8 8 5 4 -3 25 11 46 30 20 19 40 34 44
34 4 0 30 18 57 40 28 22 55 40 61 40 7 0 14 7 18 15 7 20 108 84 123 78 6 -3
14 -11 17 -19z m-8584 -22 c0 -4 33 -18 73 -31 140 -45 141 -46 65 -82 -46
-21 -98 -51 -134 -76 -19 -14 -48 -31 -119 -68 -38 -21 -76 -42 -84 -49 -7 -6
-46 -29 -86 -51 -40 -22 -103 -58 -141 -81 -65 -39 -283 -166 -349 -204 -99
-57 -142 -81 -155 -90 -8 -5 -49 -29 -90 -52 -41 -24 -83 -47 -92 -53 -9 -5
-29 -17 -45 -26 -15 -8 -97 -57 -181 -107 -84 -51 -155 -92 -158 -92 -3 0 -31
-17 -62 -38 -31 -21 -87 -53 -124 -72 -79 -39 -121 -73 -97 -78 12 -2 303 134
359 169 8 5 26 14 40 20 57 24 195 94 201 102 3 5 8 7 11 5 2 -1 33 11 69 28
124 61 315 153 389 188 41 19 89 43 105 52 48 27 64 34 80 34 8 0 15 5 15 10
0 6 5 10 11 10 18 0 109 44 109 52 0 5 7 8 15 8 16 0 287 128 295 140 3 4 18
10 33 14 17 4 25 11 21 18 -4 6 -3 8 3 5 6 -4 46 11 89 32 43 21 106 51 139
66 33 15 96 45 140 66 43 22 85 39 92 39 7 0 13 5 13 11 0 16 41 4 125 -36 38
-18 87 -39 108 -46 20 -7 37 -17 37 -21 0 -4 5 -8 11 -8 6 0 37 -11 68 -24 87
-37 102 -43 126 -45 37 -3 7 -30 -88 -79 -154 -80 -281 -147 -379 -202 -48
-28 -90 -50 -94 -50 -3 0 -18 -8 -32 -19 -28 -19 -99 -58 -257 -141 -49 -26
-112 -61 -140 -77 -27 -16 -88 -49 -135 -73 -47 -24 -87 -47 -90 -50 -3 -3
-48 -29 -100 -57 -117 -63 -211 -113 -270 -147 -25 -13 -90 -48 -144 -76 -55
-29 -115 -62 -135 -74 -20 -13 -79 -46 -132 -74 -53 -28 -134 -72 -180 -98
-258 -144 -238 -138 -316 -100 -26 13 -75 36 -108 51 -33 15 -118 56 -190 90
-71 35 -173 83 -225 108 -52 25 -170 81 -263 126 -92 44 -169 81 -171 81 -18
0 -156 73 -156 82 0 9 3 9 11 1 8 -8 29 -3 77 18 36 17 82 37 101 45 20 8 61
27 91 41 104 48 135 62 182 80 27 10 48 21 48 26 0 4 6 7 14 7 8 0 27 6 43 14
15 8 49 24 76 35 26 12 66 30 90 41 23 11 48 20 55 20 7 0 10 5 6 12 -4 7 -3
8 4 4 7 -4 33 4 60 18 26 13 65 30 87 38 22 7 42 16 45 19 8 10 93 49 107 49
7 0 13 4 13 10 0 5 18 14 41 20 22 6 49 20 60 31 20 20 34 26 24 9 -3 -5 -1
-10 4 -10 6 0 11 5 11 10 0 6 6 10 14 10 7 0 35 12 62 27 27 15 54 28 59 29 6
1 36 13 67 28 31 14 59 26 62 26 12 0 161 74 164 82 2 4 12 8 22 8 10 0 31 6
47 14 15 8 57 27 93 41 36 15 92 40 125 56 33 16 66 29 73 29 6 0 12 5 12 10
0 6 7 10 16 10 9 0 35 10 58 21 22 12 49 25 58 30 10 5 25 9 33 9 8 0 15 5 15
10 0 6 6 10 14 10 13 0 83 30 206 87 109 52 166 72 198 73 17 0 32 -3 32 -8z
m5088 -26 c20 -14 51 -36 67 -51 17 -15 46 -35 65 -45 19 -10 48 -32 64 -49
17 -17 40 -31 53 -31 13 0 23 -6 23 -14 0 -7 12 -22 27 -32 15 -9 36 -26 47
-36 18 -17 31 -22 47 -20 4 1 4 -9 1 -21 -4 -19 -55 -83 -135 -172 -10 -11
-42 -49 -70 -84 -62 -75 -108 -130 -201 -240 l-70 -81 -288 -1 c-158 -1 -294
-2 -300 -3 -10 -1 -14 36 -16 146 l-3 146 118 116 c346 340 509 496 521 496 7
0 29 -11 50 -24z m-7991 -2 c-3 -3 -12 -4 -19 -1 -8 3 -5 6 6 6 11 1 17 -2 13
-5z m887 -49 c-4 -8 -11 -12 -16 -9 -6 4 -5 10 3 15 19 12 19 11 13 -6z
m13879 -6 c12 -11 34 -23 50 -26 15 -3 27 -9 27 -14 0 -5 5 -9 11 -9 6 0 17
-6 25 -14 7 -8 35 -22 61 -32 27 -9 55 -23 64 -31 8 -7 21 -13 28 -13 7 0 9
-4 6 -10 -3 -5 1 -10 9 -10 9 0 16 -4 16 -10 0 -5 7 -10 15 -10 15 0 55 -19
65 -31 3 -3 20 -12 38 -20 17 -8 32 -18 32 -22 0 -5 5 -5 10 -2 6 3 10 2 10
-3 0 -9 50 -37 63 -34 4 1 7 -2 7 -8 0 -5 9 -10 20 -10 11 0 20 -3 20 -8 0
-10 100 -69 132 -77 15 -4 29 -13 32 -22 3 -8 10 -12 15 -8 5 3 12 1 16 -5 3
-5 32 -22 63 -38 31 -16 74 -38 95 -50 21 -12 44 -22 53 -22 8 0 17 -7 20 -15
4 -8 13 -15 20 -15 8 0 17 -7 20 -15 4 -8 16 -15 29 -15 12 0 30 -9 40 -20 10
-11 24 -20 30 -20 7 0 24 -9 37 -20 14 -10 28 -16 32 -13 3 3 6 1 6 -5 0 -6
21 -18 48 -26 26 -8 40 -15 32 -15 -20 -1 60 -50 82 -51 9 0 23 -9 30 -19 8
-11 26 -23 41 -26 14 -4 31 -13 38 -21 6 -8 20 -14 31 -14 10 0 21 -7 24 -15
4 -8 15 -15 25 -15 10 0 19 -5 19 -11 0 -6 7 -9 15 -5 9 3 24 -4 37 -19 12
-14 26 -25 31 -25 11 0 185 -98 209 -118 9 -8 22 -11 28 -7 6 3 9 1 8 -6 -2
-7 14 -17 35 -24 21 -6 35 -14 31 -18 -4 -4 -1 -7 7 -7 9 0 25 -9 37 -20 12
-11 25 -20 29 -19 19 3 57 -3 45 -8 -17 -7 -5 -23 18 -23 10 0 20 -4 22 -9 2
-5 10 -11 18 -13 8 -2 17 -5 20 -8 15 -16 90 -59 90 -53 0 5 5 0 11 -9 5 -10
17 -18 25 -18 16 0 56 -20 65 -33 3 -5 10 -8 14 -6 4 1 27 -11 53 -27 25 -16
49 -30 54 -30 4 -1 13 -2 19 -3 5 0 7 -6 3 -12 -5 -9 1 -10 20 -5 17 4 25 3
24 -5 -3 -13 29 -34 115 -76 31 -15 57 -31 57 -35 0 -5 12 -8 26 -8 14 0 23
-4 19 -9 -7 -12 29 -33 39 -24 3 3 6 1 6 -5 0 -12 93 -62 118 -63 12 0 13 -2
4 -6 -9 -3 -4 -10 13 -19 15 -8 44 -23 64 -33 20 -11 50 -25 67 -32 23 -9 31
-19 30 -35 0 -12 -3 -22 -6 -21 -18 4 -91 -17 -101 -29 -6 -8 -19 -14 -28 -14
-14 0 -105 -42 -142 -66 -8 -5 -16 -9 -19 -10 -30 -5 -71 -21 -117 -45 -31
-16 -64 -29 -74 -29 -9 0 -20 -7 -23 -15 -3 -9 -11 -15 -18 -13 -7 1 -38 -10
-68 -24 -30 -14 -76 -34 -102 -43 -27 -10 -48 -22 -48 -26 0 -5 -9 -9 -21 -9
-12 0 -18 -4 -13 -11 4 -7 1 -10 -7 -7 -8 3 -41 -6 -74 -20 -33 -13 -73 -30
-90 -36 -16 -7 -46 -22 -65 -34 -19 -12 -39 -22 -43 -22 -4 0 -37 -13 -72 -30
-35 -16 -68 -30 -73 -30 -15 0 -72 -31 -72 -40 0 -4 -12 -10 -27 -13 -16 -3
-50 -13 -76 -24 -35 -13 -50 -15 -55 -7 -4 7 -36 33 -72 60 -36 26 -66 51 -68
56 -2 4 -9 8 -15 8 -7 0 -25 13 -42 28 -16 15 -46 38 -67 50 -20 12 -39 29
-42 37 -3 8 -12 15 -20 15 -8 0 -19 6 -23 13 -4 7 -29 28 -55 45 -25 18 -52
38 -60 44 -7 7 -40 33 -73 58 -33 25 -64 51 -68 57 -4 7 -36 32 -70 55 -34 23
-68 50 -75 60 -7 10 -19 18 -25 18 -7 0 -27 14 -44 31 -18 16 -33 27 -33 24 0
-4 -6 0 -14 7 -45 44 -87 78 -96 78 -5 0 -20 11 -32 25 -12 14 -27 25 -33 25
-6 0 -21 10 -33 23 -31 33 -71 67 -77 67 -12 0 -93 68 -88 74 4 3 1 6 -6 6
-10 0 -73 41 -91 60 -3 3 -21 17 -40 32 -19 15 -48 38 -64 52 -16 14 -32 26
-35 26 -3 0 -18 11 -33 24 -14 14 -50 40 -79 58 -30 18 -78 56 -108 85 -30 29
-62 55 -73 59 -10 3 -18 9 -18 14 0 5 -35 32 -77 60 -43 29 -80 56 -83 60 -3
4 -41 35 -85 69 -44 33 -84 64 -90 69 -5 4 -41 31 -80 60 -38 29 -86 66 -105
83 -19 18 -50 38 -67 45 -18 8 -33 21 -33 29 0 14 -9 14 513 17 59 0 109 3
111 7 4 6 14 103 21 211 3 30 7 75 10 100 3 25 8 80 10 124 7 104 11 110 48
75z m-13918 -19 c3 -6 -1 -7 -9 -4 -18 7 -21 14 -7 14 6 0 13 -4 16 -10z
m3834 -156 c6 -60 15 -134 21 -164 5 -30 12 -86 15 -125 3 -38 8 -80 11 -93
l4 -22 315 5 c196 3 315 1 315 -5 0 -5 -11 -17 -26 -27 -22 -16 -280 -217
-373 -291 -18 -15 -41 -35 -50 -44 -8 -10 -21 -18 -28 -18 -6 0 -16 -6 -20
-14 -4 -7 -22 -22 -39 -32 -33 -21 -108 -81 -161 -131 -19 -18 -42 -35 -51
-38 -9 -3 -33 -20 -53 -38 -20 -17 -48 -41 -63 -52 -15 -11 -40 -31 -54 -43
-15 -13 -58 -48 -97 -77 -38 -29 -82 -63 -96 -76 -15 -13 -51 -43 -80 -66 -55
-44 -217 -173 -279 -223 -19 -15 -93 -74 -164 -130 -141 -112 -170 -136 -198
-162 -10 -10 -22 -18 -27 -18 -5 0 -15 -7 -22 -17 -8 -9 -26 -24 -41 -33 -16
-9 -45 -33 -66 -52 -21 -19 -43 -37 -48 -39 -6 -2 -33 -23 -60 -46 -27 -22
-85 -70 -129 -104 -44 -35 -84 -69 -88 -76 -4 -7 -15 -13 -22 -13 -8 0 -15 -4
-15 -9 0 -5 -8 -12 -19 -16 -18 -5 -84 18 -281 102 -58 24 -132 56 -165 70
-33 14 -96 41 -140 60 -44 19 -93 41 -110 48 -125 54 -151 65 -230 100 -33 14
-69 30 -80 35 -11 5 -69 29 -130 55 -60 25 -119 50 -130 55 -11 6 -49 21 -85
34 -35 13 -65 28 -67 32 -3 9 90 74 106 74 5 0 16 6 23 13 7 7 34 23 61 37 26
14 47 29 47 33 0 5 5 5 10 2 6 -3 10 -1 10 4 0 6 5 11 11 11 6 0 25 11 43 25
18 14 40 25 48 25 9 0 18 7 22 15 3 8 13 15 21 15 9 0 31 11 49 25 18 14 40
25 49 25 9 0 22 8 29 18 7 9 29 25 48 34 19 10 58 31 85 48 28 17 62 35 78 41
15 6 27 15 27 19 0 5 18 16 40 26 21 10 36 22 33 27 -3 6 -2 7 4 4 6 -4 19 0
29 8 10 8 47 28 82 45 35 17 66 38 69 46 3 8 13 14 23 14 10 0 23 7 30 15 7 8
19 15 26 15 8 0 14 5 14 10 0 6 5 10 11 10 11 0 138 76 149 89 3 3 30 19 60
34 60 31 63 32 165 97 38 25 95 58 125 74 30 16 62 35 71 42 8 8 20 14 26 14
5 0 18 9 28 20 9 10 20 18 24 17 11 -3 103 49 128 72 12 12 30 21 39 21 10 0
25 6 33 14 9 8 43 29 76 47 33 18 62 35 65 39 3 3 25 17 50 30 67 35 80 42
143 83 31 20 61 37 66 37 5 0 11 5 13 12 2 6 11 12 19 13 7 2 39 17 69 35 30
18 82 49 115 68 94 54 113 65 230 136 60 36 113 66 118 66 4 0 5 5 1 12 -4 6
-3 8 2 5 6 -3 39 11 74 32 45 26 67 34 72 26 4 -6 12 -61 17 -121z m14418 100
c-3 -3 -12 -4 -19 -1 -8 3 -5 6 6 6 11 1 17 -2 13 -5z m-16842 -44 c-3 -5 -14
-10 -23 -10 -15 0 -15 2 -2 10 20 13 33 13 25 0z m-1785 -54 c0 -2 -7 -7 -16
-10 -8 -3 -12 -2 -9 4 6 10 25 14 25 6z m920 -326 c0 -5 -2 -10 -4 -10 -3 0
-8 5 -11 10 -3 6 -1 10 4 10 6 0 11 -4 11 -10z m17045 -40 c-3 -5 -1 -10 6
-10 7 0 10 -3 6 -6 -9 -9 -28 6 -22 17 4 5 8 9 11 9 3 0 2 -4 -1 -10z m-17150
-20 c3 -5 1 -10 -4 -10 -6 0 -11 5 -11 10 0 6 2 10 4 10 3 0 8 -4 11 -10z
m12461 -62 c20 -18 46 -41 56 -50 10 -10 22 -18 28 -18 5 0 15 -9 22 -20 7
-11 18 -20 24 -20 6 0 27 -16 47 -35 20 -19 43 -35 51 -35 8 0 20 -8 25 -18 5
-10 22 -24 37 -32 15 -8 52 -39 82 -67 30 -29 60 -53 67 -53 6 0 22 -11 35
-25 13 -14 26 -23 28 -20 3 2 20 -11 38 -30 18 -19 35 -35 38 -35 3 0 14 -8
24 -17 43 -41 113 -89 124 -85 5 1 7 -2 5 -7 -2 -10 105 -101 120 -101 5 0 20
-11 33 -25 13 -14 31 -25 41 -25 10 0 20 -8 23 -18 4 -11 18 -25 31 -32 14 -7
25 -17 25 -22 0 -4 6 -8 14 -8 8 0 21 -9 29 -20 8 -11 17 -17 20 -13 4 3 7 1
7 -5 0 -7 17 -23 39 -36 21 -14 50 -35 64 -48 37 -34 59 -51 88 -70 14 -9 34
-24 43 -33 11 -12 16 -13 16 -3 0 7 10 -1 22 -18 12 -17 38 -42 58 -55 19 -13
43 -31 52 -40 9 -9 37 -32 62 -50 25 -18 46 -36 46 -41 0 -5 10 -6 23 -3 17 5
18 4 7 -4 -12 -8 -11 -11 5 -17 11 -4 36 -23 55 -41 19 -18 38 -33 42 -33 4 0
19 -11 34 -25 14 -13 31 -22 37 -18 6 3 7 1 3 -5 -4 -7 -3 -12 3 -12 5 0 16
-6 24 -14 8 -8 29 -24 48 -35 19 -12 30 -21 24 -21 -9 0 24 -24 75 -55 9 -6
32 -25 50 -44 18 -18 52 -44 74 -58 23 -14 45 -32 49 -39 4 -8 13 -14 19 -14
5 0 19 -11 30 -25 11 -14 25 -25 32 -25 7 0 29 -15 48 -32 20 -18 47 -41 62
-52 14 -10 33 -24 41 -30 14 -10 16 -43 18 -213 l2 -202 -40 -7 c-22 -3 -44
-10 -50 -13 -5 -4 -37 -13 -70 -20 -60 -13 -119 -28 -230 -62 -33 -10 -80 -20
-105 -24 -25 -3 -54 -10 -65 -15 -28 -12 -112 -31 -160 -37 -22 -3 -48 -10
-59 -15 -23 -12 -28 -7 -56 67 -28 72 -97 214 -114 235 -7 8 -30 45 -51 83
-22 37 -43 67 -47 67 -4 0 -8 6 -8 13 0 6 -14 26 -30 44 -17 18 -30 36 -30 42
0 5 -11 18 -25 29 -14 11 -25 23 -25 27 0 8 -33 45 -127 143 -40 42 -73 80
-73 84 0 5 -4 7 -9 3 -6 -3 -13 0 -18 7 -12 20 -126 118 -136 118 -5 0 -22 10
-37 23 -66 52 -95 73 -129 90 -20 10 -58 31 -86 47 -62 36 -155 80 -166 80 -5
0 -9 5 -9 10 0 6 -9 10 -19 10 -11 0 -23 5 -26 10 -3 6 -16 10 -27 10 -12 0
-58 13 -102 29 -73 26 -140 44 -173 46 -7 0 -70 58 -140 128 -71 70 -246 244
-391 388 -144 144 -261 263 -258 266 2 2 45 6 96 8 51 2 94 6 95 7 2 2 51 1
110 -2 59 -3 109 -3 111 0 3 2 59 3 124 1 l120 -2 0 180 c0 203 1 205 66 149z
m-1436 10 c0 -7 11 -24 25 -38 14 -14 53 -55 88 -91 131 -138 207 -217 207
-213 0 2 9 -4 20 -13 11 -10 20 -23 20 -30 0 -7 6 -13 14 -13 8 0 24 -16 36
-35 12 -19 26 -33 31 -29 5 3 9 -2 9 -10 0 -8 8 -17 18 -20 9 -3 27 -21 40
-40 13 -18 43 -52 67 -75 25 -23 45 -47 45 -54 0 -8 3 -7 9 2 7 11 11 10 20
-6 5 -11 8 -23 6 -27 -3 -3 -2 -4 1 -2 4 3 23 -16 44 -42 20 -26 65 -72 100
-102 34 -30 69 -68 76 -83 8 -15 19 -25 24 -22 6 4 10 -1 10 -9 0 -9 3 -16 8
-16 11 0 112 -99 112 -110 0 -16 -23 -24 -99 -32 -42 -4 -84 -9 -93 -10 -10
-1 -18 -5 -18 -9 0 -4 -15 -9 -32 -12 -54 -8 -192 -48 -202 -58 -6 -5 -18 -9
-28 -9 -10 0 -18 -4 -18 -10 0 -5 -8 -10 -18 -10 -10 0 -22 -4 -28 -8 -5 -5
-34 -14 -64 -22 -30 -7 -89 -29 -130 -49 -41 -19 -81 -34 -89 -33 -7 2 -10 -1
-7 -7 3 -5 -8 -12 -25 -16 -17 -4 -42 -13 -57 -21 -39 -20 -45 -18 -80 29 -17
23 -47 60 -67 82 -19 22 -59 68 -88 103 -28 35 -79 93 -112 130 -33 37 -74 85
-90 107 -33 44 -67 85 -105 125 -14 14 -36 42 -50 60 -20 28 -89 109 -110 130
-3 3 -23 28 -45 55 -22 28 -47 56 -57 63 -10 7 -18 18 -18 24 0 7 -15 24 -32
39 -58 48 -63 48 364 49 l318 1 5 22 c3 12 4 102 2 200 l-4 177 24 0 c13 0 23
-5 23 -12z m-5177 -197 l-6 -198 24 -5 c22 -4 114 -4 249 1 30 1 128 2 217 1
90 0 175 3 189 6 57 14 39 -36 -43 -124 -7 -7 -29 -34 -50 -60 -20 -26 -57
-69 -81 -97 -51 -58 -62 -70 -122 -145 -25 -30 -47 -57 -50 -60 -3 -3 -23 -27
-45 -55 -22 -27 -43 -51 -47 -53 -5 -2 -8 -8 -8 -13 0 -6 -22 -34 -50 -62 -27
-28 -50 -54 -50 -57 0 -3 -23 -30 -50 -59 -28 -30 -60 -72 -72 -93 -12 -21
-25 -38 -30 -38 -4 0 -26 -26 -50 -57 -23 -32 -45 -59 -49 -61 -4 -2 -43 -47
-85 -100 -43 -53 -82 -99 -86 -100 -5 -2 -21 -22 -37 -45 -16 -23 -42 -56 -58
-73 -15 -16 -40 -46 -55 -66 -15 -20 -33 -42 -40 -50 -14 -14 -148 -176 -160
-193 -4 -5 -40 -49 -80 -96 -100 -117 -187 -222 -196 -234 -4 -6 -34 -42 -67
-80 -32 -39 -60 -71 -61 -73 -3 -5 -128 30 -134 38 -9 11 -153 49 -270 71
-226 41 -674 34 -828 -13 -22 -7 -37 -7 -44 0 -9 9 27 48 307 336 55 57 131
136 170 177 38 41 159 168 270 283 110 115 235 245 278 290 42 44 154 160 247
257 94 97 184 193 200 214 17 21 30 34 30 30 0 -4 15 10 33 31 17 21 47 51 65
68 17 17 32 38 32 48 0 9 3 24 7 34 6 17 7 17 13 0 7 -20 55 25 325 309 94 99
193 202 220 230 28 28 66 70 85 93 19 23 37 42 41 42 4 0 5 -89 2 -199z
m-1403 6 l0 -183 93 -1 c335 -5 495 -4 518 2 21 5 27 2 32 -14 3 -14 -1 -22
-13 -26 -10 -3 -61 -52 -115 -108 -54 -56 -186 -194 -295 -307 -109 -113 -235
-244 -281 -292 -46 -48 -122 -127 -169 -175 -47 -49 -166 -173 -265 -277 -99
-103 -202 -211 -230 -240 -27 -28 -156 -161 -285 -295 -396 -410 -428 -441
-443 -441 -16 0 -68 11 -377 81 -96 22 -204 46 -240 54 -36 8 -112 26 -170 39
-58 13 -122 27 -142 30 l-38 7 0 202 0 202 75 59 c41 32 75 63 75 67 0 5 7 9
15 9 8 0 15 4 15 9 0 5 15 18 33 30 55 35 70 46 87 61 9 8 40 35 70 60 29 25
58 50 64 55 6 6 29 22 51 37 22 15 60 46 85 68 25 22 48 40 51 40 3 0 21 14
40 31 19 17 58 49 87 71 29 22 56 46 59 54 3 8 11 14 18 14 7 0 34 20 61 45
26 25 50 45 54 45 3 0 15 8 26 18 11 9 40 32 64 51 25 19 54 42 65 53 11 10
61 51 110 90 50 40 96 78 103 85 7 7 16 13 20 13 4 0 21 12 37 28 17 15 46 39
65 53 19 15 47 37 61 50 15 13 39 33 55 44 15 11 40 30 54 42 14 12 45 38 70
58 49 38 125 103 146 123 7 6 17 12 21 12 5 0 18 8 29 18 10 10 53 44 94 77
108 87 109 87 143 117 18 15 35 28 40 28 4 0 15 8 25 18 28 26 71 62 141 117
35 28 68 55 75 62 32 34 36 16 36 -170z m13070 133 c0 -5 -2 -10 -4 -10 -3 0
-8 5 -11 10 -3 6 -1 10 4 10 6 0 11 -4 11 -10z m-18043 -136 c-3 -3 -12 -4
-19 -1 -8 3 -5 6 6 6 11 1 17 -2 13 -5z m18323 -34 c0 -5 -5 -10 -11 -10 -5 0
-7 5 -4 10 3 6 8 10 11 10 2 0 4 -4 4 -10z m-10324 -202 c-3 -7 -24 -40 -45
-73 -22 -33 -54 -87 -71 -119 -17 -33 -45 -79 -61 -102 -16 -23 -29 -46 -29
-49 0 -4 -9 -18 -20 -32 -11 -14 -20 -34 -20 -43 0 -10 -7 -20 -15 -24 -8 -3
-15 -10 -15 -15 0 -6 -12 -29 -27 -53 -43 -66 -58 -91 -138 -233 -15 -27 -31
-52 -35 -55 -3 -3 -9 -12 -13 -20 -4 -8 -18 -33 -32 -55 -13 -22 -38 -65 -55
-95 -17 -30 -46 -82 -65 -115 l-34 -60 -73 -2 c-40 -2 -227 -4 -416 -5 -280
-3 -342 -1 -342 10 0 8 20 37 45 65 25 29 45 55 45 59 0 4 10 18 23 31 50 53
137 156 137 162 0 3 17 24 37 46 20 21 44 50 52 63 9 13 72 91 141 173 69 81
139 166 155 187 71 92 224 280 263 324 12 13 22 28 24 34 3 7 103 12 282 14
153 1 281 5 284 9 10 9 25 -13 18 -27z m2479 -13 c18 -20 36 -42 39 -50 3 -8
15 -15 26 -15 11 0 20 -5 20 -11 0 -5 -6 -7 -12 -3 -7 4 -6 -1 3 -12 9 -10 25
-30 35 -43 10 -13 36 -44 58 -70 21 -25 55 -66 75 -90 20 -24 46 -54 57 -67
12 -12 19 -25 16 -28 -3 -3 0 -6 6 -6 7 0 12 -4 12 -10 0 -14 50 -61 60 -55 4
2 7 -1 6 -8 -1 -13 53 -83 107 -139 15 -16 27 -33 27 -38 0 -6 5 -10 10 -10 6
0 10 -5 10 -11 0 -6 20 -30 45 -55 25 -24 45 -47 45 -52 0 -5 27 -37 60 -72
32 -35 57 -66 55 -69 -3 -2 9 -17 25 -33 17 -15 30 -31 30 -34 0 -4 8 -14 18
-23 28 -25 82 -98 82 -110 0 -7 -125 -11 -415 -11 l-415 0 -27 42 c-14 24 -55
90 -90 148 -34 58 -66 110 -70 115 -5 6 -19 30 -32 55 -13 25 -36 63 -51 85
-15 22 -37 60 -50 85 -12 25 -29 53 -38 63 -17 19 -36 50 -51 84 -5 11 -15 24
-21 28 -5 3 -17 21 -26 38 -8 18 -26 50 -39 72 -14 22 -30 51 -37 65 -15 31
-61 103 -69 110 -3 3 -18 27 -32 53 -15 26 -34 59 -43 73 -31 46 -12 49 287
47 l270 -3 34 -35z m8202 -21 c-3 -3 -12 -4 -19 -1 -8 3 -5 6 6 6 11 1 17 -2
13 -5z m-19420 -46 c-3 -7 -5 -2 -5 12 0 14 2 19 5 13 2 -7 2 -19 0 -25z m623
-378 c0 -5 -4 -10 -10 -10 -5 0 -10 5 -10 10 0 6 5 10 10 10 6 0 10 -4 10 -10z
m10027 -95 c12 -22 25 -48 29 -57 3 -10 9 -18 13 -18 4 0 15 -18 25 -40 10
-22 27 -53 40 -68 12 -15 28 -40 36 -57 8 -16 23 -38 35 -47 11 -10 15 -18 8
-18 -12 0 43 -92 59 -98 4 -2 8 -12 8 -23 0 -10 4 -19 8 -19 5 0 17 -18 27
-40 10 -22 24 -45 32 -51 7 -6 13 -20 13 -30 0 -18 -12 -19 -247 -20 -137 0
-283 -2 -325 -5 l-78 -5 0 78 c0 43 -2 183 -3 311 -3 179 0 235 9 240 7 4 75
7 150 7 l138 0 23 -40z m-1641 21 c16 -6 19 -602 3 -611 -16 -10 -646 -18
-652 -8 -2 4 13 37 35 73 22 36 48 79 57 95 9 17 28 48 42 70 14 22 37 60 51
85 14 25 53 92 88 150 35 58 69 115 77 127 10 18 24 23 70 25 69 4 213 0 229
-6z m4664 -585 c41 -6 86 -15 100 -20 57 -21 131 -41 154 -43 13 -1 23 -5 21
-9 -4 -6 68 -33 90 -34 6 0 12 -3 15 -6 3 -3 41 -25 85 -49 44 -23 92 -51 107
-61 14 -11 34 -19 43 -19 9 0 14 -4 11 -8 -3 -5 7 -15 22 -23 15 -8 35 -22 45
-33 9 -10 17 -15 17 -10 0 5 5 1 11 -8 5 -10 17 -18 24 -18 8 0 14 -6 12 -12
-1 -7 6 -12 15 -12 10 1 16 -2 15 -6 -1 -4 10 -19 26 -33 15 -14 27 -29 27
-32 0 -3 8 -13 18 -23 77 -82 112 -123 112 -131 0 -16 42 -51 53 -44 7 4 8 -1
4 -12 -8 -20 10 -48 26 -38 6 3 7 1 3 -5 -4 -6 -2 -19 3 -29 5 -10 12 -26 15
-35 3 -10 11 -16 18 -14 7 1 10 1 6 -1 -4 -3 -3 -12 2 -21 17 -34 40 -90 40
-100 0 -6 6 -17 13 -24 6 -7 20 -47 31 -88 10 -41 22 -79 26 -85 4 -5 11 -31
14 -57 4 -27 13 -48 19 -48 9 0 9 -2 0 -8 -16 -10 2 -132 20 -144 9 -6 9 -8 1
-8 -9 0 -12 -40 -12 -135 0 -74 -3 -139 -7 -144 -3 -6 -8 -30 -10 -53 -7 -62
-61 -250 -85 -293 -11 -19 -20 -43 -20 -51 0 -9 -8 -28 -18 -42 -10 -15 -24
-40 -32 -57 -8 -16 -17 -32 -21 -35 -3 -3 -11 -19 -17 -35 -7 -17 -25 -44 -40
-60 -16 -17 -43 -50 -61 -75 -38 -53 -169 -190 -182 -190 -4 0 -12 -6 -16 -14
-4 -8 -33 -31 -63 -51 -30 -20 -63 -43 -72 -52 -43 -39 -294 -162 -363 -179
-16 -4 -34 -10 -40 -14 -5 -4 -73 -20 -150 -35 -208 -42 -448 -40 -630 5 -22
5 -65 15 -95 23 -30 7 -77 23 -104 35 -27 12 -53 22 -58 22 -30 0 -298 161
-349 209 -9 9 -41 36 -71 61 -30 25 -85 81 -121 125 -180 216 -267 391 -333
670 -22 95 -30 343 -15 442 24 150 53 278 70 318 10 22 24 56 32 75 7 19 33
73 57 120 24 47 49 95 56 107 6 13 14 23 18 23 3 0 19 21 36 48 16 26 53 73
83 105 30 31 54 57 52 57 -8 0 96 88 110 93 11 4 21 15 24 25 2 10 23 26 46
36 23 10 67 34 97 54 30 20 61 37 69 39 8 1 17 5 20 10 10 14 152 83 171 83
10 0 33 6 52 14 33 14 132 39 200 51 17 3 35 8 40 11 4 3 42 7 84 9 41 2 78 5
80 8 9 8 249 0 324 -12z m-11880 -195 c0 -2 -7 -6 -15 -10 -8 -3 -15 -1 -15 4
0 6 7 10 15 10 8 0 15 -2 15 -4z m9922 -22 c87 -4 155 -11 152 -16 -3 -4 6 -8
21 -8 27 0 95 -25 95 -34 0 -4 -8 -14 -17 -24 -56 -59 -107 -121 -124 -152
-28 -51 -43 -74 -52 -81 -10 -7 -19 -23 -66 -114 -17 -33 -35 -67 -39 -75 -24
-43 -42 -83 -42 -91 0 -4 -11 -32 -24 -62 -38 -81 -56 -139 -56 -177 -1 -63
-4 -64 -147 -56 -240 13 -445 57 -608 131 -27 13 -68 28 -90 35 -22 7 -42 16
-45 19 -3 3 -48 28 -100 55 -96 50 -152 85 -158 99 -2 4 -8 7 -12 7 -5 0 -31
15 -57 32 -47 32 -60 42 -112 85 l-26 21 82 81 c45 45 84 81 87 81 5 0 80 53
113 80 7 6 15 10 18 10 3 0 47 20 98 44 50 24 119 49 152 56 33 7 64 17 70 22
5 4 30 8 55 8 25 0 61 5 80 10 19 6 79 12 134 15 54 2 100 5 101 7 6 5 354 0
517 -8z m-3482 -19 c135 -4 252 -19 360 -46 25 -6 54 -12 65 -13 11 -2 31 -8
45 -14 92 -40 123 -51 131 -46 5 3 9 1 9 -3 0 -5 17 -17 38 -28 20 -11 52 -31
69 -45 18 -14 34 -23 36 -20 7 14 157 -159 157 -181 0 -17 -70 -89 -86 -89 -7
0 -14 -3 -16 -7 -4 -11 -105 -87 -148 -112 -69 -40 -226 -118 -285 -140 -33
-13 -69 -27 -80 -31 -141 -58 -447 -110 -651 -110 -189 0 -436 51 -580 121
-45 21 -85 39 -90 39 -4 0 -22 11 -40 25 -18 14 -37 25 -42 25 -11 0 -107
-111 -160 -186 -48 -66 -117 -200 -137 -264 -9 -30 -22 -91 -29 -135 -11 -76
-13 -79 -28 -60 -9 11 -33 40 -54 65 -106 130 -306 310 -345 310 -6 0 -20 9
-30 21 -10 11 -24 22 -32 23 -8 1 -22 8 -32 16 -9 7 -37 23 -62 34 l-46 22 54
64 c59 72 193 202 251 243 84 61 208 144 230 156 15 8 37 22 47 33 11 10 25
18 32 18 6 0 23 8 37 18 28 19 76 43 125 61 15 6 27 14 27 19 0 4 9 8 20 9 18
2 42 11 135 53 22 10 74 28 115 40 41 12 95 27 120 35 60 18 259 65 268 63 4
-1 27 2 52 6 63 10 295 23 355 19 28 -1 115 -5 195 -8z m-5193 -491 c-3 -3
-12 -4 -19 -1 -8 3 -5 6 6 6 11 1 17 -2 13 -5z m4052 -1272 c9 -10 32 -27 51
-38 19 -10 44 -26 55 -35 20 -16 191 -101 270 -134 22 -9 49 -20 60 -25 11 -5
56 -21 100 -36 44 -14 94 -32 110 -39 44 -18 207 -65 227 -65 9 0 20 -4 23
-10 3 -5 17 -10 30 -10 13 0 27 -4 30 -10 3 -5 17 -10 29 -10 13 0 40 -7 61
-16 21 -8 49 -17 64 -19 14 -2 60 -13 101 -24 325 -85 1008 -244 1098 -256 17
-2 40 -6 51 -10 11 -3 42 -10 68 -15 26 -4 75 -15 108 -23 94 -24 256 -59 274
-61 9 0 18 -4 21 -7 3 -4 34 -13 70 -22 36 -9 94 -23 130 -32 36 -10 74 -19
85 -20 11 -2 40 -10 65 -19 25 -9 86 -27 135 -41 153 -44 289 -86 310 -95 11
-5 52 -19 90 -31 39 -12 98 -34 132 -50 34 -16 70 -29 80 -29 11 0 23 -4 28
-8 6 -5 26 -15 45 -22 19 -7 58 -23 85 -35 28 -13 90 -42 138 -64 49 -23 91
-41 93 -41 2 0 42 -23 89 -51 47 -28 99 -55 115 -60 16 -6 31 -17 34 -25 3 -8
14 -14 25 -14 10 0 21 -7 25 -15 3 -8 12 -15 19 -15 8 0 32 -16 53 -35 20 -19
39 -33 41 -31 3 2 18 -9 34 -25 16 -16 33 -29 37 -29 4 0 31 -23 60 -50 29
-28 57 -48 61 -46 4 3 7 -4 8 -14 2 -20 -14 -28 -122 -60 -38 -11 -97 -29
-130 -40 -33 -10 -76 -22 -95 -25 -19 -4 -55 -13 -80 -20 -25 -8 -58 -16 -75
-19 -16 -3 -100 -23 -185 -46 -85 -22 -183 -45 -218 -50 -62 -10 -65 -9 -120
23 -31 18 -73 39 -92 46 -19 7 -66 28 -105 47 -38 18 -104 45 -145 59 -41 14
-84 30 -95 35 -11 5 -78 28 -150 50 -71 23 -149 48 -173 57 -23 8 -75 23 -115
34 -492 128 -491 128 -737 180 -52 11 -135 26 -185 35 -49 8 -106 19 -125 24
-19 5 -102 21 -185 36 -82 15 -168 30 -190 34 -587 116 -705 142 -930 210 -88
27 -176 53 -195 58 -41 12 -142 48 -185 66 -16 7 -44 18 -61 25 -29 12 -32 16
-38 77 -16 156 -79 458 -126 604 -18 56 -89 272 -106 323 -8 23 23 23 45 -1z
m-1639 -211 c172 -38 231 -56 323 -102 22 -10 45 -19 53 -19 8 0 14 -4 14 -10
0 -5 6 -10 14 -10 7 0 25 -9 39 -20 14 -11 30 -20 36 -20 6 0 19 -8 30 -17 10
-10 33 -29 52 -43 18 -14 45 -37 60 -51 15 -15 31 -28 36 -30 15 -7 163 -170
163 -180 0 -6 5 -7 12 -3 6 4 8 3 5 -3 -3 -5 10 -32 29 -59 52 -72 140 -256
160 -334 35 -136 46 -228 47 -370 0 -156 -6 -203 -46 -360 -23 -93 -118 -288
-186 -385 -91 -129 -240 -274 -359 -349 -39 -24 -57 -35 -128 -75 -87 -48
-294 -115 -409 -132 -92 -13 -323 -13 -407 0 -346 56 -680 269 -874 557 -148
222 -224 467 -224 723 0 158 30 334 72 427 10 22 18 44 18 49 0 13 77 164 108
211 49 75 66 99 99 134 18 19 31 41 28 48 -3 7 -1 11 4 8 4 -3 38 23 73 57 75
71 84 79 161 135 31 23 61 42 67 42 5 0 10 5 10 10 0 6 5 10 12 10 7 0 47 18
90 41 119 61 227 95 388 119 41 7 82 13 90 14 41 7 292 -3 340 -13z m6324
-124 c10 -23 38 -82 61 -132 23 -49 49 -105 56 -122 8 -18 17 -33 20 -33 4 0
19 -20 33 -45 15 -25 32 -45 38 -45 6 0 8 -3 5 -7 -4 -3 42 -55 102 -114 72
-73 105 -111 97 -117 -31 -24 -181 -83 -301 -119 -27 -8 -70 -21 -95 -30 -53
-18 -205 -56 -309 -79 -66 -14 -78 -14 -105 -1 -45 22 -78 35 -103 42 -13 4
-23 11 -23 16 0 5 -4 9 -10 9 -5 0 -74 27 -153 60 -80 33 -152 60 -161 60 -9
0 -27 6 -39 14 -12 8 -33 16 -47 18 -14 2 -27 6 -30 9 -3 3 -52 20 -110 38
-58 18 -116 37 -130 41 -25 9 -124 35 -340 90 -63 16 -136 33 -163 36 -73 10
-74 27 -2 38 22 3 60 10 85 16 25 5 90 19 145 30 55 12 123 26 150 32 28 6 59
13 70 15 117 19 459 99 490 113 11 5 47 14 80 19 33 5 123 28 200 52 77 23
155 44 173 46 18 3 35 9 38 14 3 5 12 9 19 9 8 0 40 12 70 26 31 14 62 23 68
21 7 -2 26 2 42 9 47 21 59 16 79 -29z m-4420 -869 c22 -6 45 -15 51 -20 5 -4
18 -8 30 -8 11 0 69 -16 129 -35 60 -20 115 -34 123 -31 7 3 13 1 13 -4 0 -6
7 -10 15 -10 34 0 10 -20 -72 -62 -105 -53 -124 -64 -183 -104 -101 -69 -140
-98 -140 -106 0 -4 -4 -8 -10 -8 -6 0 -10 73 -10 200 0 110 3 200 6 200 4 0
25 -5 48 -12z m787 -219 c79 -16 176 -36 214 -43 39 -7 156 -32 260 -55 355
-78 410 -90 500 -106 113 -21 125 -24 125 -36 0 -11 -4 -13 -85 -29 -115 -24
-435 -120 -499 -151 -22 -11 -43 -19 -48 -19 -25 0 -279 -135 -286 -152 -2 -5
-9 -8 -16 -8 -28 0 -218 -174 -250 -229 -64 -108 -86 -181 -86 -281 0 -135 36
-259 112 -388 37 -63 200 -230 263 -270 22 -14 52 -35 67 -47 15 -13 63 -44
107 -70 45 -26 81 -53 81 -59 0 -6 -19 -22 -41 -36 -71 -43 -223 -205 -308
-327 -80 -114 -191 -317 -191 -348 0 -23 -11 -19 -76 27 -174 123 -323 264
-504 474 -45 51 -160 216 -202 288 -128 219 -218 469 -234 652 -6 68 -5 74 34
155 90 189 147 364 159 494 4 33 15 64 36 95 39 56 179 195 230 227 21 13 40
30 44 38 3 8 9 15 14 15 4 0 52 28 106 63 54 35 123 75 153 89 105 51 145 68
161 68 9 0 81 -14 160 -31z m1564 -348 c55 -11 136 -30 179 -41 44 -11 89 -20
102 -20 12 0 24 -6 27 -13 3 -8 -1 -133 -9 -278 -8 -145 -14 -291 -15 -324
l-1 -60 -70 -70 c-38 -39 -74 -78 -80 -89 -5 -10 -26 -39 -45 -64 -38 -50
-103 -183 -103 -210 0 -16 27 -29 240 -114 55 -22 55 -22 52 -84 -2 -33 -8
-63 -12 -68 -5 -5 -44 2 -92 17 -145 46 -253 68 -370 75 l-113 7 -6 190 c-17
536 -24 785 -24 934 l0 164 30 10 c17 6 33 15 37 21 4 6 8 8 8 4 0 -4 28 3 63
17 34 13 71 22 82 20 11 -2 65 -13 120 -24z m-5745 -251 c0 -5 -5 -10 -11 -10
-5 0 -7 5 -4 10 3 6 8 10 11 10 2 0 4 -4 4 -10z m3008 -981 c11 -75 120 -297
229 -469 97 -151 332 -416 503 -565 57 -50 250 -204 269 -214 14 -8 13 -21 -7
-106 -6 -22 -14 -60 -20 -85 -32 -149 -66 -257 -86 -280 -110 -122 -203 -374
-226 -611 -19 -200 4 -405 66 -609 35 -114 141 -327 213 -427 57 -79 93 -166
150 -368 42 -149 66 -348 56 -476 l-7 -87 -56 -5 c-105 -10 -600 -30 -614 -24
-13 5 -22 27 -84 227 -33 105 -84 209 -123 249 -43 44 -108 73 -177 79 l-61 5
-16 -69 c-19 -82 -66 -292 -78 -349 -4 -22 -24 -110 -44 -195 -19 -85 -40
-175 -45 -200 -5 -25 -32 -146 -60 -270 -94 -411 -91 -388 -74 -530 29 -251
18 -655 -26 -930 -36 -222 -128 -644 -152 -695 -5 -11 -19 -65 -32 -120 -13
-55 -38 -154 -56 -220 -41 -155 -120 -547 -120 -599 -1 -23 -7 -52 -15 -66
-19 -33 -19 -64 2 -103 9 -18 19 -43 20 -57 5 -37 31 -104 74 -198 22 -46 39
-92 39 -102 0 -10 7 -25 15 -34 14 -14 75 -155 75 -174 0 -5 7 -23 15 -40 9
-17 18 -41 20 -54 3 -13 9 -24 15 -26 5 -2 10 -11 10 -20 0 -15 60 -172 70
-182 3 -3 6 -13 8 -23 2 -10 13 -39 24 -65 12 -26 22 -52 23 -58 2 -6 14 -35
28 -65 13 -30 41 -98 62 -151 20 -54 41 -98 46 -98 5 0 8 -3 8 -7 -1 -5 0 -11
1 -15 1 -5 3 -11 4 -15 1 -5 7 -18 14 -30 7 -13 10 -23 7 -23 -3 0 0 -10 7
-22 7 -13 13 -25 13 -28 4 -27 29 -80 37 -80 6 0 7 -7 4 -16 -4 -10 -2 -13 6
-8 7 5 9 2 5 -8 -3 -9 0 -21 6 -27 6 -6 8 -11 4 -11 -4 0 -2 -10 5 -22 7 -13
13 -26 14 -30 1 -5 2 -9 4 -10 1 -2 3 -11 5 -20 2 -9 15 -43 31 -75 15 -32 26
-61 26 -65 -1 -5 2 -8 8 -8 6 0 9 -3 8 -7 -1 -8 15 -48 53 -130 10 -24 19 -48
19 -54 0 -6 27 -77 59 -159 51 -129 67 -184 76 -275 1 -11 6 -54 9 -95 4 -41
10 -88 12 -105 3 -16 8 -119 11 -228 8 -299 -13 -676 -62 -1077 -24 -202 -55
-474 -55 -487 0 -13 -120 -20 -470 -28 -233 -5 -306 -7 -655 -21 -263 -10
-1249 -14 -1254 -5 -5 7 -806 34 -1061 36 -52 0 -97 3 -100 6 -3 3 -70 9 -150
13 -163 7 -361 23 -397 32 -24 6 -41 44 -28 64 4 6 2 16 -3 23 -10 11 -16 41
-27 137 -3 19 -9 69 -15 110 -26 200 -51 435 -56 535 -4 60 -9 112 -13 115 -3
3 -7 77 -7 165 -1 88 -5 232 -8 320 -3 88 -10 403 -16 700 -6 297 -14 587 -18
644 l-7 103 25 9 c101 37 226 157 253 244 51 166 49 145 56 490 5 182 12 339
16 350 5 11 27 39 49 63 23 24 43 48 44 53 5 11 140 76 180 85 15 4 43 15 62
24 19 9 40 15 47 13 23 -8 158 59 192 96 18 20 30 29 26 21 -6 -13 -5 -13 7 0
7 8 33 28 57 45 24 16 45 35 48 42 3 7 11 13 19 13 18 0 114 59 114 71 0 5 5
9 11 9 5 0 7 -6 4 -12 -4 -7 -1 -6 7 2 17 20 325 173 353 175 6 0 17 5 25 10
8 5 21 10 29 12 8 1 18 8 22 15 5 7 9 10 9 6 0 -9 434 208 452 225 7 7 40 32
73 56 161 117 294 287 343 441 22 67 41 206 39 281 l-2 75 -81 90 c-116 129
-333 402 -414 521 -8 11 -52 72 -96 135 -45 62 -134 192 -198 288 -63 96 -120
182 -126 190 -6 8 -25 39 -43 68 -17 29 -70 111 -117 183 -47 72 -109 170
-139 217 l-54 87 -4 300 c-5 521 -29 793 -93 1060 -87 361 -236 626 -463 825
-47 41 -84 76 -82 79 3 2 29 14 59 26 174 71 336 241 438 461 76 164 98 232
168 518 27 109 56 206 65 216 9 10 31 21 48 24 31 6 129 -13 172 -34 112 -52
321 -134 374 -146 113 -26 546 -14 741 20 201 36 366 115 484 233 65 65 146
171 146 192 0 24 25 19 117 -22 105 -47 253 -100 398 -142 361 -107 525 -164
667 -236 82 -41 220 -137 281 -194 26 -25 52 -45 57 -45 5 0 12 10 16 23 3 12
15 40 25 62 10 22 32 74 48 116 35 89 33 104 -26 219 -24 49 -54 88 -99 129
-119 108 -259 165 -639 257 -237 57 -338 96 -480 180 -18 11 -15 16 36 80 119
148 221 343 274 524 23 81 45 190 45 228 0 39 23 40 28 1z m-1150 -389 c7
-443 -52 -626 -235 -731 -130 -75 -388 -112 -538 -78 -108 24 -177 51 -348
134 -114 55 -130 69 -167 150 -36 80 -45 174 -45 468 l0 238 35 -6 c326 -52
723 -47 1110 14 63 10 131 18 150 17 l35 -1 3 -205z m4835 -72 c7 -7 35 -42
62 -78 28 -36 52 -67 55 -70 10 -9 109 -158 128 -192 80 -142 182 -375 182
-414 0 -8 -15 -22 -34 -31 -32 -15 -35 -15 -64 6 -17 11 -34 21 -39 21 -4 0
-13 17 -20 38 -6 21 -39 95 -72 165 -34 70 -61 129 -61 131 0 8 -133 231 -171
288 -23 33 -50 63 -60 65 -30 8 -22 26 24 55 48 32 54 33 70 16z m-7581 -19
c198 -41 350 -127 496 -280 80 -83 143 -183 172 -271 12 -34 28 -77 36 -95 23
-50 37 -188 31 -303 -9 -175 -52 -300 -158 -457 -118 -175 -299 -300 -525
-365 -116 -32 -344 -33 -462 0 -162 44 -312 133 -428 254 -136 142 -213 303
-240 503 -38 277 48 536 244 737 75 77 217 188 240 188 4 0 31 11 58 24 45 22
173 60 234 69 56 9 252 6 302 -4z m3628 -69 c0 -5 -5 -10 -11 -10 -5 0 -7 5
-4 10 3 6 8 10 11 10 2 0 4 -4 4 -10z m-660 -814 c0 -2 -8 -10 -17 -17 -16
-13 -17 -12 -4 4 13 16 21 21 21 13z m3610 -30 c280 -46 536 -212 694 -449 64
-96 122 -216 136 -279 5 -24 16 -74 24 -113 9 -39 16 -115 16 -170 0 -114 -23
-292 -39 -308 -6 -6 -11 -18 -11 -26 0 -9 -15 -50 -33 -91 -92 -209 -277 -407
-472 -506 -435 -222 -920 -142 -1247 204 -38 40 -68 76 -68 80 0 5 -9 17 -20
27 -11 10 -20 24 -20 31 0 7 -4 14 -9 16 -19 7 -102 191 -120 265 -49 201 -51
370 -7 545 22 87 94 261 123 298 6 8 38 49 70 90 171 217 443 364 718 389 136
12 172 12 265 -3z m1444 -144 c22 -20 54 -47 69 -59 34 -26 43 -56 63 -193 39
-277 51 -554 34 -805 -7 -99 -12 -187 -12 -195 0 -25 -58 -481 -68 -535 -5
-27 -12 -67 -15 -87 -4 -29 -18 -47 -61 -85 -62 -53 -173 -133 -186 -133 -13
0 -9 35 8 76 22 52 94 301 94 325 0 11 4 27 9 37 11 20 43 193 68 367 13 94
17 192 17 455 1 184 -3 367 -7 405 -13 118 -47 327 -63 386 -7 31 -14 62 -14
68 0 21 23 11 64 -27z m-5409 -2 c3 -5 1 -10 -4 -10 -6 0 -11 5 -11 10 0 6 2
10 4 10 3 0 8 -4 11 -10z m-350 -60 c3 -5 2 -10 -4 -10 -5 0 -13 5 -16 10 -3
6 -2 10 4 10 5 0 13 -4 16 -10z m-1195 -190 c0 -5 -5 -10 -11 -10 -5 0 -7 5
-4 10 3 6 8 10 11 10 2 0 4 -4 4 -10z m12745 -590 c3 -5 2 -10 -4 -10 -5 0
-13 5 -16 10 -3 6 -2 10 4 10 5 0 13 -4 16 -10z m-2400 -926 c72 -8 222 -49
308 -83 433 -172 753 -573 822 -1028 40 -261 3 -520 -107 -751 -106 -222 -251
-394 -460 -542 -31 -22 -59 -40 -63 -40 -4 0 -19 -9 -33 -19 -105 -74 -318
-146 -512 -172 -137 -19 -374 -6 -493 25 -145 39 -250 82 -360 148 -132 79
-198 131 -282 220 -155 164 -246 317 -309 516 -80 254 -76 570 11 822 30 88
119 263 170 335 52 73 156 194 168 194 6 1 29 21 53 45 23 24 79 69 125 99
286 192 620 272 962 231z m-5537 -368 c380 -95 472 -109 677 -109 140 0 157 2
260 32 60 18 122 39 137 47 15 8 32 14 38 14 6 0 10 -42 10 -119 0 -114 6
-150 36 -218 8 -17 14 -34 14 -38 0 -36 198 -266 256 -298 11 -6 21 -13 24
-17 3 -3 20 -16 38 -29 41 -28 36 -35 -63 -95 -81 -49 -217 -108 -315 -136
-36 -11 -92 -29 -125 -41 -33 -11 -100 -32 -150 -45 -49 -13 -124 -33 -165
-45 -137 -37 -154 -39 -201 -24 -91 29 -179 62 -186 68 -3 4 -16 7 -27 7 -12
0 -34 7 -51 16 -16 9 -55 24 -85 34 -30 10 -109 40 -175 66 -66 26 -133 50
-150 55 -27 7 -104 36 -230 87 -55 23 -60 34 -22 53 54 28 144 126 176 192 69
144 83 208 89 415 2 94 6 172 9 172 2 0 84 -20 181 -44z m2132 -83 c-1 -12
-26 -109 -50 -193 -11 -41 -28 -101 -36 -133 -16 -68 -32 -100 -43 -93 -5 3
-43 58 -86 122 -62 92 -75 118 -64 125 8 5 17 9 21 9 8 0 135 87 198 135 45
35 60 42 60 28z m-3064 -1234 c388 -121 979 -302 1219 -374 121 -36 271 -82
334 -102 99 -31 121 -35 180 -30 118 11 333 89 681 249 413 191 625 254 823
246 93 -3 109 -7 178 -41 165 -79 247 -223 333 -582 25 -104 52 -215 60 -245
36 -139 85 -433 138 -835 19 -142 22 -213 22 -430 -2 -434 -45 -670 -181 -990
-26 -61 -39 -82 -47 -74 -4 4 -42 193 -52 258 -9 61 -84 344 -120 456 -20 61
-44 135 -54 165 -31 94 -87 232 -124 308 -20 40 -36 77 -36 83 0 35 -62 138
-105 174 -77 65 -146 80 -224 49 -42 -17 -45 -22 -98 -167 -63 -175 -124 -448
-144 -642 -16 -153 -17 -165 -18 -208 -1 -21 -5 -36 -10 -33 -5 4 -9 -11 -8
-32 1 -20 -2 -43 -7 -50 -4 -6 -9 -54 -12 -104 -4 -96 -9 -161 -19 -238 -8
-72 -7 -146 5 -211 6 -33 10 -68 9 -77 -1 -9 1 -25 6 -35 4 -9 5 -29 2 -44 -3
-16 1 -32 9 -40 12 -13 20 -50 15 -77 -1 -4 4 -14 10 -22 7 -8 9 -27 5 -45 -3
-16 -2 -28 3 -24 5 3 11 -19 14 -47 2 -29 16 -107 31 -173 15 -66 36 -169 46
-229 11 -60 27 -131 35 -157 13 -47 13 -49 -6 -49 -11 0 -18 4 -15 8 7 12
-121 31 -289 43 -105 8 -164 8 -235 -1 -52 -7 -140 -12 -195 -11 -54 1 -232
-6 -395 -15 -458 -26 -759 -9 -1024 55 l-79 19 -76 -26 c-63 -22 -93 -26 -176
-25 -101 1 -106 2 -262 64 -30 12 -45 29 -25 29 7 0 23 31 133 250 20 41 42
101 49 133 6 31 14 57 18 57 4 0 8 12 9 26 0 15 6 30 13 34 6 4 10 16 9 26 -2
11 -1 24 3 29 3 6 14 57 23 115 14 82 18 162 18 370 0 302 -2 360 -12 360 -4
0 -6 13 -3 30 8 55 -105 698 -158 895 -10 39 -21 90 -24 115 -12 90 -20 104
-57 111 -19 4 -59 18 -90 33 -119 56 -162 42 -208 -68 -17 -41 -31 -77 -31
-81 0 -3 -11 -30 -24 -58 -13 -29 -31 -75 -40 -102 -10 -28 -60 -160 -113
-295 -52 -135 -110 -284 -129 -332 -19 -49 -34 -90 -34 -93 0 -2 -13 -32 -30
-66 -16 -34 -27 -65 -25 -70 3 -4 -8 -34 -25 -66 -44 -85 -44 -94 -4 -188 7
-16 15 -48 19 -70 4 -22 10 -51 15 -65 4 -14 16 -54 25 -90 10 -36 27 -92 37
-125 11 -33 22 -80 25 -105 2 -25 9 -51 15 -57 6 -7 8 -13 6 -13 -3 0 -1 -24
4 -52 5 -29 11 -78 14 -108 3 -30 11 -71 17 -90 8 -23 11 -96 9 -217 -2 -178
-3 -183 -36 -275 -71 -197 -77 -208 -133 -266 -30 -31 -52 -52 -49 -45 4 6 -5
20 -19 31 -14 11 -25 24 -25 28 0 5 -9 17 -20 29 -51 53 -89 103 -83 109 3 3
1 6 -5 6 -7 0 -12 7 -12 15 0 8 -9 23 -20 32 -11 10 -20 22 -20 29 0 6 -15 42
-34 80 -65 131 -116 259 -130 327 -2 7 -6 19 -10 28 -4 9 -8 27 -10 40 -1 13
-7 42 -13 64 -21 74 -36 239 -42 460 -6 211 -4 250 19 430 5 44 12 114 15 155
3 41 7 84 9 95 8 35 14 81 9 68 -9 -25 -25 -13 -19 13 4 15 9 40 12 58 10 61
27 116 34 111 4 -2 4 13 0 35 -4 22 -4 40 1 40 4 0 9 -8 11 -17 2 -10 13 36
26 102 35 190 35 198 20 190 -7 -3 -5 0 4 8 17 14 43 105 33 115 -3 3 -5 -1
-5 -8 0 -7 -2 -11 -5 -8 -3 3 1 18 9 34 8 16 42 151 76 299 33 149 74 326 91
395 16 69 29 152 29 184 0 111 40 344 81 468 45 138 121 296 186 387 96 134
273 291 329 291 11 0 66 -14 120 -31z m-5315 -900 c31 -15 51 -34 112 -109 8
-10 12 -57 12 -141 0 -127 0 -127 -30 -165 -43 -52 -89 -74 -155 -74 -64 0
-116 21 -194 79 -92 68 -109 133 -63 234 19 43 88 155 113 186 8 9 82 17 124
13 25 -3 61 -13 81 -23z m11012 -423 c179 -68 427 -73 896 -16 215 25 266 29
272 18 16 -24 10 -164 -9 -225 -10 -33 -38 -88 -62 -124 -40 -59 -286 -315
-356 -370 -56 -44 -158 -131 -206 -176 -30 -27 -53 -41 -60 -37 -7 4 -86 80
-176 168 -268 263 -358 384 -397 536 -26 101 -14 250 21 250 7 0 41 -11 77
-24z m-9597 -272 c125 -50 209 -121 259 -220 28 -55 30 -66 30 -174 l-1 -115
-43 -74 c-132 -223 -371 -316 -580 -225 -78 35 -105 51 -147 88 -54 46 -96
107 -114 163 -7 23 -16 40 -21 38 -4 -3 -5 5 -1 17 4 16 2 19 -8 13 -8 -5 -11
-4 -6 3 8 14 -4 93 -14 87 -15 -9 11 90 37 142 32 63 135 166 207 206 97 54
219 87 298 81 21 -2 68 -15 104 -30z m11716 -65 c85 -18 154 -57 207 -114 109
-120 146 -289 90 -411 -27 -58 -167 -204 -196 -204 -10 0 -24 -5 -31 -12 -26
-26 -234 -87 -299 -88 -39 0 -49 7 -145 93 -139 126 -175 169 -209 243 -24 53
-29 77 -29 144 0 88 10 117 57 162 58 56 100 86 174 122 140 69 264 90 381 65z
m-2901 -383 c75 -3 142 -8 150 -11 8 -3 69 -9 136 -13 l123 -8 57 -55 c32 -30
148 -153 258 -273 367 -402 537 -526 725 -526 89 0 148 28 213 100 60 66 138
224 152 309 4 22 11 41 15 41 5 0 68 -60 142 -134 287 -288 525 -416 772 -416
175 0 247 19 426 115 92 49 139 56 189 30 34 -17 46 -46 62 -140 27 -165 97
-387 239 -765 78 -206 143 -408 164 -510 3 -14 12 -59 21 -100 22 -103 31
-391 16 -505 -30 -222 -63 -310 -207 -543 -63 -101 -128 -209 -145 -240 -17
-31 -37 -64 -44 -72 -7 -8 -23 -35 -36 -59 -13 -24 -29 -51 -34 -60 -6 -9 -26
-43 -46 -76 -20 -33 -62 -100 -92 -150 -31 -49 -91 -148 -134 -220 -92 -154
-123 -199 -134 -188 -9 9 -28 238 -23 274 1 13 8 78 15 144 15 158 51 316 123
550 19 61 40 130 46 155 6 25 15 54 20 65 5 11 19 56 31 100 11 44 25 96 31
115 26 94 59 268 54 295 -2 17 -21 82 -41 145 -44 140 -54 174 -115 415 -60
237 -145 495 -201 605 -49 98 -140 234 -202 305 l-44 49 -64 -13 c-35 -7 -81
-16 -101 -18 l-38 -5 0 -277 c0 -152 -3 -411 -5 -576 -7 -403 -14 -1085 -15
-1271 l0 -151 -127 -7 c-71 -4 -168 -9 -218 -12 -493 -26 -810 -30 -1075 -14
-218 14 -431 37 -540 59 -25 5 -70 14 -100 20 -30 6 -94 23 -141 38 l-87 27
-7 173 c-8 186 -3 346 20 593 8 85 21 234 29 330 9 96 20 225 26 286 16 176 9
432 -15 589 -3 17 -9 63 -15 103 -17 128 -50 164 -151 164 -105 0 -229 -77
-229 -142 0 -9 -22 -83 -49 -165 -26 -83 -69 -224 -95 -315 -26 -91 -51 -176
-56 -190 -12 -33 -111 -377 -149 -515 -16 -60 -39 -141 -50 -180 -26 -88 -26
-135 0 -299 22 -137 108 -418 174 -566 48 -107 130 -367 154 -485 21 -106 32
-243 24 -288 -8 -43 -34 -33 -110 41 -95 92 -193 213 -299 371 -38 57 -157
248 -194 311 -23 41 -51 87 -62 102 -36 54 -263 515 -260 530 1 4 -16 48 -36
98 l-38 91 32 172 c59 310 142 708 194 927 27 118 52 224 55 235 21 100 37
161 58 225 14 41 39 127 57 190 38 139 214 670 235 709 8 16 19 46 24 67 16
68 54 159 70 172 52 42 131 87 171 95 130 27 166 33 175 31 6 -1 71 -5 146 -8z
m-5892 -250 c-9 -8 -10 -7 -5 7 3 10 7 28 7 40 2 16 3 14 6 -7 3 -16 -1 -34
-8 -40z m6731 -4126 c250 -5 588 -12 750 -15 162 -3 422 -8 578 -11 l282 -6 0
-27 c0 -14 -13 -163 -30 -331 -16 -168 -34 -363 -40 -435 -6 -71 -13 -146 -15
-165 -7 -56 -34 -364 -55 -645 -11 -143 -24 -318 -30 -390 -5 -71 -12 -161
-15 -200 -3 -38 -7 -99 -10 -135 -3 -36 -12 -171 -20 -300 -9 -129 -22 -332
-30 -450 -8 -118 -21 -334 -30 -480 -8 -146 -22 -377 -30 -515 -8 -137 -20
-333 -25 -435 -11 -203 -15 -271 -30 -495 -5 -82 -12 -199 -15 -260 -6 -131
-63 -1082 -70 -1175 -2 -36 -9 -144 -15 -240 -6 -96 -17 -285 -25 -420 -8
-135 -17 -297 -20 -360 -4 -63 -8 -131 -11 -151 -4 -33 -1 -40 42 -75 26 -22
53 -45 60 -51 7 -7 16 -13 20 -13 4 0 16 -10 28 -22 12 -13 38 -35 57 -49 45
-35 194 -152 243 -192 35 -28 81 -67 137 -117 58 -51 99 -95 99 -106 0 -7 -17
-23 -37 -35 -21 -13 -40 -25 -43 -28 -5 -6 -11 -8 -80 -21 -58 -11 -575 0
-725 16 -148 15 -363 19 -1077 18 -445 -1 -808 1 -808 5 0 14 27 40 105 98 44
33 125 97 180 142 55 46 118 97 139 114 22 18 72 59 112 92 40 33 85 70 101
82 15 12 42 35 58 52 17 17 35 31 41 31 34 1 35 31 4 420 -6 74 -15 212 -20
305 -5 94 -18 292 -29 440 -11 149 -27 385 -35 525 -9 140 -21 311 -26 380 -6
69 -17 226 -25 350 -8 124 -20 277 -25 340 -5 63 -12 149 -14 190 -14 203 -28
397 -37 505 -9 115 -30 396 -49 685 -5 74 -11 162 -14 195 -13 148 -53 788
-76 1200 -5 105 -15 273 -20 375 -10 177 -19 413 -40 1040 -5 157 -10 392 -10
523 l0 237 108 0 c59 -1 312 -5 562 -10z m-6830 -1330 c0 -5 -5 -10 -11 -10
-5 0 -7 5 -4 10 3 6 8 10 11 10 2 0 4 -4 4 -10z m1585 -339 c177 -13 356 -20
710 -26 574 -11 844 -26 1212 -70 68 -8 128 -15 134 -15 8 0 9 -10 4 -32 -4
-18 -11 -49 -15 -68 -37 -165 -123 -653 -140 -798 -5 -41 -12 -81 -14 -90 -3
-10 -12 -78 -21 -152 -8 -74 -20 -166 -25 -205 -10 -66 -47 -437 -70 -695 -6
-63 -15 -155 -20 -205 -5 -49 -12 -117 -15 -150 -3 -33 -17 -163 -31 -290 -14
-126 -29 -275 -34 -330 -9 -96 -38 -321 -79 -620 -11 -77 -32 -207 -46 -290
-15 -82 -33 -188 -40 -235 -8 -47 -16 -94 -19 -105 -48 -181 -50 -197 -52
-445 -1 -135 -7 -301 -13 -370 -23 -251 -41 -534 -42 -641 l-1 -109 65 -73
c35 -39 68 -79 73 -88 8 -15 86 -103 212 -239 29 -32 61 -68 70 -81 9 -13 31
-37 49 -53 35 -31 45 -76 18 -76 -8 0 -15 3 -15 8 0 4 -26 6 -57 5 -32 -2 -94
-2 -138 -1 -70 1 -182 1 -295 0 -249 -3 -1411 6 -1416 11 -11 10 16 37 53 52
93 39 222 175 287 302 58 114 90 228 117 413 22 159 8 869 -21 980 -5 19 -14
85 -20 145 -6 61 -18 169 -26 240 -8 72 -19 166 -24 210 -5 44 -21 172 -35
285 -14 113 -30 248 -36 300 -5 52 -12 101 -15 109 -2 8 -13 98 -24 200 -11
102 -40 350 -65 551 -25 201 -50 410 -56 465 -6 55 -15 125 -20 155 -5 30 -14
93 -19 140 -15 146 -40 360 -95 815 -14 116 -37 307 -50 425 -14 118 -37 310
-51 425 -15 116 -29 236 -33 268 l-7 57 30 0 c17 0 90 -4 161 -9z m-2835 -20
c85 -6 234 -13 330 -17 96 -4 227 -9 290 -13 l115 -6 -1 -30 c0 -28 -16 -148
-50 -370 -12 -78 -196 -1380 -217 -1535 -3 -19 -12 -84 -21 -145 -38 -264 -43
-302 -51 -370 -3 -27 -10 -70 -15 -95 -5 -25 -14 -85 -20 -135 -6 -49 -17
-128 -25 -175 -8 -47 -16 -101 -19 -120 -8 -59 -45 -311 -56 -375 -5 -33 -17
-112 -26 -175 -8 -63 -24 -167 -35 -230 -32 -189 -38 -230 -48 -355 -6 -66
-13 -131 -15 -145 -3 -14 -7 -43 -10 -65 -2 -22 -19 -137 -36 -255 -18 -118
-34 -235 -36 -260 -10 -101 -35 -319 -44 -385 -6 -38 -12 -106 -15 -150 -3
-44 -11 -118 -17 -164 -22 -176 12 -277 152 -446 47 -57 115 -120 215 -200
105 -84 118 -93 240 -177 41 -28 75 -54 75 -58 0 -4 -8 -14 -17 -22 -44 -38
-636 -43 -1033 -9 -63 6 -182 13 -265 16 -82 4 -215 10 -295 14 -218 12 -719
3 -869 -15 -34 -4 -52 -3 -50 3 7 20 109 100 170 134 160 90 444 367 530 519
31 55 42 83 29 75 -6 -3 -10 -1 -10 5 0 6 7 13 15 16 8 4 15 10 15 16 0 5 -4
7 -9 4 -5 -3 -11 1 -15 9 -3 8 -2 15 2 15 4 0 6 31 4 70 -2 39 -8 70 -14 70
-6 0 -8 6 -5 13 3 7 -4 67 -14 132 -16 99 -28 205 -32 273 0 6 -5 12 -10 12
-5 0 -7 9 -4 21 3 12 2 31 -3 43 -4 12 -11 57 -14 99 -3 42 -8 87 -11 99 -3
13 -7 52 -10 88 -2 36 -17 193 -34 350 -63 593 -83 742 -101 765 -4 6 -8 39
-9 76 -2 104 -78 670 -96 713 -9 21 -16 53 -15 70 4 62 1 76 -15 70 -8 -4 -15
-1 -15 5 0 6 7 11 16 11 11 0 14 5 9 18 -4 9 -9 31 -11 47 -1 17 -6 62 -10
100 -4 39 -12 73 -18 77 -8 5 -8 10 1 19 8 8 8 21 2 43 -6 17 -11 59 -12 94
-2 35 -7 66 -12 70 -6 4 -11 34 -11 67 -2 92 -14 236 -24 275 -5 19 -17 106
-26 192 -10 86 -21 155 -24 153 -3 -2 -6 15 -6 38 0 78 -9 155 -17 150 -4 -2
-5 11 -3 31 3 22 0 39 -10 47 -9 7 -11 16 -5 23 10 13 2 106 -9 106 -4 0 -10
9 -13 20 -3 13 -1 18 5 13 8 -4 9 6 5 33 -4 21 -7 58 -7 82 0 27 -4 41 -10 37
-7 -4 -9 2 -5 18 5 17 2 26 -9 30 -9 4 -16 12 -16 19 0 9 3 8 10 -2 13 -20 12
45 0 115 -5 28 -11 75 -14 105 -8 109 -25 233 -33 239 -4 3 -8 31 -9 61 0 30
-8 110 -18 178 -14 92 -15 126 -7 136 6 8 42 17 79 21 37 3 81 8 97 10 44 6
454 26 575 28 313 7 946 6 1080 -2z m2240 -6201 c0 -5 -5 -10 -11 -10 -5 0 -7
5 -4 10 3 6 8 10 11 10 2 0 4 -4 4 -10z m-3427 -257 c-7 -2 -19 -2 -25 0 -7 3
-2 5 12 5 14 0 19 -2 13 -5z"/>
<path d="M8821 12634 c0 -11 3 -14 6 -6 3 7 2 16 -1 19 -3 4 -6 -2 -5 -13z"/>
<path d="M10160 1215 c-8 -9 -8 -15 -2 -15 12 0 26 19 19 26 -2 2 -10 -2 -17
-11z"/>
</g>
</svg>
